<svg xmlns="http://www.w3.org/2000/svg" id="Layer_2" viewBox="0 0 256.97 252.88" width="256.97" height="252.88"><g id="Layer_1-2"><path d="M49.81,222.92c-9.47,0-17.97-1.66-25.44-4.95-7.51-3.29-13.44-8.11-17.8-14.47-4.4-6.36-6.57-14.08-6.57-23.17s2.18-16.73,6.57-22.92c4.4-6.15,10.46-10.8,18.22-13.91,7.77-3.12,16.64-4.69,26.67-4.69h36.45v-7.51c0-6.23-1.96-11.4-5.89-15.41-3.93-4.01-10.2-6.02-18.74-6.02s-14.64,1.92-18.74,5.76c-4.1,3.84-6.79,8.79-8.02,14.85l-31.07-10.46c2.13-6.79,5.59-12.97,10.33-18.61,4.74-5.63,11.05-10.2,19.03-13.66,7.94-3.5,17.63-5.21,29.06-5.21,17.5,0,31.33,4.4,41.53,13.14,10.2,8.75,15.28,21.42,15.28,38.03v43.75c0,5.38,2.52,8.02,7.51,8.02h15.66v33.67h-27.48c-6.62,0-12.04-1.62-16.35-4.82-4.27-3.2-6.44-7.51-6.44-12.85v-.26h-5.08c-.73,2.13-2.3,4.95-4.82,8.45s-6.44,6.57-11.78,9.26c-5.38,2.69-12.68,4.01-21.98,4.01l-.13-.04ZM55.7,195.6c9.47,0,17.2-2.65,23.17-7.9,5.97-5.25,8.96-12.29,8.96-21.04v-2.69h-34.01c-6.23,0-11.18,1.32-14.72,4.01-3.58,2.69-5.38,6.44-5.38,11.27s1.88,8.75,5.63,11.78,9.22,4.57,16.35,4.57Z" style="fill:#101130;"></path><path d="M143.7,185.44v-99.14h33.76v99.14h-33.76Z" style="fill:#101130;"></path><rect x="143.7" y="219.16" width="33.72" height="33.72" style="fill:#8fc73f;"></rect><path d="M232.81,76.32l-22.19,9.99h-33.2v-15.49l39.65-17.84,4.99-2.26c5.04-2.26,7.9-7.64,6.91-13.14-.81-4.65-4.57-8.58-9.18-9.56-3.71-.81-7.34.09-10.2,2.43-2.82,2.3-4.44,5.68-4.44,9.35v5.25h-27.74v-5.25c0-12.63,6.06-24.58,16.26-32.09C204.04.09,217.23-2,229.91,1.97c15.92,4.99,27.02,20.53,27.02,37.77h0c0,1.37-.09,2.69-.21,4.01-1.45,14.34-10.58,26.8-23.94,32.52l.04.04Z" style="fill:#101130;"></path><rect x="210.66" y="86.3" width="46.31" height="27.74" style="fill:#101130;"></rect><rect x="109.94" y="45.03" width="33.72" height="41.27" style="fill:#62c4b2;"></rect></g></svg>