<?xml version="1.0" encoding="UTF-8"?>
<svg xmlns="http://www.w3.org/2000/svg" version="1.1" viewBox="0 0 1161.1 402.2">
  <defs>
    <style>
      .cls-1 {
        fill: #202945;
      }

      .cls-2 {
        fill: #e53e51;
      }

      .cls-3 {
        fill: #7c9ac0;
      }
    </style>
  </defs>
  <g>
    <g id="Layer_1">
      <g id="Layer_1-2" data-name="Layer_1">
        <g id="Camada_1">
          <g>
            <path class="cls-1" d="M98.3,110.3h-52.3c0-28.9,23.4-52.3,52.3-52.3h0v52.3Z"></path>
            <path class="cls-3" d="M98.3,162.9h-49.1c-1.8,0-3.2-1.4-3.2-3.2v-49.1h52.3v52.3h0Z"></path>
            <path class="cls-2" d="M98.3,215.3v3.1c0,27.2-22,49.2-49.2,49.2h0c-1.7,0-3.1-1.4-3.1-3.1v-46.1c0-1.7,1.4-3.2,3.2-3.2h49.2-.1Z"></path>
            <path class="cls-3" d="M150.7,110.3h-52.3v-52.3h49.3c1.7,0,3,1.4,3,3v49.3Z"></path>
            <path class="cls-1" d="M150.7,162.9h52.4c0,28.9-23.4,52.4-52.4,52.4h0v-52.4h0Z"></path>
            <path class="cls-3" d="M150.7,110.4h49.4c1.7,0,3,1.3,3,3v49.3h-52.4v-52.3h0Z"></path>
            <rect class="cls-3" x="98.3" y="162.9" width="52.3" height="52.4"></rect>
          </g>
          <g>
            <path class="cls-1" d="M269.5,293.8c-2.6,0-4.8-.4-6.7-1.3-1.9-.9-3.3-2.1-4.4-3.8-1-1.7-1.6-3.7-1.7-6.2v-7.3c.1-2.4.7-4.5,1.7-6.1s2.5-3,4.4-3.8,4.1-1.3,6.7-1.3,3.5.2,5.1.7c1.5.5,2.9,1.1,4.1,2s2.1,1.9,2.7,3.1,1,2.6,1,4.2,0,.5-.2.6c-.2.2-.4.2-.6.2h-5.6c-.4,0-.6,0-.8-.2s-.4-.4-.5-.9c-.4-1.5-1-2.5-1.9-3s-1.9-.8-3.2-.8-2.7.4-3.6,1.3c-.9.8-1.4,2.2-1.5,4.2v7c0,2,.6,3.4,1.5,4.2s2.1,1.3,3.6,1.3,2.4-.3,3.2-.8,1.5-1.5,1.9-3c.1-.4.3-.7.5-.9.2-.1.5-.2.9-.2h5.6c.2,0,.5,0,.6.2.2.2.3.4.2.6,0,1.5-.4,2.9-1,4.2s-1.5,2.3-2.7,3.1c-1.2.9-2.5,1.5-4.1,2s-3.2.7-5.1.7h-.1Z"></path>
            <path class="cls-1" d="M296.2,293.8c-3.3,0-5.9-.9-7.8-2.6-1.9-1.8-2.9-4.4-3-7.9v-1.5c0-2.2.6-4.1,1.5-5.6s2.1-2.8,3.7-3.6c1.6-.8,3.5-1.2,5.6-1.2s4.4.5,6,1.5,2.8,2.3,3.6,3.9c.8,1.7,1.2,3.5,1.2,5.7v1c0,.3-.1.5-.3.8s-.4.3-.8.3h-13.3v.3c0,.8.2,1.5.4,2.2.3.7.6,1.2,1.2,1.6.5.4,1.1.6,1.9.6s1,0,1.4-.3.7-.4.9-.6l.6-.6c.2-.3.5-.5.6-.6s.4-.1.7-.1h5.1c.3,0,.5,0,.7.2s.2.4.2.7c0,.5-.3,1-.7,1.7s-1.1,1.3-1.9,2-1.9,1.2-3.2,1.6c-1.3.4-2.8.6-4.4.6h0ZM292.7,280.4h7c0-1-.1-1.8-.4-2.4s-.7-1.1-1.2-1.5-1.2-.5-1.9-.5-1.3.2-1.9.5c-.5.4-.9.9-1.2,1.5-.3.6-.4,1.4-.4,2.3h0Z"></path>
            <path class="cls-1" d="M311.9,293.4c-.3,0-.5-.1-.8-.3-.2-.2-.3-.5-.3-.7v-19.5c0-.3.1-.5.3-.8s.4-.3.8-.3h4.8c.3,0,.6.1.8.3s.3.4.3.8v1.6c.7-.9,1.6-1.6,2.8-2.2,1.2-.6,2.5-.9,4.1-.9s3,.4,4.2,1.1,2.2,1.8,2.9,3.1c.7,1.4,1.1,3.1,1.1,5.1v11.6c0,.3-.1.5-.3.7-.2.2-.4.3-.8.3h-5.2c-.3,0-.5-.1-.7-.3-.2-.2-.3-.5-.3-.7v-11.3c0-1.3-.3-2.3-.9-3s-1.5-1.1-2.8-1.1-2,.4-2.7,1.1-1,1.7-1,3v11.3c0,.3-.1.5-.3.7-.2.2-.5.3-.7.3h-5.3Z"></path>
            <path class="cls-1" d="M348.4,293.4c-1.8,0-3.3-.3-4.6-.9s-2.3-1.5-3-2.6c-.7-1.2-1-2.8-1-4.7v-8h-3.2c-.3,0-.6-.1-.8-.3s-.3-.4-.3-.8v-3.4c0-.3.1-.5.3-.8.2-.2.5-.3.8-.3h3.2v-6.8c0-.3.1-.5.3-.8s.5-.3.7-.3h4.8c.3,0,.5.1.8.3s.3.4.3.8v6.8h5.2c.3,0,.6.1.8.3s.3.4.3.8v3.4c0,.3-.1.5-.3.8-.2.2-.5.3-.8.3h-5.2v7.4c0,.9.2,1.7.5,2.2s1,.8,1.8.8h3.2c.3,0,.5.1.8.3s.3.4.3.8v3.6c0,.3-.1.5-.3.7-.2.2-.4.3-.8.3h-3.9.1Z"></path>
            <path class="cls-1" d="M357.7,293.4c-.3,0-.5-.1-.8-.3-.2-.2-.3-.5-.3-.7v-19.5c0-.3.1-.5.3-.7s.4-.3.8-.3h4.8c.3,0,.6.1.8.3s.3.5.3.7v1.7c.7-.9,1.6-1.5,2.6-2s2.2-.7,3.5-.7h1.8c.3,0,.5.1.8.3s.3.4.3.8v4.3c0,.3-.1.5-.3.7-.2.2-.4.3-.8.3h-4c-1.1,0-2,.3-2.6.9s-.9,1.5-.9,2.6v10.6c0,.3-.1.5-.3.7-.2.2-.5.3-.8.3h-5.2,0Z"></path>
            <path class="cls-1" d="M385.5,293.8c-2.3,0-4.3-.4-5.9-1.1s-2.8-1.8-3.6-3.2c-.8-1.4-1.3-3.1-1.4-5v-3.7c.1-2,.6-3.6,1.5-5s2.1-2.5,3.7-3.2,3.5-1.1,5.7-1.1,4.2.4,5.8,1.1,2.8,1.8,3.7,3.2,1.4,3,1.5,5v3.7c-.1,1.9-.6,3.6-1.4,5s-2.1,2.5-3.6,3.2c-1.6.8-3.6,1.1-5.9,1.1h-.1ZM385.5,288.8c1.2,0,2.1-.4,2.7-1.1s.9-1.9,1-3.4v-3.4c0-1.5-.4-2.6-1-3.3s-1.5-1.1-2.7-1.1-2.1.4-2.7,1.1c-.6.8-.9,1.9-1,3.3v3.4c0,1.5.4,2.6,1,3.4s1.5,1.1,2.7,1.1Z"></path>
            <path class="cls-1" d="M417.6,293.8c-1.3,0-2.5-.2-3.6-.6s-2-1.1-2.7-1.9c-.8-.8-1.4-1.9-1.8-3.1s-.6-2.6-.7-4.1v-3c0-1.5.3-2.8.7-4,.4-1.2,1-2.2,1.7-3.1s1.7-1.5,2.7-2,2.3-.7,3.6-.7,2.6.2,3.6.7,1.8,1,2.5,1.8v-8.9c0-.3.1-.5.3-.8s.4-.3.8-.3h5.1c.3,0,.5.1.7.3.2.2.3.4.3.8v27.4c0,.3-.1.5-.3.7-.2.2-.5.3-.7.3h-4.7c-.3,0-.5-.1-.8-.3-.2-.2-.3-.5-.3-.7v-1.3c-.7.8-1.5,1.5-2.6,2-1,.5-2.4.8-3.9.8h0ZM419.8,288.2c.9,0,1.6-.2,2.2-.6.5-.4.9-.9,1.2-1.5.3-.6.4-1.3.4-2.1v-3.1c0-.7-.2-1.3-.5-1.9s-.7-1.1-1.2-1.5-1.3-.6-2.1-.6-1.6.2-2.2.6c-.5.4-.9.9-1.2,1.6s-.4,1.4-.4,2.2v2.6c0,.8.2,1.5.4,2.2.2.7.6,1.2,1.2,1.6s1.3.6,2.2.6h0Z"></path>
            <path class="cls-1" d="M445.6,293.8c-3.3,0-5.9-.9-7.8-2.6-1.9-1.8-2.9-4.4-3-7.9v-1.5c0-2.2.6-4.1,1.5-5.6s2.1-2.8,3.7-3.6c1.6-.8,3.5-1.2,5.6-1.2s4.4.5,6,1.5,2.8,2.3,3.6,3.9,1.2,3.5,1.2,5.7v1c0,.3-.1.5-.3.8s-.4.3-.8.3h-13.3v.3c0,.8.2,1.5.4,2.2.3.7.6,1.2,1.2,1.6.5.4,1.1.6,1.9.6s1,0,1.4-.3.7-.4.9-.6l.6-.6c.2-.3.5-.5.6-.6s.4-.1.7-.1h5.1c.3,0,.5,0,.7.2s.3.4.2.7c0,.5-.3,1-.7,1.7s-1.1,1.3-1.9,2-1.9,1.2-3.2,1.6c-1.3.4-2.8.6-4.4.6h0ZM442.1,280.4h7c0-1-.1-1.8-.4-2.4s-.7-1.1-1.2-1.5-1.2-.5-1.9-.5-1.3.2-1.9.5c-.5.4-.9.9-1.2,1.5-.3.6-.4,1.4-.4,2.3h0Z"></path>
            <path class="cls-1" d="M470.6,293.4c-.3,0-.5-.1-.8-.3-.2-.2-.3-.5-.3-.7v-27c0-.3.1-.5.3-.8.2-.2.4-.3.8-.3h11.6c2.3,0,4.3.4,6,1.1s3,1.8,4,3.2,1.4,3.2,1.4,5.4-.5,3.9-1.4,5.3c-1,1.4-2.3,2.4-4,3.1s-3.7,1-6,1h-4.9v9.1c0,.3-.1.5-.3.7-.2.2-.5.3-.8.3h-5.6ZM477.2,277.5h4.9c1.2,0,2.1-.3,2.8-.9.7-.6,1.1-1.5,1.1-2.8s-.3-1.9-.9-2.6-1.6-1.1-3-1.1h-4.9v7.4h0Z"></path>
            <path class="cls-1" d="M498.2,293.4c-.3,0-.5-.1-.8-.3-.2-.2-.3-.5-.3-.7v-27.4c0-.3.1-.5.3-.8s.4-.3.8-.3h4.9c.3,0,.5.1.8.3.2.2.3.4.3.8v27.4c0,.3-.1.5-.3.7-.2.2-.4.3-.8.3h-4.9Z"></path>
            <path class="cls-1" d="M515.5,293.8c-1.5,0-2.8-.3-4-.9s-2.1-1.3-2.8-2.3-1-2.1-1-3.3c0-2,.8-3.5,2.4-4.7,1.6-1.1,3.7-1.9,6.4-2.3l5.2-.8v-.6c0-1-.2-1.8-.6-2.3-.4-.5-1.2-.8-2.3-.8s-1.4.1-1.9.5c-.5.3-.9.7-1.1,1.2-.2.4-.6.5-1,.5h-4.6c-.3,0-.5,0-.7-.3s-.2-.4-.2-.6c0-.5.2-1.1.6-1.7s1-1.3,1.7-1.9c.8-.6,1.8-1.2,3-1.6s2.7-.6,4.4-.6,3.3.2,4.6.6,2.3,1,3.1,1.7c.8.8,1.4,1.6,1.8,2.6s.6,2.1.6,3.3v12.6c0,.3,0,.5-.3.7-.2.2-.5.3-.7.3h-4.8c-.3,0-.5-.1-.8-.3s-.3-.5-.3-.7v-1.5c-.4.5-.8,1-1.5,1.5s-1.3.8-2.1,1.1c-.8.3-1.8.4-2.8.4h0l-.3.2h0ZM517.4,289.1c.8,0,1.5-.2,2.2-.5s1.2-.9,1.5-1.6.6-1.6.6-2.8v-.6l-3.5.6c-1.3.2-2.2.6-2.8,1-.6.5-.9,1-.9,1.6s0,.9.4,1.2c.3.3.6.6,1.1.8.5.2,1,.3,1.5.3h0Z"></path>
            <path class="cls-1" d="M534.5,293.4c-.3,0-.5-.1-.8-.3-.2-.2-.3-.5-.3-.7v-19.5c0-.3,0-.5.3-.8s.4-.3.8-.3h4.8c.3,0,.6.1.8.3s.3.4.3.8v1.6c.7-.9,1.6-1.6,2.8-2.2s2.5-.9,4.1-.9,3,.4,4.2,1.1,2.2,1.8,2.9,3.1c.7,1.4,1.1,3.1,1.1,5.1v11.6c0,.3,0,.5-.3.7-.2.2-.4.3-.8.3h-5.2c-.3,0-.5-.1-.7-.3-.2-.2-.3-.5-.3-.7v-11.3c0-1.3-.3-2.3-.9-3-.6-.7-1.5-1.1-2.8-1.1s-2,.4-2.7,1.1-1,1.7-1,3v11.3c0,.3,0,.5-.3.7-.2.2-.5.3-.7.3h-5.3,0Z"></path>
            <path class="cls-1" d="M570.1,293.8c-3.3,0-5.9-.9-7.8-2.6s-2.9-4.4-3-7.9v-1.5c0-2.2.6-4.1,1.5-5.6.9-1.6,2.1-2.8,3.7-3.6s3.5-1.2,5.6-1.2,4.4.5,6,1.5,2.8,2.3,3.6,3.9c.8,1.7,1.2,3.5,1.2,5.7v1c0,.3,0,.5-.3.8s-.4.3-.8.3h-13.3v.3c0,.8.2,1.5.4,2.2.3.7.7,1.2,1.2,1.6s1.1.6,1.9.6,1,0,1.4-.3.7-.4.9-.6.4-.4.6-.6c.2-.3.5-.5.6-.6.2,0,.4-.1.7-.1h5.1c.3,0,.5,0,.7.2s.3.4.2.7c0,.5-.3,1-.7,1.7s-1.1,1.3-1.9,2c-.8.6-1.9,1.2-3.2,1.6s-2.8.6-4.4.6h0ZM566.6,280.4h7c0-1,0-1.8-.4-2.4s-.7-1.1-1.2-1.5-1.2-.5-1.9-.5-1.3.2-1.9.5c-.5.4-.9.9-1.2,1.5s-.4,1.4-.4,2.3h0Z"></path>
            <path class="cls-1" d="M591.2,293.8c-1.5,0-2.8-.3-4-.9s-2.1-1.3-2.8-2.3-1-2.1-1-3.3c0-2,.8-3.5,2.4-4.7,1.6-1.1,3.7-1.9,6.4-2.3l5.2-.8v-.6c0-1-.2-1.8-.6-2.3-.4-.5-1.2-.8-2.3-.8s-1.4.1-1.9.5c-.5.3-.9.7-1.1,1.2-.2.4-.6.5-1,.5h-4.6c-.3,0-.5,0-.7-.3s-.2-.4-.2-.6c0-.5.2-1.1.6-1.7s1-1.3,1.7-1.9c.8-.6,1.8-1.2,3-1.6s2.7-.6,4.4-.6,3.3.2,4.6.6,2.3,1,3.1,1.7c.8.8,1.4,1.6,1.8,2.6s.6,2.1.6,3.3v12.6c0,.3,0,.5-.3.7-.2.2-.5.3-.7.3h-4.8c-.3,0-.5-.1-.8-.3s-.3-.5-.3-.7v-1.5c-.4.5-.8,1-1.5,1.5s-1.3.8-2.1,1.1c-.8.3-1.8.4-2.8.4h0l-.3.2h0ZM593.2,289.1c.8,0,1.5-.2,2.2-.5s1.2-.9,1.5-1.6.6-1.6.6-2.8v-.6l-3.5.6c-1.3.2-2.2.6-2.8,1-.6.5-.9,1-.9,1.6s0,.9.4,1.2c.3.3.6.6,1.1.8.5.2,1,.3,1.5.3h0Z"></path>
            <path class="cls-1" d="M610.2,293.4c-.3,0-.5-.1-.8-.3-.2-.2-.3-.5-.3-.7v-19.5c0-.3,0-.5.3-.8s.4-.3.8-.3h4.5c.3,0,.5.1.8.3.2.2.3.4.3.8v1.4c.5-.8,1.3-1.4,2.3-2s2.2-.9,3.5-.9c3.2,0,5.4,1.1,6.6,3.6.6-1,1.5-1.9,2.7-2.6s2.5-1,3.9-1,2.7.3,3.9,1c1.2.6,2.1,1.6,2.8,3,.7,1.3,1,3.1,1,5.2v11.8c0,.3,0,.5-.3.7-.2.2-.4.3-.8.3h-4.8c-.3,0-.6-.1-.8-.3s-.3-.5-.3-.7v-11.5c0-1,0-1.7-.4-2.3-.3-.6-.7-1-1.1-1.2s-1-.4-1.6-.4-1,.1-1.5.4-.9.7-1.2,1.2c-.3.6-.4,1.3-.4,2.3v11.5c0,.3,0,.5-.3.7-.2.2-.4.3-.8.3h-4.8c-.3,0-.5-.1-.8-.3-.2-.2-.3-.5-.3-.7v-11.5c0-1-.2-1.7-.5-2.3-.3-.6-.7-1-1.2-1.2s-1-.4-1.5-.4-1,.1-1.5.4-.9.7-1.2,1.2c-.3.6-.4,1.3-.4,2.3v11.5c0,.3,0,.5-.3.7-.2.2-.5.3-.7.3h-4.9,0Z"></path>
            <path class="cls-1" d="M657.1,293.8c-3.3,0-5.9-.9-7.8-2.6s-2.9-4.4-3-7.9v-1.5c0-2.2.6-4.1,1.5-5.6.9-1.6,2.1-2.8,3.7-3.6s3.5-1.2,5.6-1.2,4.4.5,6,1.5,2.8,2.3,3.6,3.9c.8,1.7,1.2,3.5,1.2,5.7v1c0,.3,0,.5-.3.8s-.4.3-.8.3h-13.3v.3c0,.8.2,1.5.4,2.2.3.7.7,1.2,1.2,1.6s1.1.6,1.9.6,1,0,1.4-.3.7-.4.9-.6.4-.4.6-.6c.2-.3.5-.5.6-.6.2,0,.4-.1.7-.1h5.1c.3,0,.5,0,.7.2s.3.4.2.7c0,.5-.3,1-.7,1.7s-1.1,1.3-1.9,2c-.8.6-1.9,1.2-3.2,1.6s-2.8.6-4.4.6h0ZM653.6,280.4h7c0-1,0-1.8-.4-2.4s-.7-1.1-1.2-1.5-1.2-.5-1.9-.5-1.3.2-1.9.5c-.5.4-.9.9-1.2,1.5s-.4,1.4-.4,2.3h0Z"></path>
            <path class="cls-1" d="M672.8,293.4c-.3,0-.5-.1-.8-.3-.2-.2-.3-.5-.3-.7v-19.5c0-.3,0-.5.3-.8s.4-.3.8-.3h4.8c.3,0,.6.1.8.3s.3.4.3.8v1.6c.7-.9,1.6-1.6,2.8-2.2s2.5-.9,4.1-.9,3,.4,4.2,1.1,2.2,1.8,2.9,3.1c.7,1.4,1.1,3.1,1.1,5.1v11.6c0,.3,0,.5-.3.7-.2.2-.4.3-.8.3h-5.2c-.3,0-.5-.1-.7-.3-.2-.2-.3-.5-.3-.7v-11.3c0-1.3-.3-2.3-.9-3-.6-.7-1.5-1.1-2.8-1.1s-2,.4-2.7,1.1-1,1.7-1,3v11.3c0,.3,0,.5-.3.7-.2.2-.5.3-.7.3h-5.3,0Z"></path>
            <path class="cls-1" d="M709.3,293.4c-1.8,0-3.3-.3-4.6-.9s-2.3-1.5-3-2.6-1-2.8-1-4.7v-8h-3.2c-.3,0-.6-.1-.8-.3s-.3-.4-.3-.8v-3.4c0-.3,0-.5.3-.8s.5-.3.8-.3h3.2v-6.8c0-.3,0-.5.3-.8s.5-.3.7-.3h4.8c.3,0,.5.1.8.3s.3.4.3.8v6.8h5.2c.3,0,.6.1.8.3s.3.4.3.8v3.4c0,.3,0,.5-.3.8s-.5.3-.8.3h-5.2v7.4c0,.9.2,1.7.5,2.2s1,.8,1.8.8h3.2c.3,0,.5.1.8.3s.3.4.3.8v3.6c0,.3,0,.5-.3.7-.2.2-.4.3-.8.3h-3.9.1Z"></path>
            <path class="cls-1" d="M727.8,293.8c-2.3,0-4.3-.4-5.9-1.1s-2.8-1.8-3.7-3.2c-.8-1.4-1.3-3.1-1.4-5v-3.7c0-2,.6-3.6,1.5-5s2.1-2.5,3.7-3.2,3.5-1.1,5.7-1.1,4.2.4,5.8,1.1,2.8,1.8,3.7,3.2,1.4,3,1.5,5v3.7c0,1.9-.6,3.6-1.4,5-.8,1.4-2.1,2.5-3.7,3.2-1.6.8-3.6,1.1-5.9,1.1h.1ZM727.8,288.8c1.2,0,2.2-.4,2.7-1.1s.9-1.9,1-3.4v-3.4c0-1.5-.4-2.6-1-3.3s-1.5-1.1-2.7-1.1-2.1.4-2.7,1.1c-.6.8-.9,1.9-1,3.3v3.4c0,1.5.4,2.6,1,3.4s1.5,1.1,2.7,1.1Z"></path>
            <path class="cls-1" d="M761.7,293.8c-3.3,0-5.9-.9-7.8-2.6-1.9-1.8-2.9-4.4-3-7.9v-1.5c0-2.2.6-4.1,1.5-5.6.9-1.6,2.1-2.8,3.7-3.6s3.5-1.2,5.6-1.2,4.4.5,6,1.5,2.8,2.3,3.6,3.9c.8,1.7,1.2,3.5,1.2,5.7v1c0,.3,0,.5-.3.8s-.4.3-.8.3h-13.3v.3c0,.8.2,1.5.4,2.2.3.7.7,1.2,1.2,1.6s1.1.6,1.9.6,1,0,1.4-.3.7-.4.9-.6.4-.4.6-.6c.2-.3.5-.5.6-.6.2,0,.4-.1.7-.1h5.1c.3,0,.5,0,.7.2s.2.4.2.7c0,.5-.3,1-.7,1.7s-1.1,1.3-1.9,2c-.8.6-1.9,1.2-3.2,1.6s-2.8.6-4.4.6h0ZM758.2,280.4h7c0-1,0-1.8-.4-2.4s-.7-1.1-1.2-1.5-1.2-.5-1.9-.5-1.3.2-1.9.5c-.5.4-.9.9-1.2,1.5s-.4,1.4-.4,2.3h0Z"></path>
            <path class="cls-1" d="M793.3,293.8c-1.3,0-2.5-.2-3.6-.6s-2-1.1-2.7-1.9c-.8-.8-1.3-1.9-1.8-3.1-.4-1.2-.7-2.6-.7-4.1v-3c0-1.5.3-2.8.7-4s1-2.2,1.7-3.1,1.7-1.5,2.7-2,2.3-.7,3.6-.7,2.6.2,3.6.7,1.8,1,2.5,1.8v-8.9c0-.3,0-.5.3-.8s.4-.3.8-.3h5.1c.3,0,.5.1.7.3.2.2.3.4.3.8v27.4c0,.3,0,.5-.3.7-.2.2-.5.3-.7.3h-4.7c-.3,0-.5-.1-.8-.3-.2-.2-.3-.5-.3-.7v-1.3c-.7.8-1.5,1.5-2.6,2s-2.3.8-3.9.8h.1ZM795.6,288.2c.9,0,1.6-.2,2.2-.6s.9-.9,1.2-1.5.4-1.3.4-2.1v-3.1c0-.7-.2-1.3-.5-1.9s-.7-1.1-1.2-1.5-1.3-.6-2.1-.6-1.6.2-2.2.6c-.5.4-.9.9-1.2,1.6s-.4,1.4-.4,2.2v2.6c0,.8.2,1.5.4,2.2s.6,1.2,1.2,1.6,1.3.6,2.2.6h0Z"></path>
            <path class="cls-1" d="M821.3,293.8c-3.3,0-5.9-.9-7.8-2.6s-2.9-4.4-3-7.9v-1.5c0-2.2.6-4.1,1.5-5.6.9-1.6,2.1-2.8,3.7-3.6s3.5-1.2,5.6-1.2,4.4.5,6,1.5,2.8,2.3,3.6,3.9c.8,1.7,1.2,3.5,1.2,5.7v1c0,.3,0,.5-.3.8s-.4.3-.8.3h-13.3v.3c0,.8.2,1.5.4,2.2.3.7.7,1.2,1.2,1.6s1.1.6,1.9.6,1,0,1.4-.3.7-.4.9-.6.4-.4.6-.6c.2-.3.5-.5.6-.6.2,0,.4-.1.7-.1h5.1c.3,0,.5,0,.7.2s.3.4.2.7c0,.5-.3,1-.7,1.7s-1.1,1.3-1.9,2c-.8.6-1.9,1.2-3.2,1.6s-2.8.6-4.4.6h0ZM817.8,280.4h7c0-1,0-1.8-.4-2.4s-.7-1.1-1.2-1.5-1.2-.5-1.9-.5-1.3.2-1.9.5c-.5.4-.9.9-1.2,1.5s-.4,1.4-.4,2.3h0Z"></path>
            <path class="cls-1" d="M842.6,293.4c-.2,0-.4,0-.6-.3s-.3-.4-.3-.6v-.4l9.7-26.6c0-.3.2-.6.5-.8.3-.2.6-.4,1.1-.4h6.1c.5,0,.8.1,1.1.4.3.2.4.5.5.8l9.7,26.6v.4c0,.2,0,.4-.3.6s-.4.3-.6.3h-5.1c-.4,0-.7-.1-.9-.3s-.3-.4-.4-.6l-1.6-4.2h-11.1l-1.6,4.2c0,.2-.2.4-.4.6s-.5.3-1,.3h-5.1.3,0ZM852.4,282.3h7.7l-3.9-10.9-3.9,10.9h.1Z"></path>
            <path class="cls-1" d="M879.6,293.4c-.4,0-.7-.1-.9-.3s-.4-.5-.5-.7l-7.8-19.2v-.4c0-.2,0-.5.3-.6.2-.2.4-.3.7-.3h4.7c.4,0,.6.1.8.3s.3.4.4.6l4.7,12.7,4.7-12.7c0-.2.2-.4.4-.6s.5-.3.8-.3h4.7c.2,0,.5,0,.7.3s.3.4.3.6v.4l-7.8,19.2c0,.3-.3.5-.5.7s-.5.3-1,.3h-4.7Z"></path>
            <path class="cls-1" d="M902.1,293.8c-1.5,0-2.8-.3-4-.9s-2.1-1.3-2.8-2.3-1-2.1-1-3.3c0-2,.8-3.5,2.4-4.7,1.6-1.1,3.7-1.9,6.4-2.3l5.2-.8v-.6c0-1-.2-1.8-.6-2.3-.4-.5-1.2-.8-2.3-.8s-1.4.1-1.9.5c-.5.3-.9.7-1.1,1.2-.2.4-.6.5-1,.5h-4.6c-.3,0-.5,0-.7-.3s-.2-.4-.2-.6c0-.5.2-1.1.6-1.7s1-1.3,1.7-1.9,1.8-1.2,3-1.6,2.7-.6,4.4-.6,3.3.2,4.6.6,2.3,1,3.1,1.7c.8.8,1.4,1.6,1.8,2.6s.6,2.1.6,3.3v12.6c0,.3,0,.5-.3.7-.2.2-.5.3-.7.3h-4.8c-.3,0-.5-.1-.8-.3-.2-.2-.3-.5-.3-.7v-1.5c-.4.5-.8,1-1.5,1.5s-1.3.8-2.1,1.1c-.8.3-1.8.4-2.8.4h0l-.3.2h0ZM904.1,289.1c.8,0,1.5-.2,2.2-.5s1.2-.9,1.5-1.6.6-1.6.6-2.8v-.6l-3.5.6c-1.3.2-2.2.6-2.8,1s-.9,1-.9,1.6,0,.9.4,1.2c.3.3.6.6,1.1.8.5.2,1,.3,1.5.3h0Z"></path>
            <path class="cls-1" d="M921.1,293.4c-.3,0-.5-.1-.8-.3-.2-.2-.3-.5-.3-.7v-27.4c0-.3,0-.5.3-.8s.4-.3.8-.3h4.9c.3,0,.5.1.8.3.2.2.3.4.3.8v27.4c0,.3,0,.5-.3.7-.2.2-.4.3-.8.3h-4.9Z"></path>
            <path class="cls-1" d="M933,268.7c-.3,0-.5-.1-.8-.3-.2-.2-.3-.4-.3-.8v-3.7c0-.3,0-.5.3-.7.2-.2.4-.3.8-.3h5c.3,0,.5.1.7.3.2.2.3.5.3.7v3.7c0,.3,0,.5-.3.8s-.5.3-.7.3h-5ZM933,293.4c-.3,0-.5-.1-.8-.3-.2-.2-.3-.5-.3-.7v-19.5c0-.3,0-.5.3-.8s.4-.3.8-.3h4.9c.3,0,.5.1.8.3s.3.4.3.8v19.5c0,.3,0,.5-.3.7-.2.2-.4.3-.8.3h-4.9Z"></path>
            <path class="cls-1" d="M950.3,293.8c-1.5,0-2.8-.3-4-.9s-2.1-1.3-2.8-2.3-1-2.1-1-3.3c0-2,.8-3.5,2.4-4.7,1.6-1.1,3.7-1.9,6.4-2.3l5.2-.8v-.6c0-1-.2-1.8-.6-2.3-.4-.5-1.2-.8-2.3-.8s-1.4.1-1.9.5c-.5.3-.9.7-1.1,1.2-.2.4-.6.5-1,.5h-4.6c-.3,0-.5,0-.7-.3s-.2-.4-.2-.6c0-.5.2-1.1.6-1.7s1-1.3,1.7-1.9,1.8-1.2,3-1.6,2.7-.6,4.4-.6,3.3.2,4.6.6,2.3,1,3.1,1.7c.8.8,1.4,1.6,1.8,2.6s.6,2.1.6,3.3v12.6c0,.3,0,.5-.3.7-.2.2-.5.3-.7.3h-4.8c-.3,0-.5-.1-.8-.3-.2-.2-.3-.5-.3-.7v-1.5c-.4.5-.8,1-1.5,1.5s-1.3.8-2.1,1.1c-.8.3-1.8.4-2.8.4h0l-.3.2h0ZM952.2,289.1c.8,0,1.5-.2,2.2-.5s1.2-.9,1.5-1.6.6-1.6.6-2.8v-.6l-3.5.6c-1.3.2-2.2.6-2.8,1s-.9,1-.9,1.6,0,.9.4,1.2c.3.3.6.6,1.1.8.5.2,1,.3,1.5.3h0Z"></path>
            <path class="cls-1" d="M978.2,302.5c-.8,0-1.4-.1-2-.4-.6-.2-1-.5-1.3-.9s-.2-.6,0-.9l.8-.7c.2-.2.5-.3.6-.2.2,0,.4.2.7.3.3.1.7.2,1.2.2s.8-.1,1-.4c.2-.2.4-.5.4-.9s0-.6-.4-.9c-.2-.2-.6-.4-1-.4s-.6,0-.9.1c-.3.1-.5.1-.8.2-.2,0-.5,0-.7-.2l-.8-.8c-.2-.2-.2-.4-.2-.5s0-.5.3-.8l.8-1.9c-2.5-.4-4.5-1.4-6-3s-2.3-3.7-2.5-6.3v-3.4c0-2,.6-3.7,1.5-5.2s2.2-2.5,3.8-3.2c1.6-.8,3.4-1.1,5.5-1.1s3.5.3,4.9.8,2.5,1.2,3.3,2,1.5,1.6,1.9,2.5c.4.8.7,1.6.7,2.2s0,.5-.3.7-.5.3-.8.3h-5.3c-.3,0-.5,0-.7-.2-.2-.1-.3-.4-.5-.6-.3-.9-.8-1.5-1.3-1.8-.5-.4-1.2-.5-2-.5s-2,.4-2.5,1.1c-.6.7-.9,1.8-1,3.3v2.9c0,1.5.4,2.6,1,3.3.6.7,1.4,1,2.5,1s1.5-.2,2-.6.9-1,1.2-1.8c0-.3.3-.5.5-.6s.4-.2.7-.2h5.3c.3,0,.5.1.8.3s.3.4.3.8-.2,1.2-.6,2.1-1,1.7-1.8,2.5-1.9,1.5-3.2,2-3,.9-5,.9l-.8,1.7c.2,0,.4-.1.7-.2h.7c1,0,1.8.3,2.4,1s.9,1.5.9,2.6-.4,1.9-1.1,2.6-1.7,1.1-2.9,1.1h0Z"></path>
            <path class="cls-1" d="M999.2,293.8c-1.5,0-2.8-.3-4-.9s-2.1-1.3-2.8-2.3-1-2.1-1-3.3c0-2,.8-3.5,2.4-4.7,1.6-1.1,3.7-1.9,6.4-2.3l5.2-.8v-.6c0-1-.2-1.8-.6-2.3-.4-.5-1.2-.8-2.3-.8s-1.4.1-1.9.5c-.5.3-.9.7-1.1,1.2-.2.4-.6.5-1,.5h-4.6c-.3,0-.5,0-.7-.3s-.2-.4-.2-.6c0-.5.2-1.1.6-1.7s1-1.3,1.7-1.9,1.8-1.2,3-1.6,2.7-.6,4.4-.6,3.3.2,4.6.6,2.3,1,3.1,1.7c.8.8,1.4,1.6,1.8,2.6s.6,2.1.6,3.3v12.6c0,.3,0,.5-.3.7-.2.2-.5.3-.7.3h-4.8c-.3,0-.5-.1-.8-.3-.2-.2-.3-.5-.3-.7v-1.5c-.4.5-.8,1-1.5,1.5s-1.3.8-2.1,1.1c-.8.3-1.8.4-2.8.4h0l-.3.2h0ZM1004.9,268.9c-.8,0-1.4-.1-1.9-.4s-.9-.5-1.3-.7c-.4-.2-.8-.4-1.3-.4s-.6.1-.8.3-.3.4-.5.6c0,.2-.4.3-.7.3h-2.5c-.2,0-.4,0-.5-.2,0-.1-.2-.3-.2-.5,0-.4,0-1,.2-1.5.2-.6.4-1.2.8-1.7.4-.5.8-1,1.4-1.4.6-.4,1.3-.6,2.2-.6s1.4.1,1.9.4.9.5,1.3.7c.4.2.8.4,1.3.4s.7-.1.8-.3.3-.4.5-.6.4-.3.7-.3h2.5c.2,0,.4,0,.5.2,0,.1.2.3.2.5,0,.4,0,1-.2,1.5s-.4,1.1-.8,1.7-.8,1-1.4,1.4-1.3.5-2.2.5h0ZM1001.2,289.1c.8,0,1.5-.2,2.2-.5s1.2-.9,1.5-1.6.6-1.6.6-2.8v-.6l-3.5.6c-1.3.2-2.2.6-2.8,1s-.9,1-.9,1.6,0,.9.4,1.2c.3.3.6.6,1.1.8.5.2,1,.3,1.5.3h0Z"></path>
            <path class="cls-1" d="M1027.4,293.8c-2.3,0-4.3-.4-5.9-1.1-1.6-.8-2.8-1.8-3.7-3.2-.8-1.4-1.3-3.1-1.4-5v-3.7c0-2,.6-3.6,1.5-5,.9-1.4,2.1-2.5,3.7-3.2,1.6-.8,3.5-1.1,5.7-1.1s4.2.4,5.8,1.1,2.8,1.8,3.7,3.2,1.4,3,1.5,5v3.7c0,1.9-.6,3.6-1.4,5-.8,1.4-2.1,2.5-3.7,3.2s-3.6,1.1-5.9,1.1h.1ZM1027.4,288.8c1.2,0,2.2-.4,2.7-1.1s.9-1.9,1-3.4v-3.4c0-1.5-.4-2.6-1-3.3-.6-.8-1.5-1.1-2.7-1.1s-2.1.4-2.7,1.1-.9,1.9-1,3.3v3.4c0,1.5.4,2.6,1,3.4s1.5,1.1,2.7,1.1Z"></path>
            <path class="cls-1" d="M265.2,343.6c-1.3,0-2.5-.2-3.6-.6s-2-1.1-2.7-1.9-1.4-1.9-1.8-3.1-.6-2.6-.7-4.1v-3c0-1.5.3-2.8.7-4s1-2.2,1.7-3.1,1.7-1.5,2.7-2,2.3-.7,3.6-.7,2.6.2,3.6.7,1.8,1,2.5,1.8v-8.9c0-.3.1-.5.3-.8s.4-.3.8-.3h5.1c.3,0,.5.1.7.3s.3.4.3.8v27.4c0,.3-.1.5-.3.7-.2.2-.5.3-.7.3h-4.7c-.3,0-.5-.1-.8-.3-.2-.2-.3-.5-.3-.7v-1.3c-.7.8-1.5,1.5-2.6,2s-2.4.8-3.9.8h0ZM267.5,338c.9,0,1.6-.2,2.2-.6.5-.4.9-.9,1.2-1.5.3-.6.4-1.3.4-2.1v-3.1c0-.7-.2-1.3-.5-1.9s-.7-1.1-1.2-1.5-1.3-.6-2.1-.6-1.6.2-2.2.6c-.5.4-.9.9-1.2,1.6-.2.7-.4,1.4-.4,2.2v2.6c0,.8.2,1.5.4,2.2.2.7.6,1.2,1.2,1.6s1.3.6,2.2.6h0Z"></path>
            <path class="cls-1" d="M293.3,343.6c-3.3,0-5.9-.9-7.8-2.6-1.9-1.8-2.9-4.4-3-7.9v-1.5c0-2.2.6-4.1,1.5-5.6s2.1-2.8,3.7-3.6c1.6-.8,3.5-1.2,5.6-1.2s4.4.5,6,1.5,2.8,2.3,3.6,3.9c.8,1.7,1.2,3.5,1.2,5.7v1c0,.3-.1.5-.3.8s-.4.3-.8.3h-13.3v.3c0,.8.2,1.5.4,2.2.3.7.6,1.2,1.2,1.6.5.4,1.1.6,1.9.6s1,0,1.4-.3.7-.4.9-.6l.6-.6c.2-.3.5-.5.6-.6s.4-.1.7-.1h5.1c.3,0,.5,0,.7.2s.2.4.2.7c0,.5-.3,1-.7,1.7s-1.1,1.3-1.9,2-1.9,1.2-3.2,1.6c-1.3.4-2.8.6-4.4.6h0ZM289.7,330.2h7c0-1-.1-1.8-.4-2.4s-.7-1.1-1.2-1.5-1.2-.5-1.9-.5-1.3.2-1.9.5c-.5.4-.9.9-1.2,1.5-.3.6-.4,1.4-.4,2.3h0Z"></path>
            <path class="cls-1" d="M318.3,343.1c-.3,0-.5-.1-.8-.3-.2-.2-.3-.5-.3-.7v-27c0-.3.1-.5.3-.8.2-.2.4-.3.8-.3h11.6c2.3,0,4.3.4,6,1.1s3,1.8,4,3.2,1.4,3.2,1.4,5.4-.5,3.9-1.4,5.3c-1,1.4-2.3,2.4-4,3.1s-3.7,1-6,1h-4.9v9.1c0,.3-.1.5-.3.7-.2.2-.5.3-.8.3h-5.6ZM324.8,327.3h4.9c1.2,0,2.1-.3,2.8-.9.7-.6,1.1-1.5,1.1-2.8s-.3-1.9-.9-2.6-1.6-1.1-3-1.1h-4.9v7.4h0Z"></path>
            <path class="cls-1" d="M354.8,343.6c-2.3,0-4.3-.4-5.9-1.1s-2.8-1.8-3.6-3.2c-.8-1.4-1.3-3.1-1.4-5v-3.7c.1-2,.6-3.6,1.5-5s2.1-2.5,3.7-3.2,3.5-1.1,5.7-1.1,4.2.4,5.8,1.1,2.8,1.8,3.7,3.2,1.4,3,1.5,5v3.7c-.1,1.9-.6,3.6-1.4,5s-2.1,2.5-3.6,3.2c-1.6.8-3.6,1.1-5.9,1.1h-.1ZM354.8,338.5c1.2,0,2.1-.4,2.7-1.1s.9-1.9,1-3.4v-3.4c0-1.5-.4-2.6-1-3.3s-1.5-1.1-2.7-1.1-2.1.4-2.7,1.1c-.6.8-.9,1.9-1,3.3v3.4c0,1.5.4,2.6,1,3.4s1.5,1.1,2.7,1.1Z"></path>
            <path class="cls-1" d="M370.9,343.1c-.3,0-.5-.1-.8-.3-.2-.2-.3-.5-.3-.7v-27.4c0-.3.1-.5.3-.8s.4-.3.8-.3h4.9c.3,0,.5.1.8.3.2.2.3.4.3.8v27.4c0,.3-.1.5-.3.7-.2.2-.4.3-.8.3h-4.9Z"></path>
            <path class="cls-1" d="M382.8,343.1c-.3,0-.5-.1-.8-.3-.2-.2-.3-.5-.3-.7v-19.5c0-.3.1-.5.3-.8s.4-.3.8-.3h4.9c.3,0,.5.1.8.3.2.2.3.4.3.8v19.5c0,.3-.1.5-.3.7-.2.2-.4.3-.8.3h-4.9ZM382.8,318.5c-.4,0-.7-.2-.7-.7s0-.4.2-.5l3.6-4.4c.3-.3.5-.5.7-.6s.5-.1.8-.1h5.5c.5,0,.8.3.8.8s0,.4-.2.5l-5.5,4.5c-.2.2-.4.3-.7.4s-.5.1-.9.1h-3.7.1Z"></path>
            <path class="cls-1" d="M404.6,343.1c-1.8,0-3.3-.3-4.6-.9s-2.3-1.5-3-2.6c-.7-1.2-1-2.8-1-4.7v-8h-3.2c-.3,0-.6-.1-.8-.3s-.3-.4-.3-.8v-3.4c0-.3.1-.5.3-.8.2-.2.5-.3.8-.3h3.2v-6.8c0-.3.1-.5.3-.8s.5-.3.7-.3h4.8c.3,0,.5.1.8.3s.3.4.3.8v6.8h5.2c.3,0,.6.1.8.3s.3.4.3.8v3.4c0,.3-.1.5-.3.8-.2.2-.5.3-.8.3h-5.2v7.4c0,.9.2,1.7.5,2.2s1,.8,1.8.8h3.2c.3,0,.5.1.8.3s.3.4.3.8v3.6c0,.3-.1.5-.3.7-.2.2-.4.3-.8.3h-3.9.1Z"></path>
            <path class="cls-1" d="M414,318.5c-.3,0-.5-.1-.8-.3-.2-.2-.3-.4-.3-.8v-3.7c0-.3.1-.5.3-.7.2-.2.4-.3.8-.3h5c.3,0,.5.1.7.3.2.2.3.5.3.7v3.7c0,.3-.1.5-.3.8-.2.2-.5.3-.7.3h-5ZM414,343.1c-.3,0-.5-.1-.8-.3-.2-.2-.3-.5-.3-.7v-19.5c0-.3.1-.5.3-.8s.4-.3.8-.3h4.9c.3,0,.5.1.8.3.2.2.3.4.3.8v19.5c0,.3-.1.5-.3.7-.2.2-.4.3-.8.3h-4.9Z"></path>
            <path class="cls-1" d="M434.7,343.6c-2,0-3.9-.4-5.4-1.1-1.6-.8-2.8-1.8-3.8-3.2-.9-1.4-1.4-3.1-1.5-5.1v-3.4c0-2,.6-3.7,1.5-5.2s2.2-2.5,3.8-3.2,3.4-1.1,5.5-1.1,3.5.3,4.9.8,2.5,1.2,3.3,2,1.5,1.6,1.9,2.5.7,1.6.7,2.2,0,.5-.3.7c-.2.2-.5.3-.8.3h-5.3c-.3,0-.5,0-.7-.2-.2-.1-.3-.4-.5-.6-.3-.9-.8-1.5-1.3-1.8-.5-.4-1.2-.5-2-.5s-2,.4-2.5,1.1-.9,1.8-1,3.3v2.9c0,1.5.4,2.6,1,3.3s1.4,1,2.5,1,1.5-.2,2-.6.9-1,1.2-1.8c.1-.3.3-.5.5-.6s.4-.2.7-.2h5.3c.3,0,.5.1.8.3.2.2.3.4.3.8s-.2,1-.4,1.6c-.2.6-.6,1.3-1.2,2-.5.7-1.2,1.3-2,1.9s-1.9,1.1-3,1.4-2.6.6-4.1.6h-.1Z"></path>
            <path class="cls-1" d="M455.7,343.6c-1.5,0-2.8-.3-4-.9s-2.1-1.3-2.8-2.3-1-2.1-1-3.3c0-2,.8-3.5,2.4-4.7,1.6-1.1,3.7-1.9,6.4-2.3l5.2-.8v-.6c0-1-.2-1.8-.6-2.3s-1.2-.8-2.3-.8-1.4.1-1.9.5c-.5.3-.9.7-1.1,1.2-.2.4-.6.5-1,.5h-4.6c-.3,0-.5,0-.7-.3s-.2-.4-.2-.6c0-.5.2-1.1.6-1.7s1-1.3,1.7-1.9c.8-.6,1.8-1.2,3-1.6s2.7-.6,4.4-.6,3.3.2,4.6.6,2.3,1,3.1,1.7c.8.8,1.4,1.6,1.8,2.6s.6,2.1.6,3.3v12.6c0,.3-.1.5-.3.7-.2.2-.5.3-.7.3h-4.8c-.3,0-.5-.1-.8-.3s-.3-.5-.3-.7v-1.5c-.4.5-.8,1-1.5,1.5s-1.3.8-2.1,1.1c-.8.3-1.8.4-2.8.4h0l-.3.2h0ZM457.7,338.8c.8,0,1.5-.2,2.2-.5.6-.3,1.2-.9,1.5-1.6s.6-1.6.6-2.8v-.6l-3.5.6c-1.3.2-2.2.6-2.8,1-.6.5-.9,1-.9,1.6s.1.9.4,1.2c.3.3.6.6,1.1.8s1,.3,1.5.3h-.1Z"></path>
            <path class="cls-1" d="M482.6,343.6c-1.8,0-3.3-.2-4.6-.6s-2.3-.9-3.1-1.5-1.4-1.2-1.8-1.8-.6-1.2-.6-1.6,0-.5.3-.8.5-.3.7-.3h4.9s.1,0,.2.2c.4.2.7.4,1.1.7s.8.5,1.2.8,1,.3,1.7.3,1.4-.2,2-.5.8-.8.8-1.4-.1-.8-.4-1.1-.8-.6-1.5-.9-1.9-.5-3.4-.8c-1.4-.3-2.7-.8-3.8-1.3s-1.9-1.2-2.5-2.1-.9-1.9-.9-3.2.4-2.2,1.1-3.2,1.8-1.9,3.1-2.5c1.4-.6,3.1-1,5.1-1s3,.2,4.1.6c1.2.4,2.2.9,3,1.4.8.6,1.4,1.2,1.8,1.8s.6,1.2.7,1.7c0,.3,0,.5-.2.7s-.4.3-.7.3h-4.6s-.2,0-.3-.1c-.3-.2-.7-.4-1-.7-.3-.3-.7-.5-1.2-.8s-1-.3-1.7-.3-1.3.2-1.7.5-.6.8-.6,1.3.1.7.4,1,.7.6,1.5.8,1.9.5,3.4.8c1.9.3,3.4.8,4.6,1.5s1.9,1.5,2.4,2.4.7,1.8.7,2.8-.4,2.5-1.2,3.5c-.8,1-2,1.8-3.5,2.4s-3.4.9-5.7.9h.2Z"></path>
            <path class="cls-1" d="M507,343.1c-.3,0-.5-.1-.8-.3-.2-.2-.3-.5-.3-.7v-27c0-.3.1-.5.3-.8.2-.2.4-.3.8-.3h11.6c2.3,0,4.3.4,6,1.1s3,1.8,4,3.2c1,1.4,1.4,3.2,1.4,5.4s-.5,3.9-1.4,5.3c-1,1.4-2.3,2.4-4,3.1s-3.7,1-6,1h-4.9v9.1c0,.3,0,.5-.3.7-.2.2-.5.3-.8.3h-5.6,0ZM513.5,327.3h4.8c1.2,0,2.1-.3,2.8-.9s1.1-1.5,1.1-2.8-.3-1.9-.9-2.6-1.6-1.1-3-1.1h-4.8v7.4h0Z"></path>
            <path class="cls-1" d="M541.4,343.6c-1.6,0-3-.4-4.2-1.1s-2.2-1.8-2.9-3.2c-.7-1.4-1-3.1-1-5.1v-11.6c0-.3,0-.5.3-.8s.4-.3.8-.3h5.2c.3,0,.6.1.8.3s.3.4.3.8v11.3c0,2.7,1.2,4.1,3.6,4.1s2-.4,2.7-1.1,1-1.7,1-3v-11.3c0-.3,0-.5.3-.8s.4-.3.8-.3h5.2c.3,0,.5.1.8.3s.3.4.3.8v19.5c0,.3,0,.5-.3.7-.2.2-.4.3-.8.3h-4.8c-.3,0-.5-.1-.7-.3-.2-.2-.3-.5-.3-.7v-1.6c-.7,1-1.7,1.8-2.8,2.3-1.2.5-2.5.8-4.1.8h-.2,0ZM541.9,318.5c-.4,0-.7-.2-.7-.7s0-.4.2-.5l3.7-4.4c.3-.3.5-.5.7-.6s.5-.1.8-.1h5.5c.5,0,.8.3.8.8s0,.4-.2.5l-5.5,4.5c-.2.2-.4.3-.7.4s-.5.1-.9.1h-3.7,0Z"></path>
            <path class="cls-1" d="M573.3,343.6c-1.5,0-2.8-.3-3.9-.8s-1.9-1.2-2.6-2v1.3c0,.3,0,.5-.3.7-.2.2-.5.3-.7.3h-4.7c-.3,0-.5-.1-.8-.3-.2-.2-.3-.5-.3-.7v-27.4c0-.3,0-.5.3-.8s.4-.3.8-.3h5.1c.3,0,.5.1.8.3s.3.4.3.8v8.9c.7-.7,1.5-1.3,2.5-1.8s2.2-.7,3.5-.7,2.6.2,3.7.7c1.1.5,2,1.1,2.7,2s1.3,1.9,1.7,3.1.7,2.5.7,4v3c0,1.5-.3,2.9-.7,4.1s-1,2.2-1.8,3.1-1.7,1.5-2.7,1.9-2.3.6-3.7.6h.1ZM571,338c.9,0,1.7-.2,2.2-.6s.9-.9,1.1-1.6c.2-.7.4-1.4.4-2.2v-2.6c0-.8-.2-1.5-.4-2.2s-.6-1.2-1.1-1.6-1.3-.6-2.2-.6-1.6.2-2.1.6-1,.9-1.2,1.5c-.3.6-.4,1.2-.5,1.9v3.1c0,.8.2,1.4.5,2.1.2.6.7,1.1,1.2,1.5s1.3.6,2.2.6h-.1Z"></path>
            <path class="cls-1" d="M587.3,343.1c-.3,0-.5-.1-.8-.3-.2-.2-.3-.5-.3-.7v-27.4c0-.3,0-.5.3-.8s.4-.3.8-.3h4.9c.3,0,.5.1.8.3s.3.4.3.8v27.4c0,.3,0,.5-.3.7-.2.2-.4.3-.8.3h-4.9Z"></path>
            <path class="cls-1" d="M599.1,318.5c-.3,0-.5-.1-.8-.3-.2-.2-.3-.4-.3-.8v-3.7c0-.3,0-.5.3-.7.2-.2.4-.3.8-.3h5c.3,0,.5.1.7.3.2.2.3.5.3.7v3.7c0,.3,0,.5-.3.8s-.5.3-.7.3h-5ZM599.1,343.1c-.3,0-.5-.1-.8-.3-.2-.2-.3-.5-.3-.7v-19.5c0-.3,0-.5.3-.8s.4-.3.8-.3h4.9c.3,0,.5.1.8.3s.3.4.3.8v19.5c0,.3,0,.5-.3.7-.2.2-.4.3-.8.3h-4.9Z"></path>
            <path class="cls-1" d="M619.9,343.6c-2,0-3.9-.4-5.4-1.1-1.6-.8-2.8-1.8-3.8-3.2-.9-1.4-1.4-3.1-1.5-5.1v-3.4c0-2,.6-3.7,1.5-5.2s2.2-2.5,3.8-3.2,3.4-1.1,5.5-1.1,3.5.3,4.9.8,2.5,1.2,3.3,2,1.5,1.6,1.9,2.5.7,1.6.7,2.2,0,.5-.3.7c-.2.2-.5.3-.8.3h-5.3c-.3,0-.5,0-.7-.2-.2-.1-.3-.4-.5-.6-.3-.9-.8-1.5-1.3-1.8-.5-.4-1.2-.5-2-.5s-2,.4-2.5,1.1c-.6.7-.9,1.8-1,3.3v2.9c0,1.5.4,2.6,1,3.3s1.4,1,2.5,1,1.5-.2,2-.6.9-1,1.2-1.8c0-.3.3-.5.5-.6s.4-.2.7-.2h5.3c.3,0,.5.1.8.3.2.2.3.4.3.8s-.2,1-.4,1.6-.6,1.3-1.2,2c-.5.7-1.2,1.3-2,1.9s-1.9,1.1-3,1.4-2.6.6-4.2.6h0Z"></path>
            <path class="cls-1" d="M640.9,343.6c-1.5,0-2.8-.3-4-.9s-2.1-1.3-2.8-2.3-1-2.1-1-3.3c0-2,.8-3.5,2.4-4.7,1.6-1.1,3.7-1.9,6.4-2.3l5.2-.8v-.6c0-1-.2-1.8-.6-2.3-.4-.5-1.2-.8-2.3-.8s-1.4.1-1.9.5c-.5.3-.9.7-1.1,1.2-.2.4-.6.5-1,.5h-4.6c-.3,0-.5,0-.7-.3s-.2-.4-.2-.6c0-.5.2-1.1.6-1.7s1-1.3,1.7-1.9c.8-.6,1.8-1.2,3-1.6s2.7-.6,4.4-.6,3.3.2,4.6.6,2.3,1,3.1,1.7c.8.8,1.4,1.6,1.8,2.6s.6,2.1.6,3.3v12.6c0,.3,0,.5-.3.7-.2.2-.5.3-.7.3h-4.8c-.3,0-.5-.1-.8-.3s-.3-.5-.3-.7v-1.5c-.4.5-.8,1-1.5,1.5s-1.3.8-2.1,1.1c-.8.3-1.8.4-2.8.4h0l-.3.2h0ZM642.8,338.8c.8,0,1.5-.2,2.2-.5s1.2-.9,1.5-1.6.6-1.6.6-2.8v-.6l-3.5.6c-1.3.2-2.2.6-2.8,1-.6.5-.9,1-.9,1.6s0,.9.4,1.2c.3.3.6.6,1.1.8.5.2,1,.3,1.5.3h0Z"></path>
            <path class="cls-1" d="M667.8,343.6c-1.8,0-3.3-.2-4.6-.6s-2.3-.9-3.1-1.5-1.4-1.2-1.8-1.8-.6-1.2-.6-1.6,0-.5.3-.8.5-.3.7-.3h4.9l.2.2c.4.2.7.4,1.1.7s.8.5,1.2.8,1,.3,1.7.3,1.4-.2,2-.5.8-.8.8-1.4,0-.8-.4-1.1-.8-.6-1.5-.9-1.9-.5-3.4-.8c-1.4-.3-2.7-.8-3.8-1.3s-1.9-1.2-2.5-2.1-.9-1.9-.9-3.2.4-2.2,1.1-3.2,1.8-1.9,3.2-2.5,3.1-1,5.1-1,3,.2,4.1.6c1.2.4,2.2.9,3,1.4.8.6,1.4,1.2,1.8,1.8.4.6.6,1.2.7,1.7,0,.3,0,.5-.2.7s-.4.3-.7.3h-4.6s-.2,0-.3-.1c-.3-.2-.7-.4-1-.7-.3-.3-.7-.5-1.2-.8s-1-.3-1.7-.3-1.3.2-1.7.5-.6.8-.6,1.3,0,.7.3,1,.7.6,1.5.8c.7.2,1.9.5,3.4.8,1.9.3,3.4.8,4.6,1.5s1.9,1.5,2.4,2.4.7,1.8.7,2.8-.4,2.5-1.2,3.5-2,1.8-3.5,2.4-3.4.9-5.7.9h.2Z"></path>
          </g>
        </g>
        <g>
          <path class="cls-1" d="M257.5,216.2c-1.1,0-2.1-1.1-2.1-2.1v-101.4c0-1.1,1.1-2.1,2.1-2.1h45.1c25.5,0,43.8,15.3,43.8,39.6s-19,38.9-43.8,38.9h-23.2v25c0,1.1-1.1,2.1-2.1,2.1h-19.8ZM279.3,130.7v39.4h21.3c13.9,0,21.8-8.1,21.8-19.9s-8.8-19.5-21.8-19.5h-21.3Z"></path>
          <path class="cls-1" d="M390.9,196.1h52.1c1.1,0,2.5,1.4,2.5,2.5v15.1c0,1.1-1.4,2.5-2.5,2.5h-73.9c-1.1,0-2.1-1.1-2.1-2.1v-101.4c0-1.1,1.1-2.1,2.1-2.1h19.7c1.1,0,2.1,1.1,2.1,2.1v83.4h0Z"></path>
          <path class="cls-1" d="M539.3,197.9h-51.4l-7.6,16c-1.1,2.1-1.6,2.3-3.7,2.3h-20.9c-1.1,0-1.4-.7-1.4-1.2s.4-1.4.7-2.1l49.6-102.3h18.3l49.6,102.3c.4.7.7,1.6.7,2.1s-.4,1.2-1.4,1.2h-20.9c-2.1,0-2.6-.2-3.7-2.3l-7.9-16h0ZM496.4,179.2h34.9l-9.5-19.5c-3.7-7.6-7.4-18.8-7.4-18.8h-1.1s-3.7,11.3-7.4,18.8l-9.5,19.5Z"></path>
          <path class="cls-1" d="M681.4,216.2l-53.9-54.9c-5.6-5.6-12-13.6-12-13.6h-.5v66.4c0,1.1-1.1,2.1-2.1,2.1h-19.7c-1.1,0-2.1-1.1-2.1-2.1v-101.4c0-1.1,1.1-2.1,2.1-2.1h16.2l53.3,54.2c5.8,5.8,12.3,14.3,12.3,14.3h.7v-66.4c0-1.1,1.1-2.1,2.1-2.1h19.7c1.1,0,2.1,1.1,2.1,2.1v101.4c0,1.1-1.1,2.1-2.1,2.1h-16.2.1Z"></path>
          <path class="cls-1" d="M802.5,197.9h-51.4l-7.6,16c-1.1,2.1-1.6,2.3-3.7,2.3h-20.9c-1.1,0-1.4-.7-1.4-1.2s.4-1.4.7-2.1l49.6-102.3h18.3l49.6,102.3c.4.7.7,1.6.7,2.1s-.4,1.2-1.4,1.2h-20.9c-2.1,0-2.6-.2-3.7-2.3l-7.9-16h0ZM759.5,179.2h34.9l-9.5-19.5c-3.7-7.6-7.4-18.8-7.4-18.8h-1.1s-3.7,11.3-7.4,18.8l-9.5,19.5Z"></path>
          <path class="cls-1" d="M856.3,216.2c-1.1,0-2.1-1.1-2.1-2.1v-101.4c0-1.1,1.1-2.1,2.1-2.1h45.1c25.5,0,43.8,15.3,43.8,39.6s-19,38.9-43.8,38.9h-23.2v25c0,1.1-1.1,2.1-2.1,2.1h-19.8ZM878.1,130.7v39.4h21.3c13.9,0,21.8-8.1,21.8-19.9s-8.8-19.5-21.8-19.5h-21.3Z"></path>
          <path class="cls-1" d="M967.9,216.2c-1.1,0-2.1-1.1-2.1-2.1v-101.4c0-1.1,1.1-2.1,2.1-2.1h45.1c25.5,0,43.8,15.3,43.8,39.6s-19,38.9-43.8,38.9h-23.2v25c0,1.1-1.1,2.1-2.1,2.1h-19.8ZM989.7,130.7v39.4h21.3c13.9,0,21.8-8.1,21.8-19.9s-8.8-19.5-21.8-19.5h-21.3Z"></path>
        </g>
      </g>
    </g>
  </g>
</svg>
