<?xml version="1.0" encoding="UTF-8"?>
<!DOCTYPE svg PUBLIC "-//W3C//DTD SVG 1.1//EN" "http://www.w3.org/Graphics/SVG/1.1/DTD/svg11.dtd">
<!-- Creator: CorelDRAW -->
<svg xmlns="http://www.w3.org/2000/svg" xml:space="preserve" width="7732px" height="3653px" version="1.1" style="shape-rendering:geometricPrecision; text-rendering:geometricPrecision; image-rendering:optimizeQuality; fill-rule:evenodd; clip-rule:evenodd"
viewBox="0 0 2964.47 1400.43"
 xmlns:xlink="http://www.w3.org/1999/xlink"
 xmlns:xodm="http://www.corel.com/coreldraw/odm/2003">
 <defs>
  <style type="text/css">
   <![CDATA[
    .str0 {stroke:#3C3C3C;stroke-width:0.91;stroke-miterlimit:22.9256}
    .str1 {stroke:#3C3C3C;stroke-width:15.33;stroke-miterlimit:22.9256}
    .fil2 {fill:none;fill-rule:nonzero}
    .fil12 {fill:#FEFEFE}
    .fil8 {fill:#FFED00}
    .fil0 {fill:#3C3C3C}
    .fil11 {fill:#FEFEFE;fill-rule:nonzero}
    .fil7 {fill:#FFED00;fill-rule:nonzero}
    .fil6 {fill:#F59D0E;fill-rule:nonzero}
    .fil9 {fill:#2D211C;fill-rule:nonzero}
    .fil4 {fill:#D12023;fill-rule:nonzero}
    .fil10 {fill:#1B2721;fill-rule:nonzero}
    .fil5 {fill:#6F9F2D;fill-rule:nonzero}
    .fil3 {fill:#00633A;fill-rule:nonzero}
    .fil13 {fill:#1A325A;fill-rule:nonzero}
    .fil1 {fill:#3C3C3C;fill-rule:nonzero}
   ]]>
  </style>
 </defs>
 <g id="Layer_x0020_1">
  <metadata id="CorelCorpID_0Corel-Layer"/>
  <path class="fil0" d="M1330.48 1359.05c41.23,0 20.89,9.21 50.65,-65.97 4.6,-11.63 7.51,-22.57 12.12,-34.2 2.48,-6.28 4.03,-11.53 6.12,-17.84 1.7,-5.15 5.02,-12.75 6.19,-17.78l-28.76 0c-1.22,14.76 -31.6,84.96 -31.94,100.64l-3.2 0c-0.28,-12.65 -27.32,-80.75 -31.95,-100.64l-28.75 0 35.14 103.84c4.74,11.87 8.2,31.95 14.38,31.95z"/>
  <path class="fil0" d="M1802.51 1126.81c0,11.15 13.85,13.7 1.54,31.9 -3.24,4.8 -4.79,3.85 -6.33,9.63 6.2,1.66 5.95,4.49 11.18,7.99 29.91,-20.03 35.09,-65.5 9.58,-65.5 -9.19,0 -15.97,6.37 -15.97,15.98z"/>
  <path class="fil1 str0" d="M991.3 316.37l0 -19.53c-4.74,-1.18 -9.47,-2.13 -14.21,-2.84 -4.73,-0.71 -9.12,-1.3 -13.14,-1.78l-45.28 -66.06c-2.43,-3.79 -4.97,-7.51 -7.76,-11.18 -2.71,-3.67 -5.44,-7.17 -8.05,-10.48 9.71,-0.95 18.77,-3.19 27.17,-6.75 8.41,-3.55 15.69,-8.17 21.84,-13.85 6.16,-5.68 10.95,-12.37 14.39,-20.07 3.43,-7.69 5.15,-16.39 5.15,-26.1 0,-11.36 -2.01,-21.01 -6.04,-28.94 -4.02,-7.93 -9.65,-14.39 -16.87,-19.35 -7.22,-4.98 -15.8,-8.59 -25.74,-10.84 -9.95,-2.25 -20.84,-3.37 -32.68,-3.37 -14.68,0 -27.71,0.23 -39.07,0.71 -11.37,0.47 -19.41,0.71 -24.15,0.71l-27.7 0 0 18.82c9.47,2.6 19.77,4.26 30.9,4.97l0 192.14c-11.13,0.71 -21.43,2.36 -30.9,4.97l0 18.82 89.5 0 0 -19.17c-4.03,-1.19 -8.34,-2.14 -12.96,-2.85 -4.62,-0.71 -9.18,-1.3 -13.68,-1.77l0 -83.82 6.1 0 70.26 107.61 52.92 0zm-53.63 -174.38c0,12.79 -4.8,23.15 -14.33,31.08 -9.59,7.93 -23.08,11.9 -40.54,11.9 -4.74,0 -8.94,-0.06 -12.55,-0.18 -3.55,-0.12 -6.33,-0.3 -8.23,-0.54l0 -81.68c3.38,-0.24 6.81,-0.41 10.42,-0.53 3.55,-0.12 7.52,-0.18 11.84,-0.18 17.4,0 30.66,3.08 39.78,9.24 9.06,6.15 13.61,16.45 13.61,30.89z"/>
  <path class="fil1 str0" d="M1163.54 316.37l0 -56.82 -22.73 0c-1.18,5.45 -2.19,10.71 -3.02,15.8 -0.83,5.09 -1.47,10.01 -1.95,14.74l-64.64 0 0 -85.23 51.15 0c1.18,8.76 2.83,16.92 4.97,24.5l19.89 0 0 -72.8 -19.89 0c-1.19,3.79 -2.14,7.69 -2.84,11.72 -0.72,4.02 -1.43,8.28 -2.13,12.78l-51.15 0 0 -78.84 64.28 0c0.48,4.02 1.07,8.64 1.78,13.85 0.71,5.21 1.66,10.54 2.84,15.98l22.73 0 0 -55.4 -154.49 0 0 18.82c9.47,2.6 19.78,4.26 30.9,4.97l0 192.14c-11.12,0.71 -21.43,2.36 -30.9,4.97l0 18.82 155.2 0z"/>
  <path class="fil1 str0" d="M1372.02 145.55c0,-21.55 -7.29,-38.65 -21.85,-51.32 -14.56,-12.67 -35.81,-19 -63.74,-19 -5.93,0 -12.03,0.06 -18.3,0.18 -6.27,0.11 -12.25,0.29 -17.93,0.53 -5.69,0.23 -10.89,0.41 -15.63,0.53 -4.73,0.12 -8.52,0.18 -11.36,0.18l-26.28 0 0 18.82c9.47,2.6 19.76,4.26 30.89,4.97l0 192.14c-11.13,0.71 -21.42,2.36 -30.89,4.97l0 18.82 93.75 0 0 -18.82c-9.47,-2.61 -19.76,-4.26 -30.89,-4.97l0 -67.84c3.31,0.48 6.5,0.71 9.58,0.71 3.38,0 6.7,0 10,0 13.56,0 25.94,-1.95 37.24,-5.85 11.31,-3.91 21.02,-9.42 29.24,-16.52 8.16,-7.1 14.57,-15.51 19.24,-25.22 4.61,-9.7 6.93,-20.48 6.93,-32.31zm-33.74 3.2c0,15.15 -5.28,27.16 -15.87,36.04 -10.59,8.88 -24.92,13.44 -42.97,13.67 -3.37,0 -6.69,-0.11 -10,-0.35 -3.32,-0.24 -6.58,-0.59 -9.65,-1.07l0 -94.47c3.55,-0.24 7.17,-0.35 10.71,-0.35 3.79,0 7.93,0 12.49,0 18.76,0 32.68,4.02 41.73,12.07 9.05,8.05 13.56,19.54 13.56,34.46z"/>
  <path class="fil1 str0" d="M1622.75 95.83l0 -19.18 -84.88 0 0 19.18c4.49,1.18 9.17,2.13 14.02,2.84 4.86,0.71 9.66,1.3 14.4,1.77l0 126.79c0,24.15 -5.05,41.13 -15.16,50.97 -10.07,9.82 -25.57,14.73 -46.47,14.73 -12.13,0 -22.02,-1.53 -29.71,-4.61 -7.75,-3.08 -13.85,-7.34 -18.36,-12.79 -4.54,-5.45 -7.62,-11.78 -9.28,-19 -1.66,-7.22 -2.49,-14.98 -2.49,-23.26l0 -132.83c4.73,-0.47 9.59,-1.06 14.56,-1.77 4.98,-0.71 9.59,-1.66 13.86,-2.84l0 -19.18 -84.89 0 0 19.18c3.8,1.18 7.76,2.13 11.9,2.84 4.13,0.71 8.35,1.3 12.6,1.77l0 135.32c0,10.65 1.19,21 3.56,31.07 2.37,10.06 6.8,19.06 13.32,26.99 6.5,7.93 15.62,14.27 27.34,19 11.72,4.74 26.94,7.1 45.64,7.1 31.73,0 55.58,-7.87 71.56,-23.61 15.98,-15.75 23.97,-39.49 23.97,-71.21l0 -124.66c4.27,-0.47 8.42,-1.06 12.44,-1.77 4.03,-0.71 8.05,-1.66 12.07,-2.84zm-68.55 -73.17l-15.98 -22.01 -50.43 39.42 12.79 17.76 53.62 -35.17z"/>
  <path class="fil1 str0" d="M1831.22 244.63c0,-6.15 -0.95,-12.25 -2.84,-18.29 -1.89,-6.04 -4.79,-11.54 -8.7,-16.51 -3.91,-4.97 -8.94,-9.24 -15.1,-12.79 -6.15,-3.55 -13.37,-6.03 -21.66,-7.46l0 -0.71c12.79,-4.02 23.15,-11.18 31.08,-21.48 7.93,-10.3 11.89,-21.72 11.89,-34.27 0,-18 -6.39,-32.08 -19.17,-42.27 -12.79,-10.18 -32.32,-15.27 -58.6,-15.27 -14.45,0 -27.82,0.18 -40.14,0.54 -12.31,0.35 -22.72,0.53 -31.25,0.53l-30.19 0 0 18.82c9.47,2.6 19.77,4.26 30.9,4.97l0 192.14c-11.13,0.71 -21.43,2.36 -30.9,4.97l0 18.82 30.9 0c11.6,0 22.9,0.18 33.92,0.54 11.01,0.35 20.06,0.53 27.17,0.53 18.7,0 34.03,-2.43 45.98,-7.28 11.96,-4.86 21.43,-10.95 28.41,-18.29 6.99,-7.34 11.79,-15.27 14.39,-23.8 2.61,-8.52 3.91,-16.33 3.91,-23.44zm-39.07 -106.19c0,13.26 -5.08,23.56 -15.21,30.9 -10.18,7.34 -25.27,11.01 -45.34,11.01 -4.02,0 -7.98,0 -11.77,0 -3.62,0 -7.04,-0.12 -10.43,-0.35l0 -77.43c5.03,-0.24 10.36,-0.41 15.93,-0.53 5.62,-0.12 11.31,-0.18 17.04,-0.18 9.53,0 17.53,0.89 23.98,2.66 6.45,1.78 11.6,4.32 15.44,7.64 3.8,3.32 6.45,7.23 8.05,11.72 1.55,4.5 2.31,9.36 2.31,14.56zm4.27 107.26c0,13.25 -4.51,24.09 -13.5,32.5 -8.99,8.4 -23.33,12.6 -42.98,12.6 -6.85,0 -12.83,-0.18 -17.92,-0.53 -5.09,-0.36 -9.3,-0.77 -12.62,-1.24l0 -83.82c1.42,0 3.19,-0.06 5.33,-0.18 2.13,-0.12 4.26,-0.17 6.4,-0.17 2.36,0 4.49,0 6.38,0 1.9,0 3.33,0 4.27,0 9.24,0 17.82,0.65 25.74,1.95 7.94,1.3 14.74,3.55 20.43,6.75 5.68,3.19 10.18,7.4 13.5,12.6 3.31,5.22 4.97,11.72 4.97,19.54z"/>
  <path class="fil1 str0" d="M2011.27 316.37l0 -58.6 -22.36 0c-1.19,5.68 -2.25,11.3 -3.2,16.87 -0.94,5.56 -1.66,10.72 -2.13,15.45l-61.45 0 0 -189.3c11.13,-0.7 21.44,-2.36 30.91,-4.96l0 -18.83 -93.77 0 0 18.83c9.48,2.6 19.78,4.26 30.9,4.96l0 192.08c-11.12,0.72 -21.42,2.37 -30.9,4.91l0 18.59 152 0z"/>
  <path class="fil1 str0" d="M2119.95 316.37l0 -18.82c-9.47,-2.61 -19.77,-4.26 -30.89,-4.97l0 -192.14c11.12,-0.71 21.42,-2.37 30.89,-4.97l0 -18.82 -93.76 0 0 18.82c9.48,2.6 19.78,4.26 30.91,4.97l0 192.14c-11.13,0.71 -21.43,2.36 -30.91,4.97l0 18.82 93.76 0z"/>
  <path class="fil1 str0" d="M2320.97 139.16l0 -58.01c-9,-2.07 -18.3,-3.79 -27.88,-5.03 -9.59,-1.31 -19.01,-1.96 -28.23,-1.96 -20.6,0 -38.3,3.2 -53.1,9.59 -14.8,6.39 -27.06,15.33 -36.76,26.81 -9.71,11.49 -16.87,25.1 -21.48,40.85 -4.63,15.74 -6.93,32.84 -6.93,51.31 0,36.71 9.29,65.35 27.88,85.95 18.58,20.6 46.23,30.9 82.93,30.9 12.07,0 23.67,-1.13 34.8,-3.37 11.12,-2.26 21.55,-5.15 31.26,-8.71l-2.14 -29.83c-7.57,3.79 -16.39,6.8 -26.45,9.06 -10.07,2.25 -19.83,3.37 -29.31,3.37 -29.12,0 -50.25,-8.16 -63.38,-24.56 -13.15,-16.34 -19.71,-39.13 -19.71,-68.31 0,-13.26 1.48,-25.69 4.43,-37.17 2.96,-11.54 7.52,-21.49 13.68,-29.89 6.14,-8.41 13.96,-15.1 23.43,-19.95 9.48,-4.85 20.72,-7.28 33.75,-7.28 5.91,0 11.78,0.29 17.58,0.88 5.79,0.6 11.77,1.72 17.93,3.38 0.47,4.73 1.06,9.77 1.78,15.09 0.7,5.33 1.64,10.96 2.83,16.88l23.09 0z"/>
  <path class="fil1 str0" d="M2576.67 316.37l0 -19.17c-3.31,-0.71 -6.92,-1.49 -10.83,-2.32 -3.9,-0.82 -7.51,-1.36 -10.82,-1.59l-79.92 -216.64 -38.35 0 -79.56 216.64c-3.3,0.23 -6.92,0.77 -10.83,1.59 -3.9,0.83 -7.51,1.61 -10.83,2.32l0 19.17 83.11 0 0 -18.82c-4.27,-1.18 -8.83,-2.13 -13.67,-2.84 -4.85,-0.71 -9.66,-1.3 -14.4,-1.78l13.86 -38.35 100.5 0 13.86 38.35c-4.74,0.48 -9.53,1.07 -14.38,1.78 -4.86,0.71 -9.42,1.66 -13.69,2.84l0 18.82 85.95 0zm-80.26 -88.07l-83.46 0 30.19 -83.11c2.36,-6.16 4.44,-12.25 6.22,-18.29 1.78,-6.03 3.37,-12.01 4.79,-17.94l0.72 0c1.42,6.16 2.96,12.14 4.61,17.94 1.66,5.8 3.66,11.78 6.04,17.94l30.89 83.46z"/>
  <path class="fil1 str0" d="M971 480.59c0,-21.55 -7.14,-38.65 -21.43,-51.32 -14.3,-12.67 -35.15,-19 -62.57,-19 -5.81,0 -11.8,0.05 -17.95,0.17 -6.16,0.12 -12.03,0.3 -17.61,0.53 -5.57,0.24 -10.68,0.42 -15.33,0.54 -4.65,0.12 -8.36,0.17 -11.15,0.17l-25.8 0 0 18.83c9.3,2.6 19.41,4.26 30.33,4.97l0 192.14c-10.92,0.7 -21.03,2.36 -30.33,4.97l0 18.82 92.02 0 0 -18.82c-9.3,-2.61 -19.4,-4.27 -30.32,-4.97l0 -67.84c3.24,0.48 6.39,0.71 9.41,0.71 3.31,0 6.56,0 9.81,0 13.31,0 25.45,-1.95 36.55,-5.85 11.09,-3.91 20.62,-9.42 28.7,-16.52 8.01,-7.1 14.28,-15.51 18.87,-25.22 4.53,-9.7 6.8,-20.48 6.8,-32.31zm-33.11 3.19c0,15.16 -5.17,27.17 -15.57,36.05 -10.4,8.87 -24.46,13.44 -42.17,13.67 -3.32,0 -6.57,-0.11 -9.82,-0.35 -3.25,-0.24 -6.45,-0.6 -9.47,-1.07l0 -94.46c3.49,-0.25 7.02,-0.36 10.51,-0.36 3.72,0 7.79,0 12.26,0 18.42,0 32.07,4.02 40.95,12.07 8.89,8.05 13.31,19.54 13.31,34.45z"/>
  <path class="fil1 str0" d="M1208.36 528.89c0,-19.66 -2.5,-37 -7.49,-52.04 -4.99,-15.03 -12.08,-27.64 -21.26,-37.82 -9.17,-10.18 -20.22,-17.87 -33.11,-23.08 -12.9,-5.21 -27.25,-7.82 -43.05,-7.82 -15.34,0 -29.8,2.84 -43.4,8.53 -13.59,5.68 -25.44,13.91 -35.55,24.68 -10.11,10.77 -18.06,23.97 -23.87,39.6 -5.81,15.63 -8.72,33.39 -8.72,53.28 0,18.22 2.15,34.74 6.45,49.54 4.3,14.8 10.81,27.46 19.53,38 8.71,10.53 19.63,18.7 32.75,24.5 13.13,5.8 28.53,8.71 46.19,8.71 15.33,0 29.74,-2.85 43.22,-8.53 13.48,-5.68 25.27,-13.91 35.38,-24.68 10.11,-10.77 18.12,-23.98 24.05,-39.6 5.92,-15.63 8.88,-33.38 8.88,-53.27zm-34.15 4.08c0,15.39 -2.09,28.94 -6.28,40.54 -4.18,11.67 -9.76,21.37 -16.73,29.19 -6.96,7.81 -14.93,13.73 -23.87,17.63 -8.95,3.91 -18.18,5.87 -27.71,5.87 -12.55,0 -23.41,-2.32 -32.59,-6.93 -9.18,-4.62 -16.79,-11.25 -22.83,-19.77 -6.04,-8.52 -10.58,-18.7 -13.6,-30.6 -3.01,-11.84 -4.53,-24.92 -4.53,-39.13 0,-15.21 2.03,-28.52 6.1,-40.01 4.07,-11.54 9.47,-21.19 16.21,-29 6.74,-7.88 14.58,-13.8 23.53,-17.82 8.94,-4.02 18.3,-6.04 28.06,-6.04 23.7,0 42,8.23 54.89,24.75 12.9,16.45 19.35,40.24 19.35,71.32z"/>
  <path class="fil1 str0" d="M1421.34 651.41l0 -19.53c-4.65,-1.19 -9.3,-2.14 -13.95,-2.85 -4.65,-0.71 -8.96,-1.29 -12.91,-1.77l-44.42 -66.06c-2.39,-3.79 -4.88,-7.51 -7.62,-11.18 -2.67,-3.67 -5.34,-7.17 -7.89,-10.48 9.51,-0.95 18.4,-3.2 26.66,-6.75 8.25,-3.55 15.39,-8.17 21.43,-13.85 6.03,-5.68 10.75,-12.37 14.12,-20.06 3.37,-7.7 5.06,-16.4 5.06,-26.11 0,-11.36 -1.98,-21.01 -5.93,-28.94 -3.96,-7.93 -9.48,-14.38 -16.56,-19.36 -7.09,-4.97 -15.52,-8.58 -25.26,-10.83 -9.76,-2.25 -20.46,-3.37 -32.08,-3.37 -14.41,0 -27.18,0.23 -38.34,0.7 -11.16,0.48 -19.05,0.71 -23.7,0.71l-27.18 0 0 18.83c9.29,2.6 19.4,4.26 30.32,4.97l0 192.14c-10.92,0.7 -21.03,2.36 -30.32,4.97l0 18.82 87.83 0 0 -19.17c-3.95,-1.19 -8.19,-2.14 -12.73,-2.85 -4.53,-0.71 -9,-1.3 -13.41,-1.77l0 -83.82 5.98 0 68.96 107.61 51.94 0zm-52.65 -174.38c0,12.79 -4.7,23.15 -14.05,31.08 -9.41,7.93 -22.65,11.9 -39.79,11.9 -4.65,0 -8.78,-0.06 -12.32,-0.18 -3.48,-0.12 -6.22,-0.3 -8.07,-0.53l0 -81.68c3.31,-0.25 6.68,-0.42 10.22,-0.54 3.49,-0.12 7.38,-0.18 11.61,-0.18 17.1,0 30.1,3.08 39.05,9.24 8.88,6.15 13.35,16.45 13.35,30.89z"/>
  <path class="fil1 str0" d="M1612.34 411.68l-181.95 0 0 59.31 21.96 0c1.17,-6.86 2.15,-12.96 2.97,-18.28 0.8,-5.33 1.44,-10.24 1.91,-14.74l48.44 0 0 189.58c-10.92,0.72 -21.02,2.37 -30.32,4.98l0 18.88 92.02 0 0 -18.88c-9.3,-2.61 -19.4,-4.26 -30.32,-4.98l0 -189.58 48.45 0c0.46,4.5 1.1,9.41 1.92,14.74 0.81,5.32 1.8,11.42 2.95,18.28l21.97 0 0 -59.31z"/>
  <path class="fil1 str0" d="M1859.1 430.86l0 -19.18 -83.3 0 0 19.18c4.42,1.19 9.01,2.14 13.77,2.84 4.77,0.71 9.47,1.31 14.12,1.78l0 126.79c0,24.15 -4.93,41.14 -14.87,50.96 -9.88,9.83 -25.09,14.74 -45.61,14.74 -11.9,0 -21.6,-1.54 -29.15,-4.61 -7.62,-3.08 -13.6,-7.34 -18.02,-12.79 -4.46,-5.45 -7.49,-11.78 -9.11,-19 -1.63,-7.22 -2.44,-14.98 -2.44,-23.26l0 -132.83c4.65,-0.47 9.4,-1.07 14.28,-1.78 4.88,-0.7 9.42,-1.65 13.59,-2.84l0 -19.18 -83.3 0 0 19.18c3.72,1.19 7.61,2.14 11.68,2.84 4.07,0.71 8.2,1.31 12.38,1.78l0 135.32c0,10.65 1.16,21.01 3.47,31.06 2.33,10.07 6.7,19.07 13.08,27 6.39,7.93 15.34,14.27 26.84,19 11.5,4.73 26.43,7.11 44.79,7.11 31.13,0 54.54,-7.88 70.23,-23.63 15.69,-15.74 23.53,-39.48 23.53,-71.2l0 -124.66c4.18,-0.47 8.24,-1.07 12.19,-1.78 3.96,-0.7 7.91,-1.65 11.85,-2.84z"/>
  <path class="fil1 str0" d="M2101.02 548.42l0 -19.53 -84.37 0 0 19.17c4.42,1.19 9.19,2.13 14.3,2.84 5.11,0.72 10.34,1.31 15.68,1.78l0 66.77c-6.28,1.89 -12.84,3.43 -19.58,4.62 -6.73,1.18 -14.11,1.77 -22.01,1.77 -13.31,0 -25.27,-2.07 -36.02,-6.22 -10.7,-4.14 -19.87,-10.24 -27.6,-18.23 -7.66,-8.05 -13.59,-17.87 -17.65,-29.42 -4.06,-11.59 -6.11,-24.86 -6.11,-39.71 0,-16.1 2.39,-30.07 7.16,-42.03 4.81,-11.9 11.33,-21.9 19.57,-29.95 8.3,-8.05 17.83,-13.96 28.7,-17.87 10.79,-3.91 22.31,-5.86 34.39,-5.86 12.84,0 25.84,1.77 39.15,5.32 0.71,9.24 2.1,19.78 4.18,31.61l23.01 0 0 -56.47c-10.45,-2.6 -20.91,-4.67 -31.36,-6.21 -10.53,-1.54 -21.22,-2.31 -32.13,-2.31 -19.58,0 -37.24,3.19 -52.93,9.59 -15.73,6.39 -29.05,15.27 -40.02,26.63 -10.92,11.37 -19.29,24.87 -25.16,40.49 -5.81,15.63 -8.72,32.68 -8.72,51.14 0,18.47 2.74,35.05 8.19,49.73 5.47,14.67 13.31,27.1 23.53,37.29 10.23,10.17 22.48,17.93 36.78,23.25 14.28,5.33 30.38,8 48.28,8 13.01,0 26.25,-1.19 39.73,-3.61 13.48,-2.37 26.14,-5.86 37.99,-10.42l0 -87.9c7.9,-0.95 15.57,-2.37 23.02,-4.26z"/>
  <path class="fil1 str0" d="M2350.58 430.86l0 -19.18 -83.3 0 0 19.18c4.4,1.19 8.99,2.14 13.75,2.84 4.77,0.71 9.48,1.31 14.12,1.78l0 126.79c0,24.15 -4.93,41.14 -14.87,50.96 -9.88,9.83 -25.09,14.74 -45.61,14.74 -11.9,0 -21.6,-1.54 -29.15,-4.61 -7.61,-3.08 -13.59,-7.34 -18.01,-12.79 -4.47,-5.45 -7.5,-11.78 -9.12,-19 -1.62,-7.22 -2.44,-14.98 -2.44,-23.26l0 -132.83c4.65,-0.47 9.4,-1.07 14.29,-1.78 4.89,-0.7 9.41,-1.65 13.6,-2.84l0 -19.18 -83.31 0 0 19.18c3.71,1.19 7.6,2.14 11.68,2.84 4.06,0.71 8.19,1.31 12.36,1.78l0 135.32c0,10.65 1.17,21.01 3.49,31.06 2.33,10.07 6.68,19.07 13.07,27 6.39,7.93 15.34,14.27 26.84,19 11.51,4.73 26.43,7.11 44.79,7.11 31.13,0 54.56,-7.88 70.23,-23.63 15.69,-15.74 23.53,-39.48 23.53,-71.2l0 -124.66c4.18,-0.47 8.25,-1.07 12.2,-1.78 3.95,-0.7 7.9,-1.65 11.86,-2.84z"/>
  <path class="fil1 str0" d="M2526.24 651.41l0 -56.82 -22.31 0c-1.16,5.44 -2.14,10.71 -2.96,15.8 -0.82,5.09 -1.44,10.01 -1.91,14.74l-63.44 0 0 -85.24 50.19 0c1.16,8.77 2.78,16.94 4.88,24.51l19.51 0 0 -72.8 -19.51 0c-1.17,3.78 -2.1,7.69 -2.79,11.72 -0.69,4.02 -1.39,8.28 -2.09,12.78l-50.19 0 0 -78.84 63.09 0c0.46,4.02 1.05,8.64 1.74,13.85 0.7,5.2 1.63,10.54 2.79,15.98l22.31 0 0 -55.41 -151.62 0 0 18.83c9.29,2.6 19.4,4.26 30.31,4.97l0 192.14c-10.91,0.7 -21.02,2.36 -30.31,4.97l0 18.82 152.31 0z"/>
  <path class="fil1 str0" d="M2707.84 580.74c0,-12.55 -2.67,-22.73 -8.02,-30.55 -5.41,-7.81 -12.02,-14.26 -19.98,-19.35 -7.91,-5.09 -16.51,-9.35 -25.86,-12.79 -9.28,-3.43 -17.95,-7.1 -25.84,-11.01 -7.96,-3.9 -14.59,-8.4 -19.98,-13.49 -5.35,-5.09 -8.02,-12.01 -8.02,-20.78 0,-11.36 4.12,-20.42 12.31,-27.17 8.19,-6.75 20.39,-10.12 36.6,-10.12 3.31,0 6.73,0.18 10.4,0.53 3.6,0.36 6.73,0.78 9.29,1.25 0.7,9.47 2.15,19.77 4.24,30.89l23.01 0 0 -55.04c-7.67,-1.43 -15.1,-2.55 -22.31,-3.38 -7.2,-0.82 -14.93,-1.24 -23.06,-1.24 -13.31,0 -25.1,1.66 -35.32,4.97 -10.28,3.32 -18.99,7.99 -26.26,14.03 -7.21,6.04 -12.66,13.2 -16.44,21.48 -3.72,8.29 -5.57,17.41 -5.57,27.35 0,12.79 2.67,23.14 8.01,31.08 5.4,7.93 12.02,14.44 19.97,19.53 7.91,5.09 16.56,9.3 25.86,12.61 9.35,3.31 17.96,6.87 25.86,10.65 7.96,3.79 14.57,8.35 19.99,13.68 5.34,5.33 8.01,12.48 8.01,21.48 0,7.34 -1.41,13.61 -4.24,18.83 -2.79,5.2 -6.57,9.46 -11.22,12.78 -4.7,3.32 -10.22,5.74 -16.55,7.28 -6.34,1.54 -13.12,2.31 -20.39,2.31 -4.01,0 -8.14,-0.29 -12.5,-0.89 -4.35,-0.59 -8.36,-1.36 -12.13,-2.3 -0.47,-4.74 -1.05,-9.72 -1.75,-14.92 -0.69,-5.21 -1.62,-10.77 -2.79,-16.7l-23 0 0 56.83c15.11,4.02 31.83,6.04 50.25,6.04 13.54,0 25.73,-1.84 36.54,-5.51 10.87,-3.67 19.99,-8.76 27.47,-15.27 7.44,-6.51 13.19,-14.33 17.33,-23.44 4.06,-9.12 6.09,-19 6.09,-29.65z"/>
  <path class="fil1 str0" d="M2964.02 651.41l0 -19.17c-3.24,-0.71 -6.8,-1.49 -10.63,-2.32 -3.83,-0.82 -7.37,-1.36 -10.63,-1.6l-78.42 -216.64 -37.65 0 -78.08 216.64c-3.24,0.24 -6.79,0.78 -10.62,1.6 -3.83,0.83 -7.39,1.61 -10.63,2.32l0 19.17 81.56 0 0 -18.82c-4.17,-1.18 -8.66,-2.13 -13.41,-2.85 -4.78,-0.71 -9.48,-1.29 -14.13,-1.77l13.6 -38.35 98.64 0 13.59 38.35c-4.65,0.48 -9.35,1.06 -14.12,1.77 -4.76,0.72 -9.23,1.67 -13.41,2.85l0 18.82 84.34 0zm-78.77 -88.07l-81.91 0 29.62 -83.11c2.33,-6.15 4.36,-12.25 6.11,-18.29 1.74,-6.03 3.31,-12.02 4.7,-17.93l0.71 0c1.39,6.15 2.9,12.13 4.52,17.93 1.63,5.8 3.6,11.78 5.92,17.93l30.33 83.47z"/>
  <line class="fil2 str1" x1="799.16" y1="813.04" x2="2964.02" y2= "813.04" />
  <path class="fil1" d="M888.22 1131.01c0,1.96 -0.06,3.57 -0.24,4.9 -0.18,1.3 -0.43,2.36 -0.78,3.15 -0.36,0.82 -0.79,1.4 -1.32,1.78 -0.49,0.38 -1.1,0.55 -1.7,0.55l-67.42 0c-2.27,0 -4.18,-0.66 -5.74,-1.95 -1.56,-1.31 -2.34,-3.43 -2.34,-6.37l0 -113.19c0,-2.94 0.78,-5.06 2.34,-6.37 1.56,-1.29 3.47,-1.95 5.74,-1.95l67.1 0c0.6,0 1.17,0.17 1.67,0.51 0.46,0.35 0.88,0.93 1.24,1.75 0.32,0.85 0.61,1.92 0.78,3.22 0.18,1.34 0.25,2.98 0.25,5 0,1.88 -0.07,3.45 -0.25,4.79 -0.17,1.3 -0.43,2.36 -0.78,3.15 -0.36,0.82 -0.78,1.4 -1.24,1.78 -0.5,0.38 -1.07,0.55 -1.67,0.55l-47.96 0 0 31.64 40.41 0c0.64,0 1.21,0.17 1.7,0.54 0.54,0.38 0.96,0.92 1.32,1.71 0.35,0.76 0.6,1.78 0.78,3.12 0.17,1.3 0.24,2.88 0.24,4.72 0,1.96 -0.07,3.57 -0.24,4.83 -0.18,1.27 -0.43,2.29 -0.78,3.05 -0.36,0.78 -0.78,1.34 -1.32,1.64 -0.49,0.34 -1.06,0.52 -1.7,0.52l-40.41 0 0 36.56 48.28 0c0.64,0 1.21,0.17 1.7,0.55 0.53,0.37 0.96,0.96 1.32,1.77 0.35,0.8 0.6,1.85 0.78,3.16 0.18,1.33 0.24,2.94 0.24,4.89z"/>
  <path class="fil1" d="M1024.09 1074.56c0,11.91 -1.59,22.08 -4.81,30.57 -3.23,8.46 -7.84,15.34 -13.86,20.71 -6.03,5.35 -13.37,9.28 -21.98,11.78 -8.62,2.5 -18.9,3.77 -30.8,3.77l-32.09 0c-2.3,0 -4.21,-0.66 -5.78,-1.95 -1.56,-1.31 -2.34,-3.43 -2.34,-6.37l0 -113.19c0,-2.94 0.78,-5.06 2.34,-6.37 1.57,-1.29 3.48,-1.95 5.78,-1.95l34.46 0c11.98,0 22.15,1.37 30.48,4.07 8.37,2.71 15.39,6.71 21.09,12.02 5.71,5.34 10.07,11.92 13.05,19.72 2.98,7.85 4.46,16.88 4.46,27.19zm-28.28 0.92c0,-6.16 -0.75,-11.85 -2.24,-17.15 -1.48,-5.27 -3.86,-9.83 -7.15,-13.69 -3.3,-3.87 -7.52,-6.92 -12.66,-9.07 -5.17,-2.17 -11.91,-3.26 -20.31,-3.26l-13.79 0 0 88.12 14.21 0c7.49,0 13.8,-0.92 18.9,-2.8 5.1,-1.85 9.39,-4.7 12.83,-8.46 3.4,-3.76 5.95,-8.46 7.66,-14.07 1.7,-5.61 2.55,-12.16 2.55,-19.62z"/>
  <path class="fil1" d="M1156.03 1093.01c0,7.95 -1.2,15.06 -3.65,21.33 -2.41,6.3 -5.95,11.6 -10.66,15.96 -4.72,4.34 -10.54,7.67 -17.44,9.93 -6.95,2.28 -14.89,3.42 -23.9,3.42 -8.44,0 -16.02,-1.03 -22.72,-3.05 -6.73,-2.06 -12.41,-5.14 -17.05,-9.28 -4.64,-4.14 -8.19,-9.31 -10.64,-15.51 -2.44,-6.19 -3.68,-13.42 -3.68,-21.7l0 -78.95c0,-0.66 0.21,-1.27 0.64,-1.82 0.39,-0.51 1.13,-0.95 2.19,-1.3 1.07,-0.34 2.49,-0.58 4.22,-0.79 1.7,-0.2 3.93,-0.3 6.63,-0.3 2.59,0 4.79,0.1 6.49,0.3 1.73,0.21 3.12,0.45 4.15,0.79 1.02,0.35 1.77,0.79 2.23,1.3 0.46,0.55 0.67,1.16 0.67,1.82l0 76.69c0,5.17 0.68,9.62 1.99,13.41 1.31,3.77 3.19,6.92 5.67,9.39 2.44,2.47 5.38,4.35 8.82,5.58 3.44,1.23 7.27,1.85 11.49,1.85 4.29,0 8.15,-0.65 11.52,-1.92 3.41,-1.27 6.28,-3.11 8.65,-5.55 2.34,-2.46 4.19,-5.47 5.46,-9.03 1.28,-3.6 1.91,-7.67 1.91,-12.23l0 -78.19c0,-0.66 0.21,-1.27 0.64,-1.82 0.39,-0.51 1.14,-0.95 2.16,-1.3 1.03,-0.34 2.45,-0.58 4.23,-0.79 1.76,-0.2 3.96,-0.3 6.58,-0.3 2.63,0 4.79,0.1 6.49,0.3 1.7,0.21 3.09,0.45 4.12,0.79 1.02,0.35 1.77,0.79 2.16,1.3 0.42,0.55 0.63,1.16 0.63,1.82l0 77.85z"/>
  <path class="fil1" d="M1278.29 1121.77c0,1.68 -0.03,3.12 -0.14,4.28 -0.1,1.16 -0.28,2.19 -0.49,3.01 -0.18,0.86 -0.46,1.57 -0.82,2.19 -0.35,0.58 -0.89,1.27 -1.66,2.02 -0.75,0.75 -2.24,1.75 -4.4,2.95 -2.2,1.16 -4.86,2.32 -8.01,3.42 -3.16,1.06 -6.74,1.99 -10.78,2.7 -4.04,0.72 -8.43,1.1 -13.15,1.1 -9.17,0 -17.47,-1.37 -24.88,-4.11 -7.41,-2.74 -13.72,-6.85 -18.9,-12.29 -5.21,-5.44 -9.18,-12.22 -11.94,-20.4 -2.77,-8.15 -4.15,-17.64 -4.15,-28.45 0,-11.03 1.52,-20.82 4.57,-29.38 3.05,-8.56 7.31,-15.75 12.76,-21.57 5.46,-5.82 12.02,-10.2 19.68,-13.21 7.62,-3.01 16.05,-4.52 25.27,-4.52 3.72,0 7.3,0.31 10.78,0.92 3.47,0.59 6.67,1.37 9.6,2.37 2.94,0.96 5.57,2.09 7.95,3.35 2.34,1.3 4,2.4 4.93,3.29 0.91,0.92 1.56,1.67 1.91,2.26 0.35,0.62 0.63,1.37 0.82,2.29 0.21,0.96 0.38,2.06 0.49,3.32 0.1,1.27 0.14,2.81 0.14,4.69 0,1.99 -0.08,3.7 -0.21,5.1 -0.15,1.41 -0.39,2.54 -0.71,3.39 -0.35,0.86 -0.78,1.51 -1.25,1.89 -0.49,0.41 -1.06,0.61 -1.66,0.61 -1.02,0 -2.34,-0.58 -3.94,-1.75 -1.59,-1.16 -3.64,-2.46 -6.16,-3.9 -2.52,-1.44 -5.53,-2.73 -9.04,-3.9 -3.47,-1.16 -7.62,-1.75 -12.48,-1.75 -5.32,0 -10.06,1.07 -14.25,3.15 -4.18,2.13 -7.73,5.11 -10.67,9.01 -2.94,3.94 -5.18,8.66 -6.7,14.21 -1.52,5.51 -2.27,11.78 -2.27,18.72 0,7.6 0.82,14.21 2.45,19.79 1.63,5.55 3.93,10.17 6.95,13.76 2.97,3.6 6.62,6.3 10.88,8.05 4.26,1.78 9.04,2.67 14.36,2.67 4.82,0 9,-0.54 12.54,-1.64 3.51,-1.1 6.52,-2.33 9.04,-3.63 2.55,-1.34 4.62,-2.54 6.24,-3.6 1.63,-1.06 2.87,-1.6 3.79,-1.6 0.68,0 1.24,0.13 1.64,0.41 0.42,0.27 0.78,0.78 1.06,1.61 0.25,0.78 0.46,1.91 0.61,3.35 0.14,1.47 0.2,3.39 0.2,5.82z"/>
  <path class="fil1" d="M1407.99 1131.56c0.83,2.4 1.35,4.31 1.56,5.71 0.22,1.41 -0.06,2.47 -0.8,3.19 -0.78,0.69 -2.13,1.13 -4.08,1.3 -1.91,0.17 -4.61,0.24 -7.98,0.24 -3.55,0 -6.31,-0.03 -8.26,-0.13 -1.98,-0.11 -3.48,-0.31 -4.54,-0.62 -1.03,-0.31 -1.73,-0.72 -2.15,-1.27 -0.42,-0.51 -0.78,-1.23 -1.03,-2.09l-8.82 -26.08 -50.7 0 -8.47 25.37c-0.29,0.95 -0.65,1.74 -1.11,2.36 -0.42,0.65 -1.16,1.12 -2.15,1.5 -1,0.38 -2.41,0.62 -4.26,0.76 -1.84,0.13 -4.25,0.2 -7.22,0.2 -3.21,0 -5.68,-0.1 -7.49,-0.3 -1.81,-0.21 -3.05,-0.69 -3.72,-1.45 -0.71,-0.78 -0.96,-1.87 -0.75,-3.28 0.21,-1.4 0.75,-3.25 1.56,-5.61l41.41 -115.21c0.39,-1.13 0.87,-2.05 1.44,-2.74 0.55,-0.72 1.42,-1.23 2.64,-1.61 1.24,-0.38 2.89,-0.61 5.06,-0.72 2.13,-0.1 4.96,-0.13 8.51,-0.13 4.07,0 7.34,0.03 9.74,0.13 2.45,0.11 4.33,0.34 5.68,0.72 1.35,0.38 2.3,0.93 2.91,1.64 0.57,0.76 1.1,1.75 1.48,3.02l41.54 115.1zm-61.67 -95.31l-0.11 0 -18.71 55.22 37.71 0 -18.89 -55.22z"/>
  <path class="fil3" d="M252.74 0.65c-167.68,54.03 -252.74,196.52 -252.74,416.31l0 333.36c0,0 28.03,-214.28 252.74,-276.06l0 -473.61z"/>
  <path class="fil4" d="M271.42 63.61c0,0 127.62,-48.35 309.24,-58.63 0,0 -0.57,151.74 -5.43,274.97 -15.32,389.45 -363.32,189.35 -533.83,396.47 34.22,-89.65 150.59,-153.44 230.02,-169.13l0 -443.68z"/>
  <path class="fil3" d="M224.35 619.7c0,0 -184.96,15.02 -200.75,120.5 -12.45,82.68 200.75,84.84 200.75,84.84l0 -205.34z"/>
  <path class="fil5" d="M7.91 309.27c38.29,-89.44 103.16,-180.94 244.83,-238.23l0 -70.39c-138.47,44.64 -220.42,149.72 -244.83,308.62z"/>
  <path class="fil6" d="M257.17 471.74l0 2.37c0,0.26 -0.1,0.52 -0.35,0.52l-3.67 0c-0.2,0 -0.41,-0.26 -0.41,-0.52l0 -45.28c1.49,0.12 2.99,0.21 4.43,0.32l0 42.59zm-6.15 -0.31l0 0c-52.84,-3.36 -98.97,-31.33 -127.15,-72.57 -0.2,-0.31 -0.51,-0.73 -0.72,-1.09 0,0 0,0 0,-0.05 1.34,-0.62 2.68,-1.14 4.08,-1.6 27.25,40.16 71.96,67.41 123.18,71.08l0.61 4.23zm-136.35 -85.07c-0.81,-0.04 -1.29,-0.4 -1.43,-0.66 -0.21,-0.42 -1.96,-3.52 -1.96,-3.52 -0.06,-0.05 -0.06,-0.15 -0.06,-0.2 0.06,-0.83 0.53,-1.66 1.2,-2.48 -9.81,-19.51 -15.9,-41.23 -17.34,-64.09 1.44,-0.73 2.83,-1.3 4.16,-1.71 1.3,22.46 7.14,43.71 16.51,62.96 2.22,-1.49 5.13,-3.04 8.43,-4.48 -9.03,-18.38 -14.5,-38.81 -15.48,-60.29 1.81,-0.15 3.25,-0.05 4.28,0.06 0.98,20.9 6.4,40.71 15.17,58.57 5.48,-2.22 11.65,-4.28 17.76,-5.99 5.73,-1.65 11.61,-3.19 17.65,-4.54 0.5,1.46 1.08,2.89 1.7,4.29 -6.29,1.39 -12.38,2.94 -18.27,4.69 -0.36,0 -0.67,0.11 -0.98,0.21 -0.1,0 -0.1,0 -0.21,0.05 -0.31,0.16 -0.56,0.2 -0.93,0.31 -0.04,0 -0.1,0 -0.1,0.05 -0.3,0.05 -0.62,0.16 -0.93,0.26 0,0 -0.04,0.05 -0.1,0.05 -0.31,0.06 -0.63,0.16 -0.98,0.21 -0.05,0.1 -0.1,0.1 -0.16,0.1 -0.66,0.21 -1.34,0.42 -1.96,0.68 -0.05,0 -0.1,0 -0.16,0 -0.3,0.15 -0.68,0.2 -0.97,0.35 -0.05,0 -0.05,0 -0.05,0 -0.31,0.11 -0.68,0.21 -0.98,0.37l-0.05 0c-0.37,0.15 -0.68,0.21 -1.04,0.35l0 0c-0.73,0.27 -1.39,0.47 -2.06,0.73l-0.06 0c-1.7,0.67 -3.4,1.23 -4.95,1.97l0 0c-1.44,0.62 -2.73,1.13 -4.02,1.74l0 0c-0.16,0.05 -0.36,0.16 -0.57,0.26l-0.07 0c-0.15,0.06 -0.34,0.16 -0.55,0.26l0 0c-0.21,0.1 -0.41,0.21 -0.62,0.31l0 0c-0.98,0.46 -1.9,0.93 -2.79,1.4l0 0c-0.15,0.1 -0.31,0.2 -0.46,0.31 -0.05,0 -0.05,0 -0.05,0 -0.21,0.05 -0.31,0.14 -0.47,0.26l-0.05 0c-0.15,0.09 -0.3,0.2 -0.46,0.25l0 0c-0.83,0.52 -1.55,0.93 -2.24,1.39l0 0c-1.53,1.09 -2.71,2.12 -3.38,3.1 0,0.1 -0.08,0.16 -0.12,0.21 0,0.04 -0.04,0.1 -0.04,0.16l-0.05 0 0 0c-0.21,0.35 -0.57,0.97 -0.52,1.28 0.05,0.37 0.26,0.58 0.81,0.77zm7.24 10.49c-0.31,0.3 -0.93,1.38 0.45,2.26 -0.71,-0.2 -1.53,-0.61 -1.95,-1.29 -0.42,-0.72 -1.85,-2.99 -1.85,-2.99 0,-0.05 0,-0.16 0,-0.26 0.1,-0.61 0.41,-1.23 0.98,-1.86 0.05,-0.05 0.05,-0.15 0.1,-0.15 0,-0.05 0.05,-0.05 0.05,-0.05 0.77,-0.88 1.91,-1.86 3.35,-2.84 0.11,-0.05 0.19,-0.16 0.36,-0.26 0.04,0 0.04,0 0.04,0 0.17,-0.1 0.28,-0.21 0.38,-0.21 0,0 0,-0.05 0.05,-0.09 0.26,-0.16 0.55,-0.32 0.83,-0.52l0.05 0c0.15,-0.06 0.25,-0.16 0.41,-0.27l0.05 -0.05c0.16,-0.1 0.26,-0.2 0.42,-0.2l0.03 -0.05c0.33,-0.21 0.64,-0.41 1,-0.52 0.05,-0.05 0.05,-0.05 0.05,-0.05 0.16,-0.11 0.31,-0.15 0.47,-0.25 0.05,-0.06 0.05,-0.06 0.05,-0.06 0.65,-0.42 1.44,-0.82 2.27,-1.18l0 0c0.61,-0.26 1.24,-0.58 1.85,-0.94l0 0c1.24,-0.52 2.59,-1.08 4.01,-1.65 0.48,-0.21 1,-0.41 1.56,-0.67l0 0c0.27,-0.05 0.53,-0.21 0.78,-0.25 0,-0.06 0.05,-0.06 0.05,-0.06 0.57,-0.21 1.09,-0.41 1.66,-0.62l0.05 0c0.26,-0.1 0.51,-0.21 0.77,-0.26 0.06,-0.05 0.06,-0.05 0.16,-0.05 0.5,-0.2 1.08,-0.41 1.63,-0.62 0,0 0.07,0 0.16,0 0.22,-0.1 0.48,-0.2 0.73,-0.25 0.05,-0.06 0.13,-0.06 0.2,-0.06 0.58,-0.21 1.14,-0.41 1.72,-0.56 0.1,-0.06 0.14,-0.06 0.21,-0.11 0.24,-0.05 0.45,-0.2 0.71,-0.2 0.05,0 0.16,-0.05 0.21,-0.1 0.62,-0.11 1.18,-0.36 1.81,-0.52 0.11,-0.05 0.2,-0.05 0.25,-0.05 0.26,-0.05 0.46,-0.16 0.68,-0.26 0.09,0 0.2,0 0.31,0 0.31,-0.16 0.61,-0.21 0.93,-0.31 6.65,-1.9 13.14,-3.51 19.71,-4.95 0.77,1.44 1.55,2.88 2.37,4.28 -7.27,1.45 -14.24,3.19 -21.01,5.16 -10.47,2.84 -25.5,8.92 -29.1,13.94zm-26.99 -83.71l0 0c-0.31,0.35 -0.57,0.62 -0.83,0.97 -0.31,0.47 -1.34,1.76 -0.46,2.68 -0.37,-0.25 -1.19,-0.66 -1.19,-1.38l0 -4.55c0,0 0,-0.05 0.04,-0.1 0.27,-0.88 0.89,-1.76 1.77,-2.63 0.1,-0.1 0.21,-0.15 0.36,-0.36l0 0c1.09,-0.99 2.63,-2.07 4.44,-3.1 0.04,-0.06 0.1,-0.06 0.16,-0.1 0.1,-0.11 0.25,-0.15 0.41,-0.27 0.05,-0.04 0.1,-0.04 0.15,-0.1 0.15,-0.04 0.26,-0.09 0.4,-0.2 0,0 0.11,-0.05 0.17,-0.1 0.1,-0.06 0.25,-0.16 0.41,-0.16 0.05,-0.05 0.1,-0.1 0.16,-0.15 0.15,-0.06 0.3,-0.15 0.46,-0.21 0,-0.05 0.09,-0.1 0.16,-0.1 0.15,-0.11 0.31,-0.16 0.46,-0.26 0.06,0 0.1,0 0.15,0 0.41,-0.21 0.83,-0.41 1.27,-0.67 0.06,-0.05 0.18,-0.05 0.18,-0.11 0.21,-0.1 0.36,-0.15 0.52,-0.2 0.09,-0.06 0.15,-0.06 0.21,-0.1 0.15,-0.06 0.29,-0.16 0.45,-0.26 0.11,0 0.21,0 0.21,-0.06 0.21,-0.1 0.36,-0.14 0.52,-0.21 0.1,-0.05 0.15,-0.09 0.19,-0.09 0.22,-0.1 0.43,-0.21 0.63,-0.26 0.06,-0.05 0.11,-0.11 0.11,-0.11 0.51,-0.2 1.03,-0.41 1.54,-0.62 0,-0.04 0.05,-0.04 0.05,-0.04 1.61,-0.63 3.26,-1.3 5.01,-1.91 0.16,-0.11 0.35,-0.16 0.57,-0.26 0.11,-0.05 0.26,-0.05 0.36,-0.11 0.21,-0.1 0.42,-0.15 0.63,-0.25 0.14,-0.06 0.2,-0.06 0.35,-0.06 0.27,-0.15 0.57,-0.26 0.94,-0.35l0 0c0.35,-0.11 0.66,-0.26 1.02,-0.37 0.11,0 0.16,-0.05 0.26,-0.05 0.26,-0.15 0.52,-0.2 0.78,-0.31 0.1,-0.05 0.25,-0.1 0.35,-0.16 0.21,-0.05 0.42,-0.15 0.68,-0.21 0.09,-0.05 0.25,-0.09 0.41,-0.14 0.21,-0.06 0.41,-0.11 0.61,-0.21 0.17,-0.05 0.32,-0.05 0.42,-0.1 0.21,-0.06 0.47,-0.16 0.66,-0.21 0.17,-0.05 0.32,-0.1 0.43,-0.16 0.2,-0.05 0.41,-0.09 0.66,-0.2 0.11,-0.06 0.32,-0.11 0.47,-0.11 0.21,-0.1 0.41,-0.2 0.6,-0.2 0.21,-0.06 0.33,-0.16 0.49,-0.16 0.26,-0.05 0.46,-0.11 0.65,-0.15 0.17,-0.11 0.33,-0.11 0.49,-0.15 0.2,-0.06 0.4,-0.16 0.61,-0.27 0.19,0 0.36,-0.05 0.52,-0.09 0.2,-0.06 0.46,-0.11 0.67,-0.21 0.1,-0.05 0.31,-0.05 0.47,-0.16 0.2,-0.05 0.46,-0.1 0.67,-0.16 0.15,-0.05 0.35,-0.05 0.46,-0.1 0.25,-0.1 0.5,-0.2 0.71,-0.2 0.17,-0.05 0.37,-0.11 0.48,-0.16 0.25,-0.05 0.56,-0.1 0.82,-0.2 0.1,-0.06 0.26,-0.12 0.36,-0.12 0.35,-0.09 0.67,-0.2 0.93,-0.25 0.1,-0.05 0.21,-0.05 0.26,-0.05 0.42,-0.16 0.82,-0.25 1.23,-0.36 0.06,0 0.08,0 0.15,0 0.37,-0.1 0.74,-0.21 1.09,-0.26 0.11,-0.04 0.27,-0.11 0.43,-0.16 0.2,-0.04 0.5,-0.14 0.76,-0.2 0.21,-0.05 0.31,-0.1 0.47,-0.1 0.31,-0.05 0.55,-0.11 0.83,-0.26 0.14,0 0.3,0 0.46,-0.1 0.26,-0.06 0.51,-0.11 0.77,-0.16 0.21,-0.05 0.36,-0.1 0.52,-0.15 0.25,-0.06 0.46,-0.11 0.72,-0.15 0.21,-0.06 0.42,-0.11 0.55,-0.11 0.28,-0.05 0.54,-0.16 0.74,-0.21 0.21,-0.05 0.4,-0.05 0.55,-0.1 0.23,-0.05 0.49,-0.16 0.75,-0.16 0.18,-0.05 0.41,-0.1 0.56,-0.15 0.26,-0.11 0.51,-0.11 0.78,-0.16 0.2,-0.05 0.41,-0.1 0.56,-0.16 0.26,-0.04 0.51,-0.1 0.77,-0.15 0.16,-0.1 0.36,-0.1 0.57,-0.1 0.25,-0.1 0.46,-0.1 0.72,-0.21 0.21,0 0.37,0 0.54,-0.1 0.29,-0.05 0.54,-0.1 0.8,-0.16 0.21,-0.04 0.41,-0.09 0.56,-0.14 0.32,-0.06 0.58,-0.06 0.84,-0.16 0.16,0 0.36,-0.1 0.57,-0.1 0.25,-0.06 0.54,-0.11 0.88,-0.22 0.15,0 0.3,-0.04 0.46,-0.04 0.47,-0.11 0.88,-0.21 1.34,-0.26 1.81,-0.41 3.71,-0.72 5.58,-1.09l0 4.65c-1.66,0.37 -3.3,0.62 -4.91,0.93 -13.68,2.73 -28.28,6.6 -39.68,10.94l0 0c-1.45,0.57 -2.89,1.13 -4.24,1.7l0 0c-3.66,1.55 -6.91,3.15 -9.39,4.8l0 0c-1.39,0.88 -2.58,1.76 -3.56,2.68l0 0c-0.21,0.21 -0.46,0.42 -0.67,0.63zm336.59 -2.38c0,0.05 0,0.1 0,0.1l0 4.55c0,0.72 -0.78,1.13 -1.11,1.38 0.85,-0.92 -0.08,-2.21 -0.49,-2.68 -0.21,-0.35 -0.53,-0.62 -0.83,-0.97l0 0c-0.14,-0.11 -0.31,-0.32 -0.46,-0.47 0,-0.05 -0.05,-0.05 -0.11,-0.1l0 0c-0.22,-0.21 -0.47,-0.42 -0.67,-0.62 -0.88,-0.68 -1.91,-1.45 -2.99,-2.12l0 0c-2.53,-1.65 -5.68,-3.2 -9.29,-4.75l0 0c-0.32,-0.16 -0.62,-0.26 -0.93,-0.41 -0.98,-0.41 -2.01,-0.77 -3.05,-1.19 -0.1,-0.04 -0.3,-0.15 -0.3,-0.15 -11.41,-4.34 -26.06,-8.21 -39.69,-10.94 -1.67,-0.26 -3.25,-0.56 -4.85,-0.93l0 -4.65c1.86,0.37 3.66,0.68 5.52,1.09 0.41,0.05 0.88,0.15 1.34,0.26 0.16,0 0.26,0.04 0.42,0.04 0.29,0.11 0.62,0.16 0.92,0.22 0.16,0 0.37,0.1 0.5,0.1 0.33,0.1 0.59,0.1 0.9,0.16 0.15,0.05 0.34,0.1 0.51,0.14 0.27,0.06 0.52,0.11 0.76,0.16 0.22,0.1 0.38,0.1 0.59,0.1 0.26,0.11 0.5,0.11 0.7,0.21 0.28,0 0.43,0 0.59,0.1 0.29,0.05 0.5,0.11 0.77,0.15 0.21,0.06 0.41,0.11 0.57,0.16 0.24,0.05 0.51,0.05 0.77,0.16 0.16,0.05 0.4,0.1 0.58,0.15 0.24,0 0.5,0.06 0.71,0.16 0.21,0.05 0.41,0.05 0.56,0.1 0.27,0.05 0.53,0.16 0.7,0.21 0.2,0 0.39,0.05 0.6,0.11 0.26,0.04 0.47,0.09 0.72,0.15 0.21,0.05 0.36,0.1 0.52,0.15 0.26,0.05 0.52,0.1 0.78,0.2 0.15,0.06 0.35,0.06 0.46,0.06 0.29,0.15 0.61,0.21 0.87,0.26 0.16,0 0.31,0.05 0.42,0.1 0.36,0.11 0.67,0.16 1.02,0.32 0.06,0 0.16,0 0.2,0.04 0.43,0.05 0.84,0.16 1.26,0.26 0.04,0 0.1,0 0.15,0 0.36,0.16 0.67,0.2 1.03,0.31 0.16,0.05 0.26,0.1 0.37,0.1 0.3,0.1 0.56,0.16 0.81,0.25 0.16,0 0.32,0.06 0.43,0.12 0.26,0.1 0.5,0.15 0.76,0.15 0.16,0.1 0.31,0.16 0.47,0.21 0.19,0 0.47,0.1 0.72,0.2 0.16,0 0.25,0.05 0.46,0.1 0.21,0.06 0.47,0.11 0.68,0.16 0.15,0.05 0.32,0.11 0.46,0.16 0.21,0.1 0.46,0.15 0.67,0.21 0.16,0.04 0.32,0.09 0.47,0.09 0.19,0.11 0.46,0.21 0.66,0.27 0.16,0 0.32,0.04 0.46,0.1 0.27,0.05 0.48,0.15 0.68,0.2 0.16,0 0.32,0.1 0.39,0.16 0.28,0 0.49,0.1 0.75,0.2 0.15,0 0.31,0.05 0.4,0.11 0.27,0.11 0.52,0.15 0.73,0.2 0.11,0.06 0.26,0.11 0.37,0.16 0.26,0.05 0.51,0.15 0.77,0.26 0.06,0 0.15,0 0.29,0.05 0.28,0.1 0.58,0.15 0.9,0.3 0.05,0 0.05,0.05 0.14,0.05 0.68,0.21 1.39,0.48 2.08,0.73 0.05,0 0.1,0 0.15,0.05 0.32,0.1 0.57,0.21 0.88,0.26 0.1,0.11 0.15,0.11 0.25,0.15 0.21,0 0.46,0.16 0.72,0.26 0.11,0 0.21,0 0.32,0.06 0.2,0.1 0.41,0.15 0.62,0.25 0.15,0.06 0.26,0.06 0.35,0.11 0.19,0.1 0.42,0.15 0.63,0.26 1.65,0.57 3.25,1.18 4.74,1.8 0.1,0.06 0.21,0.11 0.31,0.15 0.16,0.06 0.31,0.1 0.47,0.16 0.1,0.05 0.21,0.1 0.31,0.15 0.16,0.11 0.33,0.16 0.51,0.27 0.11,0 0.11,0 0.21,0.04 0.2,0.11 0.47,0.21 0.68,0.32 0.04,0 0.13,0.05 0.25,0.09 0.1,0.05 0.31,0.12 0.47,0.21 0.05,0.05 0.15,0.11 0.2,0.11 0.2,0.05 0.3,0.15 0.45,0.2 0.07,0 0.17,0.1 0.28,0.1 0.16,0.06 0.25,0.16 0.41,0.21 0.04,0.05 0.15,0.05 0.25,0.11 0.15,0.1 0.26,0.15 0.37,0.26 0.1,0.05 0.15,0.05 0.26,0.05 0.15,0.1 0.36,0.2 0.44,0.25 0.06,0 0.12,0.06 0.17,0.06 0.2,0.1 0.41,0.2 0.62,0.3 0.05,0.06 0.1,0.06 0.21,0.11 0.11,0.05 0.26,0.15 0.36,0.2 0.1,0.06 0.15,0.11 0.26,0.16 0.1,0.05 0.2,0.11 0.31,0.15 0.05,0.06 0.2,0.11 0.23,0.16 0.13,0.05 0.24,0.11 0.33,0.16 0.11,0.04 0.16,0.1 0.21,0.1 0.16,0.1 0.26,0.16 0.31,0.2 0.11,0.05 0.16,0.11 0.26,0.15 1.81,1.04 3.31,2.12 4.44,3.11l0 0c0.1,0.15 0.26,0.26 0.31,0.31 0.98,0.88 1.6,1.85 1.86,2.73zm0 -14.4c0,0.05 0,0.05 0,0.1l0 4.34c0,0.56 -0.32,0.93 -0.88,1.08 0.67,-0.66 -0.16,-1.76 -0.93,-2.58l0 0c-0.17,-0.16 -0.32,-0.31 -0.42,-0.41 -0.14,-0.1 -0.2,-0.26 -0.34,-0.3 -1.04,-1.15 -2.54,-2.28 -4.25,-3.31l-0.05 0c-0.11,-0.11 -0.26,-0.2 -0.41,-0.31 0,0 -0.05,-0.05 -0.11,-0.05 -0.09,-0.06 -0.27,-0.16 -0.41,-0.21 -0.05,-0.06 -0.1,-0.06 -0.1,-0.06 -0.16,-0.09 -0.31,-0.19 -0.47,-0.25l-0.05 -0.05c-0.17,-0.1 -0.31,-0.16 -0.46,-0.25l-0.05 -0.06c-0.16,-0.05 -0.37,-0.2 -0.52,-0.31l-0.06 0c-0.2,-0.1 -0.37,-0.21 -0.51,-0.26l-0.05 -0.05c-0.2,-0.1 -0.36,-0.15 -0.51,-0.26 0,0 -0.05,0 -0.11,-0.05 -0.15,-0.05 -0.33,-0.16 -0.51,-0.26 -0.06,0 -0.06,-0.06 -0.1,-0.06 -0.15,-0.09 -0.36,-0.15 -0.59,-0.25l-0.04 -0.05c-0.17,-0.05 -0.35,-0.16 -0.51,-0.25l-0.05 0c-0.21,-0.11 -0.42,-0.21 -0.64,-0.32 0,0 -0.05,0 -0.09,0 -0.15,-0.09 -0.36,-0.21 -0.56,-0.3l-0.05 0c-0.21,-0.11 -0.42,-0.21 -0.62,-0.26l-0.05 0c-0.16,-0.16 -0.37,-0.21 -0.63,-0.37 0,0 -0.06,0 -0.06,-0.05 -0.2,0 -0.46,-0.1 -0.6,-0.2 -0.06,0 -0.06,-0.06 -0.06,-0.06 -1.65,-0.67 -3.41,-1.39 -5.21,-2.06l0 0c-0.36,-0.1 -0.74,-0.2 -1.03,-0.31 -0.05,-0.05 -0.05,-0.05 -0.11,-0.05 -0.3,-0.1 -0.68,-0.26 -0.97,-0.36 -0.06,0 -0.06,0 -0.06,-0.06 -0.36,-0.1 -0.71,-0.2 -1.08,-0.35l-0.05 0c-0.37,-0.11 -0.74,-0.27 -1.09,-0.41l-0.04 0c-0.32,-0.11 -0.7,-0.27 -1.09,-0.37l0 0c-0.37,-0.15 -0.71,-0.26 -1.09,-0.36 -0.05,0 -0.09,0 -0.09,0 -0.73,-0.25 -1.5,-0.51 -2.23,-0.78 -0.05,0 -0.1,0 -0.1,0 -0.41,-0.1 -0.78,-0.25 -1.08,-0.31 -0.06,-0.04 -0.11,-0.04 -0.11,-0.04 -0.36,-0.11 -0.77,-0.27 -1.13,-0.37l-0.06 0c-0.37,-0.1 -0.77,-0.2 -1.13,-0.36l-0.04 0c-0.43,-0.1 -0.78,-0.25 -1.15,-0.36 -0.05,0 -0.1,0 -0.15,0 -0.31,-0.15 -0.72,-0.21 -1.08,-0.36 0,0 -0.07,0 -0.11,0 -0.77,-0.2 -1.59,-0.52 -2.38,-0.72 -0.05,0 -0.05,0 -0.1,0 -0.35,-0.1 -0.72,-0.21 -1.13,-0.31 -0.05,0 -0.11,0 -0.11,0 -0.41,-0.16 -0.77,-0.21 -1.19,-0.36l-0.05 0c-0.35,-0.11 -0.82,-0.25 -1.23,-0.32l0 0c-0.42,-0.16 -0.78,-0.2 -1.24,-0.3 0,0 -0.05,0 -0.05,-0.05 -0.43,-0.06 -0.78,-0.21 -1.19,-0.31 -0.05,0 -0.05,0 -0.12,0 -0.4,-0.11 -0.8,-0.21 -1.17,-0.26l-0.07 -0.05c-0.39,-0.11 -0.81,-0.21 -1.22,-0.26 -0.05,-0.05 -0.05,-0.05 -0.05,-0.05 -0.42,-0.05 -0.78,-0.16 -1.19,-0.31 -0.05,0 -0.11,0 -0.11,0 -0.4,-0.11 -0.78,-0.21 -1.18,-0.26 -0.05,0 -0.11,0 -0.11,0 -0.42,-0.11 -0.82,-0.21 -1.23,-0.31l-0.05 0c-0.38,-0.11 -0.78,-0.16 -1.18,-0.26 -0.06,0 -0.13,-0.06 -0.13,-0.06 -0.34,-0.04 -0.76,-0.15 -1.11,-0.25 0,0 -0.11,-0.05 -0.18,-0.05 -0.39,-0.06 -0.76,-0.16 -1.12,-0.2l-0.05 0c-0.47,-0.11 -0.88,-0.21 -1.29,-0.26l-0.05 0c-0.42,-0.16 -0.79,-0.21 -1.19,-0.27 -0.05,0 -0.1,0 -0.1,-0.04 -0.43,-0.11 -0.78,-0.16 -1.19,-0.21l-0.05 0c-0.43,-0.1 -0.82,-0.16 -1.24,-0.26 -1.5,-0.31 -3.04,-0.57 -4.59,-0.83l0 -4.69c1.86,0.31 3.66,0.67 5.47,1.03 14.3,2.74 27.36,6.24 37.57,10.02 -2.21,-16 -7.02,-31.18 -13.88,-45.06l0 0c-1.5,-3 -3.09,-5.99 -4.75,-8.93 -0.05,0 -0.05,-0.05 -0.05,-0.05 -0.1,-0.05 -0.16,-0.25 -0.21,-0.36 0.77,0 2.53,-0.1 4.9,-0.05 9.6,16.97 16.05,35.97 18.59,56.14 3.87,1.55 7.25,3.16 9.95,4.7 -1.91,-21.41 -7.95,-41.6 -17.34,-59.81 1.81,0.31 3.65,0.72 5.53,1.24 0,-0.05 0,-0.05 0,-0.05 0.2,0.51 0.46,0.97 0.67,1.49l0 0c8.81,18.48 14.29,38.81 15.68,60.23 1.4,1.13 2.32,2.28 2.64,3.3zm-2.57 19.05c-0.07,0.77 -0.07,1.54 -0.17,2.32l0 0c-1.7,21.62 -7.49,42.05 -16.62,60.59 1.08,2.32 1.34,4.17 0.62,5.67 0,0 -1.39,2.02 -2.06,3.1 -0.67,0.98 -0.93,1.44 -2.08,1.6 0.79,-0.21 2.13,-1.86 1.56,-4.44l0 0c-0.05,-0.36 -0.2,-0.82 -0.36,-1.29l-0.05 0 0 0c-0.26,-0.67 -0.62,-1.4 -1.19,-2.12 -1.13,-1.8 -2.67,-3.77 -4.43,-5.83l-0.06 0c-0.12,-0.2 -0.26,-0.31 -0.35,-0.46 0,0 0,0 -0.06,0 -0.16,-0.26 -0.26,-0.42 -0.41,-0.56l0 -0.07c-2.01,-2.16 -4.24,-4.49 -6.81,-6.91 0,-0.05 -0.06,-0.05 -0.12,-0.05 -0.19,-0.26 -0.45,-0.47 -0.66,-0.72 -0.05,0 -0.05,0 -0.05,0 -0.78,-0.78 -1.59,-1.5 -2.44,-2.27 -0.04,-0.05 -0.09,-0.05 -0.09,-0.1 -0.26,-0.21 -0.51,-0.47 -0.72,-0.68 -0.05,-0.04 -0.11,-0.04 -0.11,-0.04 -0.82,-0.78 -1.75,-1.56 -2.62,-2.33 -0.06,-0.05 -0.06,-0.1 -0.06,-0.15 -0.3,-0.21 -0.57,-0.46 -0.83,-0.68 -0.05,0 -0.11,-0.09 -0.11,-0.09 -0.92,-0.79 -1.84,-1.56 -2.77,-2.33 -0.06,-0.05 -0.1,-0.11 -0.16,-0.16 -0.22,-0.2 -0.51,-0.45 -0.77,-0.61 -0.05,-0.05 -0.11,-0.11 -0.16,-0.16 -0.31,-0.25 -0.58,-0.46 -0.93,-0.72 0,-0.05 0,-0.05 0,-0.05 -0.67,-0.52 -1.29,-1.09 -1.91,-1.61 -0.1,-0.05 -0.15,-0.1 -0.2,-0.15 -0.31,-0.2 -0.57,-0.41 -0.84,-0.62 -0.07,-0.1 -0.15,-0.15 -0.2,-0.15 -0.25,-0.26 -0.57,-0.52 -0.89,-0.73 0,0 -0.05,-0.05 -0.08,-0.1 -0.32,-0.25 -0.68,-0.57 -1.05,-0.83l0 0c-0.3,-0.25 -0.61,-0.51 -0.91,-0.72 -0.11,-0.1 -0.24,-0.15 -0.26,-0.25 -0.27,-0.15 -0.51,-0.37 -0.78,-0.62 -0.07,0 -0.15,-0.11 -0.26,-0.16 -0.26,-0.2 -0.52,-0.41 -0.83,-0.67 -0.05,-0.1 -0.15,-0.1 -0.22,-0.16 -0.34,-0.25 -0.7,-0.51 -1.02,-0.77 0,-0.05 0,-0.05 -0.04,-0.05 -0.31,-0.26 -0.62,-0.51 -1,-0.83 -0.04,-0.05 -0.15,-0.15 -0.3,-0.21 -0.2,-0.15 -0.46,-0.4 -0.71,-0.56 -0.11,-0.05 -0.23,-0.15 -0.32,-0.26 -0.26,-0.2 -0.52,-0.35 -0.78,-0.56 -0.04,-0.11 -0.14,-0.16 -0.26,-0.21 -0.35,-0.26 -0.7,-0.57 -1.02,-0.82 -0.07,0 -0.07,-0.06 -0.1,-0.12 -0.32,-0.2 -0.62,-0.46 -0.99,-0.66 -0.05,-0.05 -0.2,-0.21 -0.26,-0.26 -0.25,-0.21 -0.51,-0.36 -0.78,-0.57 -0.09,-0.1 -0.24,-0.15 -0.35,-0.25 -0.25,-0.16 -0.52,-0.37 -0.73,-0.58 -0.09,-0.1 -0.25,-0.15 -0.35,-0.26 -0.36,-0.25 -0.73,-0.46 -1.03,-0.82 0.3,-1.8 0.56,-3.61 0.72,-5.52 13.57,9.96 25.08,19.25 33.28,27.09 5.16,-12.07 8.73,-25.02 10.53,-38.5l0 0c0.06,-0.25 0.11,-0.61 0.11,-0.82l0 -0.05c0.1,-0.62 0.15,-1.14 0.26,-1.7 0,-0.11 0,-0.21 0,-0.32 0.04,-0.46 0.09,-0.97 0.15,-1.49 0.05,-0.2 0.05,-0.52 0.1,-0.78 0.03,-0.35 0.03,-0.78 0.09,-1.13 0,-0.36 0.07,-0.67 0.12,-1.04 0,-0.19 0,-0.46 0,-0.66 0.05,-0.31 0.11,-0.62 0.11,-0.98 0,-0.26 0.04,-0.57 0.04,-0.83 0,-0.26 0.05,-0.52 0.05,-0.77 0.06,-0.63 0.11,-1.24 0.16,-1.92 1.03,-0.05 2.48,-0.15 4.28,0 -0.87,19.15 -5.36,37.53 -12.69,54.24 2.79,2.84 5.06,5.43 6.76,7.75 8.72,-18.43 14.04,-38.81 15.22,-60.23 1.39,0.41 2.79,1.03 4.25,1.76zm-35.74 92.88c-0.35,0.52 -0.76,0.99 -1.17,1.45l-0.06 0.06c-0.31,0.41 -0.66,0.88 -1.03,1.34 -28.8,34.75 -71.42,57.77 -119.47,60.39l0 2.58c0,0.15 -0.05,0.26 -0.15,0.36 -0.05,0 -0.16,0.16 -0.37,0.16l-3.56 0c-0.25,0 -0.41,-0.26 -0.41,-0.52l0 -45.07c1.55,0 3,-0.09 4.49,-0.25l0 24.68c37.16,-2.42 70.66,-18.34 95.52,-42.95l0 0c0.06,-0.05 0.11,-0.1 0.22,-0.16 0.3,-0.36 0.65,-0.72 1.03,-1.08 0.05,-0.05 0.1,-0.05 0.1,-0.1 3.04,-3.1 5.97,-6.3 8.78,-9.71 1.54,0.41 3.03,0.93 4.43,1.4 -26.32,32.61 -65.64,54.2 -110.08,56.88l0 9.55c48.05,-2.78 90.52,-26.32 118.54,-61.89 1.6,1.24 2.7,2.27 3.19,2.88zm4.76 -4.28c0.25,1.04 0.16,1.96 -0.36,2.54 0,0 -1.34,2.26 -1.86,2.98 -0.47,0.73 -1.34,1.71 -2.89,1.81 0.35,-0.2 3.05,-0.41 1.5,-4.49l0 0c-0.1,-0.41 -0.3,-0.82 -0.52,-1.24 -0.41,-0.82 -0.98,-1.75 -1.8,-2.89l0.05 0c-1.5,-1.9 -3.67,-4.38 -6.46,-7.12l0 0c-0.98,-0.98 -2,-1.96 -3.14,-2.99l0 0c-6.45,-5.99 -15.38,-13.37 -26.58,-21.83 0.72,-1.39 1.39,-2.89 2.06,-4.33l0 0c13.17,9.81 23.95,18.57 31.02,25.49l0 0c0.56,0.51 1.09,1.08 1.55,1.6 0.05,0.05 0.11,0.05 0.11,0.1 0.1,0.16 0.3,0.26 0.4,0.42 0.06,0.05 0.06,0.05 0.11,0.09 0.1,0.11 0.25,0.22 0.36,0.42 0.05,0 0.1,0.05 0.1,0.05 0.11,0.16 0.26,0.31 0.36,0.42 0.06,0 0.06,0.05 0.11,0.1 0.1,0.15 0.26,0.26 0.31,0.36 0.05,0.05 0.1,0.1 0.1,0.16 0.15,0.1 0.26,0.2 0.36,0.36 0,0 0.05,0.05 0.1,0.05 0.16,0.15 0.25,0.3 0.37,0.46 0,0 0,0 0,0.05 0.31,0.32 0.56,0.57 0.74,0.82l0.06 0.12c0.13,0.15 0.23,0.25 0.38,0.4 0,0.06 0,0.06 0.05,0.06 0.1,0.15 0.16,0.25 0.27,0.36 0.04,0.05 0.04,0.1 0.1,0.16 1.18,1.59 2.05,2.94 2.58,4.18 0,0.04 0.05,0.15 0.1,0.25 0,0.06 0.06,0.06 0.06,0.06 0,0.1 0.04,0.15 0.04,0.2 0.05,0.05 0.05,0.16 0.05,0.16 0.12,0.25 0.16,0.46 0.21,0.66zm-145.22 -252.72l0 -16.62c0,-0.25 0.21,-0.41 0.41,-0.41l3.67 0c0.25,0 0.35,0.16 0.35,0.41l0 50.32 -4.43 -0.05 0 -33.65zm-160.3 149.51l0 -4.34c0,-0.05 0,-0.05 0.04,-0.1 0.33,-1.02 1.25,-2.17 2.65,-3.3 1.18,-17.81 5.15,-34.83 11.51,-50.73 0.04,-0.06 0.07,-0.16 0.07,-0.26 0.13,-0.15 0.18,-0.31 0.29,-0.52 0.1,-0.3 0.2,-0.56 0.36,-0.87l0 -0.05c0.2,-0.52 0.46,-1.14 0.7,-1.7 0.07,-0.16 0.12,-0.31 0.23,-0.42 0.71,0.21 2.22,0.61 4.01,1.39 -6.7,15.59 -11.09,32.42 -12.58,50.06 2.67,-1.54 6.09,-3.15 9.96,-4.7 1.8,-14.08 5.42,-27.55 10.73,-40.14 1.14,1.03 2.22,2.21 3.26,3.46 -0.93,2.21 -1.76,4.43 -2.6,6.75 0,0.06 -0.04,0.16 -0.09,0.26 -3.09,8.98 -5.38,18.32 -6.71,27.92 10.22,-3.72 23.27,-7.22 37.52,-9.96 1.81,-0.41 3.71,-0.72 5.58,-1.03l0 4.64c-1.6,0.31 -3.15,0.57 -4.7,0.88 -0.41,0.1 -0.78,0.16 -1.24,0.26l-0.06 0c-0.41,0.05 -0.76,0.1 -1.12,0.21 -0.06,0.04 -0.11,0.04 -0.16,0.04 -0.44,0.06 -0.77,0.11 -1.14,0.27l-0.1 0c-0.41,0.05 -0.83,0.15 -1.24,0.26l-0.06 0c-0.41,0.04 -0.77,0.14 -1.21,0.2 -0.02,0 -0.02,0.05 -0.07,0.05 -0.36,0.1 -0.83,0.21 -1.14,0.25 -0.05,0 -0.09,0.06 -0.16,0.06 -0.35,0.1 -0.78,0.15 -1.17,0.26 0,0 0,0 -0.06,0 -0.36,0.1 -0.83,0.2 -1.24,0.31l-0.05 0c-0.43,0.05 -0.83,0.15 -1.19,0.26l-0.1 0c-0.41,0.1 -0.77,0.26 -1.19,0.31 -0.05,0 -0.05,0 -0.05,0 -0.46,0.1 -0.87,0.2 -1.29,0.31l0 0c-0.41,0.1 -0.77,0.2 -1.24,0.31 0,0 0,0 -0.05,0 -0.42,0.1 -0.77,0.25 -1.14,0.31 -0.05,0.05 -0.1,0.05 -0.1,0.05 -0.41,0.1 -0.83,0.14 -1.24,0.3l0 0c-0.41,0.07 -0.82,0.21 -1.23,0.32l-0.06 0c-0.44,0.1 -0.77,0.2 -1.18,0.36 0,0 -0.05,0 -0.11,0 -0.36,0.05 -0.72,0.21 -1.13,0.31 -0.05,0 -0.05,0 -0.05,0 -0.83,0.2 -1.65,0.52 -2.48,0.72l0 0c-0.41,0.15 -0.82,0.21 -1.19,0.36l-0.04 0c-0.42,0.11 -0.79,0.26 -1.2,0.36 0,0 0,0 -0.05,0 -0.36,0.16 -0.77,0.26 -1.14,0.36l0 0c-0.42,0.1 -0.82,0.26 -1.18,0.37l-0.05 0c-0.41,0.1 -0.78,0.25 -1.14,0.35 -0.04,0 -0.04,0 -0.04,0 -0.78,0.27 -1.56,0.47 -2.28,0.78l-0.05 0c-0.42,0.1 -0.72,0.21 -1.14,0.36l-0.06 0c-0.35,0.1 -0.66,0.26 -1.02,0.37 -0.07,0 -0.07,0 -0.07,0 -0.7,0.3 -1.48,0.5 -2.22,0.76 0,0.06 -0.03,0.06 -0.03,0.06 -0.31,0.1 -0.67,0.2 -0.99,0.3 -0.06,0.06 -0.06,0.06 -0.06,0.06 -0.35,0.1 -0.71,0.26 -1.02,0.36l0 0c-1.6,0.57 -3.04,1.13 -4.5,1.81l0 0c-0.2,0.05 -0.4,0.16 -0.66,0.25 0,0 -0.05,0 -0.1,0.06 -0.21,0.05 -0.42,0.2 -0.57,0.2 -0.05,0 -0.11,0.05 -0.11,0.05 -0.46,0.21 -0.87,0.42 -1.28,0.63l-0.05 0c-0.21,0.09 -0.42,0.21 -0.69,0.3 0,0 0,0 -0.04,0 -0.21,0.11 -0.41,0.21 -0.62,0.32l0 0c-0.2,0.09 -0.42,0.2 -0.62,0.3l0 0c-0.21,0.1 -0.41,0.21 -0.56,0.25l-0.1 0.06c-0.16,0.1 -0.42,0.21 -0.57,0.31l-0.06 0c-0.35,0.21 -0.78,0.41 -1.13,0.57l-0.05 0c-0.16,0.11 -0.36,0.26 -0.52,0.37l-0.05 0c-0.36,0.2 -0.72,0.4 -1.03,0.61l0 0c-0.23,0.05 -0.36,0.21 -0.52,0.26 -0.05,0 -0.05,0 -0.05,0 -0.15,0.15 -0.31,0.2 -0.53,0.37l0 0c-1.64,1.07 -3.13,2.1 -4.16,3.25 -0.11,0.04 -0.16,0.14 -0.27,0.25l0 0c-0.92,0.93 -2.27,2.17 -1.49,3.04 -0.47,-0.15 -0.88,-0.52 -0.88,-1.08zm160.14 -163.33c-0.26,0.04 -0.54,0.1 -0.72,0.1 0.18,-0.06 0.51,-0.06 0.72,-0.1zm156.37 86.43c1.63,0.83 2.83,1.6 3.41,2.28 0,0 2.02,3.45 2.47,4.28 0.47,0.82 -0.1,1.85 -1.18,2.22 0.62,-0.21 1.29,-0.98 -0.42,-2.02 -0.46,-0.25 -0.98,-0.51 -1.45,-0.77l0 0c-0.09,-0.05 -0.14,-0.1 -0.2,-0.1 -4.59,-2.38 -11.24,-4.75 -19.68,-7.23l0 0.05c-2,-0.57 -4.06,-1.13 -6.28,-1.7l0 -0.05c-5.72,-1.45 -12.07,-2.94 -18.88,-4.39l0 -4.59c0.82,0.15 1.69,0.36 2.48,0.57 0.05,0 0.1,0 0.15,0 0.2,0.05 0.46,0.1 0.67,0.15 0.1,0 0.16,0.06 0.27,0.11 0.14,0 0.4,0.04 0.61,0.04 0.02,0.06 0.15,0.06 0.21,0.06 0.25,0.1 0.46,0.1 0.66,0.15 0.11,0 0.16,0.06 0.26,0.06 0.21,0.04 0.42,0.1 0.57,0.15 0.15,0 0.21,0.05 0.36,0.05 0.16,0.05 0.36,0.11 0.57,0.15 0.1,0 0.26,0 0.36,0.06 0.16,0.05 0.33,0.1 0.51,0.1 0.26,0.11 0.58,0.16 0.84,0.26 0.05,0 0.13,0 0.18,0.06 0.28,0 0.48,0.05 0.74,0.1 0.05,0.04 0.16,0.04 0.26,0.09 0.21,0.06 0.41,0.06 0.62,0.11 0.1,0.05 0.16,0.1 0.27,0.1 0.2,0.06 0.4,0.06 0.61,0.11 0.1,0.05 0.15,0.05 0.26,0.1 0.2,0.05 0.4,0.1 0.61,0.15 0.09,0 0.16,0 0.22,0.06 0.25,0.05 0.46,0.1 0.72,0.15 0.03,0 0.08,0 0.15,0.06 0.25,0.04 0.52,0.1 0.77,0.15 0,0 0.05,0 0.1,0 0.26,0.16 0.57,0.21 0.88,0.26 2.22,0.57 4.44,1.13 6.56,1.7 0.31,0.1 0.67,0.15 0.93,0.26l0 0c0.66,0.16 1.33,0.31 1.96,0.51l0 0c0.98,0.32 1.85,0.52 2.78,0.77l0 0c3,0.94 5.72,1.86 8.21,2.68l0 0c2.59,0.94 4.81,1.71 6.5,2.59 0.11,0.05 0.15,0.05 0.31,0.1l0.05 0zm-141.97 -86.59l0 -2.64c0,-0.1 0.06,-0.25 0.16,-0.3 0,0 0.1,-0.11 0.25,-0.11l3.56 0c0.32,0 0.47,0.16 0.47,0.41l0 2.8c52.9,2.99 99.19,30.49 127.72,71.26 2.07,0.98 3.78,1.96 5.08,2.99 0.04,0 0.09,0 0.14,0.06 0,0 2.58,4.33 3.3,5.26 0.62,0.83 0.11,1.91 -0.72,2.32 0.55,-0.41 0.83,-0.92 -0.83,-2.32 -0.51,-0.41 -1.09,-0.87 -1.69,-1.24l0 0c-0.16,-0.1 -0.26,-0.15 -0.38,-0.26l0 0c-0.2,-0.1 -0.29,-0.2 -0.51,-0.3l0 0c-2.16,-1.29 -4.81,-2.53 -7.74,-3.77l0 0c-0.3,-0.16 -0.58,-0.21 -0.82,-0.36 -0.05,0 -0.05,-0.06 -0.11,-0.06 -0.25,-0.1 -0.51,-0.2 -0.81,-0.3 0,0 -0.06,-0.06 -0.12,-0.06 -0.25,-0.1 -0.51,-0.2 -0.82,-0.3l0 0c-0.3,-0.06 -0.56,-0.21 -0.88,-0.32 -0.05,0 -0.11,-0.05 -0.15,-0.05 -0.26,-0.11 -0.57,-0.15 -0.88,-0.31l0 0c-0.26,-0.1 -0.56,-0.26 -0.87,-0.3 0,0 -0.06,-0.06 -0.11,-0.06 -0.32,-0.1 -0.62,-0.15 -0.89,-0.31 -0.03,-0.05 -0.09,-0.05 -0.14,-0.1 -0.62,-0.16 -1.24,-0.37 -1.87,-0.57 -0.04,0 -0.09,0 -0.15,-0.05 -0.25,-0.06 -0.62,-0.15 -0.92,-0.31l-0.06 0c-0.3,-0.1 -0.68,-0.21 -0.92,-0.31l-0.05 0c-0.37,-0.11 -0.68,-0.21 -1,-0.31 -0.07,-0.05 -0.09,-0.05 -0.14,-0.05 -0.31,-0.05 -0.67,-0.21 -0.98,-0.27l0 0c-0.36,-0.09 -0.68,-0.19 -0.98,-0.35 -0.07,0 -0.12,0 -0.12,0 -0.35,-0.11 -0.7,-0.2 -1.02,-0.26 -0.06,-0.05 -0.06,-0.05 -0.13,-0.05 -2.76,-0.83 -5.54,-1.6 -8.43,-2.27l0 0c-0.47,-0.1 -0.94,-0.26 -1.48,-0.31l0 0c-0.44,-0.15 -0.9,-0.26 -1.37,-0.41l0 0c-0.46,-0.05 -0.93,-0.16 -1.39,-0.26 0,0 0,0 -0.05,0 -0.49,-0.16 -0.92,-0.26 -1.35,-0.36l-0.04 0 0 -10.58c2.73,2.58 5.31,5.21 7.84,7.9 6.27,1.65 11.97,3.45 16.78,5.21 -27.98,-36.44 -71.12,-60.65 -119.94,-63.44l0 9.4c32.92,2.01 62.96,14.35 87.06,33.8l-7.02 0c-22.6,-16.86 -50.11,-27.61 -80.04,-29.41l0 29.31 -4.44 0 0 -47.68zm-110.85 272.29c23.99,24.2 56.25,40.21 92.17,43.51l0.66 4.39c-45.77,-3.77 -85.88,-27.83 -111.38,-63.04 2.81,-0.09 4.82,0.16 5.6,0.26 3.92,5.12 8.09,9.97 12.59,14.56 0.15,0.16 0.25,0.21 0.36,0.32l0 0zm-50.63 -169.18c-0.31,-1.3 -0.06,-2.58 0.15,-2.84l2.12 -3.97c0.05,-0.11 0.05,-0.16 0.05,-0.16 0.67,-0.46 1.6,-0.72 2.84,-0.83 0,0 0.05,0 0.1,0 0.05,0 0.11,0 0.16,0l0 0c0.3,-0.05 0.62,-0.1 0.93,-0.1 1.09,0 2.32,0.16 3.7,0.31l0 0c2.7,0.47 5.9,1.13 9.56,2.28 1.29,0.35 2.69,0.82 4.13,1.28l0 0c0.52,0.11 0.98,0.31 1.5,0.47l0 0c0.24,0.05 0.51,0.15 0.77,0.26l0 0c0.26,0.05 0.51,0.2 0.73,0.26l0 0c0.25,0.05 0.51,0.2 0.77,0.2 0.04,0.05 0.04,0.05 0.04,0.05 0.26,0.11 0.52,0.21 0.73,0.26l0.05 0c0.26,0.1 0.51,0.21 0.73,0.31l0.04 0c0.26,0.1 0.53,0.16 0.76,0.25 0,0.06 0.07,0.06 0.07,0.06 0.26,0.05 0.52,0.21 0.77,0.26l0.06 0c0.24,0.16 0.52,0.25 0.77,0.31l0.05 0c0.26,0.15 0.5,0.2 0.78,0.31 0,0 0,0.05 0.05,0.05 0.25,0.05 0.52,0.16 0.72,0.26 0.05,0 0.05,0 0.09,0 0.27,0.15 0.53,0.2 0.74,0.36 0.05,0 0.1,0 0.15,0.05 0.19,0.05 0.47,0.11 0.73,0.21 0.05,0.05 0.05,0.1 0.1,0.1 0.25,0.05 0.5,0.21 0.72,0.21 0.05,0.05 0.1,0.05 0.16,0.1 0.26,0.1 0.46,0.15 0.7,0.26 0.07,0.05 0.13,0.05 0.16,0.1 0.27,0.11 0.48,0.16 0.73,0.26 0.11,0 0.13,0.05 0.2,0.05 0.27,0.15 0.48,0.21 0.69,0.31 0.04,0.05 0.15,0.05 0.2,0.05 0.25,0.11 0.47,0.2 0.67,0.25 0.1,0.06 0.16,0.11 0.26,0.11 0.2,0.15 0.4,0.21 0.67,0.26 0.04,0.05 0.1,0.1 0.2,0.1 0.27,0.11 0.47,0.26 0.73,0.31 0.05,0.06 0.1,0.11 0.2,0.11 0.21,0.05 0.47,0.15 0.67,0.26 0.06,0.04 0.15,0.1 0.27,0.1 0.21,0.1 0.4,0.16 0.61,0.25 0.1,0.06 0.2,0.1 0.29,0.16 0.22,0.05 0.44,0.15 0.64,0.26 0.15,0 0.21,0.05 0.36,0.1 0.21,0.11 0.42,0.21 0.62,0.27 0.1,0.04 0.21,0.1 0.31,0.14 0.21,0.12 0.42,0.16 0.62,0.26 0.11,0.06 0.21,0.1 0.31,0.21 0.21,0.05 0.46,0.15 0.62,0.21 0.11,0.04 0.25,0.16 0.36,0.16 0.21,0.09 0.42,0.2 0.61,0.25 0.11,0.1 0.21,0.15 0.37,0.21 0.16,0.05 0.37,0.15 0.57,0.26 0.14,0 0.26,0.09 0.41,0.15 0.21,0.05 0.42,0.16 0.57,0.25 0.16,0.06 0.29,0.06 0.41,0.16 0.26,0.1 0.46,0.15 0.72,0.31 0.11,0.05 0.16,0.05 0.25,0.16 0.37,0.14 0.68,0.3 1.05,0.35l0 4.96c-11.73,-5.22 -21.89,-9.29 -30.14,-11.92l0 0c-1.4,-0.52 -2.81,-0.93 -4.13,-1.3l0.05 0c-3.72,-1.08 -6.97,-1.74 -9.55,-2.11 -0.15,0 -0.28,0 -0.41,-0.05 0,0 0,0 -0.05,0 -0.11,0 -0.26,-0.05 -0.36,-0.05 -0.06,0 -0.06,0 -0.06,0 -0.15,0 -0.27,0 -0.35,0 -0.07,0 -0.11,0 -0.11,-0.05 -0.1,0 -0.21,0 -0.26,0 -0.1,0 -0.1,0 -0.21,0 -0.04,0 -0.15,0 -0.25,-0.06 0,0 -0.11,0 -0.17,0 -0.04,0 -0.09,0 -0.21,0 -0.09,0 -0.14,0 -0.19,0 -0.1,0 -0.16,0 -0.16,0 -0.15,0 -0.26,0 -0.41,0 -0.46,0 -0.98,0 -1.45,0.06l0 0c-1.59,0.15 -2.99,0.88 -3.45,3.56zm142.85 -84.48c-28.23,2.53 -54.14,12.95 -75.6,29l-6.98 0c23.18,-18.73 51.83,-30.76 83.19,-33.38l-0.61 4.38zm-117.67 52.02c0.1,0.05 0.16,0.05 0.21,0.05 -0.05,0 -0.11,0 -0.21,-0.05l0 0zm-9.75 4.44l0 0c0,0 0.05,0 0.1,-0.06 0.04,0 0.09,0 0.16,0 0.05,-0.1 0.09,-0.1 0.2,-0.1l0.06 0c0.05,0 0.15,0 0.15,0 0.05,-0.05 0.1,-0.05 0.1,-0.05 0.05,0 0.15,0 0.21,-0.05l0.05 0c0.2,0 0.4,-0.05 0.63,-0.11l0 0c0.7,-0.1 1.54,-0.15 2.47,-0.15l0.31 0c0.72,0 1.55,0.05 2.43,0.1l0 0c0.15,0.05 0.35,0.05 0.51,0.11 0,0 0,0 0.05,0.05 0.52,0.05 1.09,0.1 1.65,0.2l0 0c0.21,0 0.36,0.06 0.62,0.11l0 0c0.56,0.1 1.19,0.26 1.8,0.3l0 0c0.21,0.06 0.42,0.11 0.62,0.16l0.06 0c0.62,0.15 1.29,0.31 1.96,0.46l0 0c2.22,0.53 4.65,1.24 7.23,2.07l0 0c0.2,0.06 0.46,0.16 0.72,0.21 0.09,0.05 0.16,0.05 0.21,0.05 0.26,0.1 0.46,0.21 0.72,0.26 0.05,0.05 0.1,0.05 0.15,0.1 0.77,0.2 1.54,0.52 2.24,0.77 0.19,0.06 0.29,0.06 0.44,0.1 0.21,0.06 0.42,0.16 0.62,0.21 0.15,0.06 0.27,0.11 0.41,0.21 0.21,0 0.42,0.1 0.63,0.21 0.31,0.1 0.67,0.2 0.98,0.31 0.15,0.1 0.36,0.15 0.52,0.21 0.2,0.05 0.41,0.15 0.56,0.2 0.21,0.05 0.35,0.16 0.56,0.2 0.21,0.05 0.43,0.16 0.62,0.27 0.21,0 0.32,0.1 0.48,0.15 0.35,0.16 0.77,0.3 1.13,0.46 0.1,0.05 0.15,0.11 0.26,0.11 0.31,0.15 0.61,0.2 0.93,0.36 0.1,0.05 0.21,0.1 0.42,0.15 0.24,0.1 0.55,0.21 0.87,0.31 0.1,0.1 0.2,0.1 0.36,0.16 0.34,0.15 0.82,0.36 1.18,0.51l0 -9.49c-1.39,0.31 -2.78,0.56 -4.12,0.87 -1.19,0.26 -2.43,0.57 -3.62,0.83l0 0c-0.36,-0.11 -0.72,-0.26 -1.09,-0.36 -0.15,-0.06 -0.35,-0.1 -0.51,-0.15 -0.16,-0.11 -0.36,-0.16 -0.51,-0.21 -0.16,-0.05 -0.36,-0.11 -0.62,-0.21 -0.11,-0.05 -0.21,-0.1 -0.36,-0.1 -0.21,-0.16 -0.41,-0.16 -0.62,-0.26 -0.16,-0.05 -0.26,-0.1 -0.42,-0.1 -2.73,-0.93 -5.31,-1.71 -7.69,-2.37 0,0 -0.05,0 -0.12,0 -0.18,0 -0.39,-0.06 -0.6,-0.16 -0.11,0 -0.11,0 -0.16,-0.05 -0.21,0 -0.43,-0.05 -0.67,-0.11 0,0 0,-0.05 -0.05,-0.05 -0.25,-0.1 -0.51,-0.1 -0.72,-0.16l0 0c-0.07,0 -0.07,0 -0.1,-0.04 0.03,0.04 0.03,0.04 0.1,0.04 0.31,-0.1 0.62,-0.19 0.93,-0.31 0.05,0 0.05,-0.04 0.05,-0.04 0.37,-0.11 0.67,-0.21 0.98,-0.27 0,0 0.06,-0.05 0.11,-0.05 0.36,-0.15 0.66,-0.25 1.03,-0.36l0 0c0.72,-0.2 1.39,-0.41 2.16,-0.62l0 -0.05c0.37,-0.11 0.73,-0.16 1.09,-0.3l0.06 0c4.69,-1.39 9.84,-2.74 15.47,-3.98l0 -4.64c0,0 -0.05,0 -0.1,0.05 0.05,-0.05 0.1,-0.05 0.1,-0.11l0 -5.93c-2.73,2.58 -5.42,5.26 -7.95,7.94 -6.4,1.71 -12.07,3.47 -16.87,5.32 27.56,-35.97 69.88,-60.17 117.87,-63.57l0.66 -4.34c-51.76,3.3 -97.06,30.19 -125.39,70.03 -2.4,0.1 -4.13,0.61 -5.32,1.44 0,0.11 0,0.16 -0.05,0.16l-2.44 4.39c-0.06,0.05 -0.4,1.13 -0.19,2.11 0.19,-1.5 1.13,-2.73 3.3,-3.35z"/>
  <path class="fil7" d="M109.68 285.26c1.8,-14.08 5.42,-27.55 10.73,-40.14 -2.73,-2.58 -5.74,-4.18 -8.11,-5.22 -6.7,15.59 -11.09,32.42 -12.58,50.06 2.67,-1.54 6.09,-3.15 9.96,-4.7zm293.03 80.87c2.79,2.84 5.06,5.43 6.76,7.75 8.72,-18.43 14.04,-38.81 15.22,-60.23 -3.5,-1.14 -6.65,-1.6 -9.29,-1.76 -0.87,19.15 -5.36,37.53 -12.69,54.24zm-278.53 6.05c-9.03,-18.38 -14.5,-38.81 -15.48,-60.29 -2.58,0.11 -5.88,0.62 -9.46,1.81 1.3,22.46 7.14,43.71 16.51,62.96 2.22,-1.49 5.13,-3.04 8.43,-4.48zm147.29 85.57l0 9.55c48.05,-2.78 90.52,-26.32 118.54,-61.89 -2.02,-1.45 -4.85,-3.15 -8.46,-4.54 -26.32,32.61 -65.64,54.2 -110.08,56.88zm-133.89 -63.29c-2.82,0.06 -6.48,0.47 -10.35,1.66 27.25,40.16 71.96,67.41 123.18,71.08l-1.45 -9.7c-45.77,-3.77 -85.88,-27.83 -111.38,-63.04zm133.84 -243.17c32.92,2.01 62.96,14.35 87.06,33.8l8.26 0 0 7.13c2.73,2.58 5.31,5.21 7.84,7.9 6.27,1.65 11.97,3.45 16.78,5.21 -27.98,-36.44 -71.12,-60.65 -119.94,-63.44l0 9.4zm135.57 78.86c-4.38,-0.78 -8.32,-0.98 -11.2,-1.03 9.6,16.97 16.05,35.97 18.59,56.14 3.87,1.55 7.25,3.16 9.95,4.7 -1.91,-21.41 -7.95,-41.6 -17.34,-59.81zm-274.5 -24.62c27.56,-35.97 69.88,-60.17 117.87,-63.57l-1.4 9.6c-31.36,2.62 -60.01,14.65 -83.19,33.38l-8.46 0 0 7.33c-2.73,2.58 -5.42,5.26 -7.95,7.94 -6.4,1.71 -12.07,3.47 -16.87,5.32z"/>
  <path class="fil7" d="M404.42 215.8c-7.65,-5 -22.87,-9.65 -37.68,-13l0 9.08c18.57,3.87 35.13,8.67 42.36,12.13l-4.68 -8.21z"/>
  <path class="fil7" d="M149.57 213.17c2.48,-0.57 5.06,-1.19 7.74,-1.7l0 -8.57c-8.3,1.86 -15.79,3.92 -21.88,5.98 3.98,0.99 8.72,2.38 14.14,4.29z"/>
  <path class="fil8" d="M157.37 277.16c-1.6,0.31 -3.15,0.57 -4.7,0.88 -23.59,4.54 -50,12.85 -57.59,20.55 -0.23,0.25 -0.52,0.5 -0.83,0.71l0 8.83c6.66,-6.56 29.42,-14.66 57.54,-20.23 1.81,-0.41 3.71,-0.72 5.58,-1.09l0 -9.65z"/>
  <path class="fil8" d="M428.94 298.59c-7.6,-7.7 -33.97,-16.01 -57.61,-20.55 -1.5,-0.31 -3.04,-0.57 -4.59,-0.83l0 9.6c1.86,0.37 3.66,0.68 5.52,1.09 28.02,5.57 50.66,13.62 57.44,20.18l0 -8.78c-0.32,-0.25 -0.56,-0.51 -0.76,-0.71z"/>
  <path class="fil8" d="M165.26 364.28c-6.29,1.39 -12.38,2.94 -18.27,4.69 -14.19,4.03 -29.57,10.32 -32.52,15.18 0,0.04 -0.04,0.1 -0.09,0.16l5.16 8.4c3.14,-3.86 13.72,-9.55 30.4,-14.29 6.65,-1.9 13.14,-3.51 19.71,-4.95 -1.66,-2.95 -3.1,-6.05 -4.39,-9.19z"/>
  <polygon class="fil8" points="257.17,184.99 266.98,184.99 266.98,136.53 257.17,136.53 "/>
  <path class="fil8" d="M261.87 429.25c-1.55,0 -3.16,-0.05 -4.7,-0.1l0 43.98 9.81 0 0 -44.09c-1.73,0.16 -3.41,0.21 -5.11,0.21z"/>
  <path class="fil8" d="M408.59 380.84c-6.45,-10.11 -23.24,-24.51 -43.19,-39.53 -1.4,8.78 -3.98,17.19 -7.44,25.14 22.19,16.51 37.57,30.08 39.79,36.9l12.44 -19.1c-0.15,-0.98 -0.67,-2.12 -1.6,-3.41z"/>
  <path class="fil8" d="M157.31 220.96c-14.55,-5.93 -25.39,-8.98 -31.94,-9.08l-0.31 0c-1.7,0 -3.04,0.21 -4.13,0.52l-10.32 20.22c0.36,0 0.82,-0.1 1.24,-0.1 7.99,0 24.35,5.52 45.52,14.86l-0.06 -26.42z"/>
  <path class="fil9" d="M394.55 407.47l0 0c0,-0.1 -0.05,-0.16 -0.05,-0.3l0 0c-0.05,-0.11 -0.1,-0.27 -0.15,-0.32l0 0c-0.1,-0.41 -0.3,-0.82 -0.52,-1.24 -1.39,-2.89 -5.36,-7.48 -11.35,-13 -0.06,-0.05 -0.1,-0.1 -0.1,-0.16 0,0 -0.1,0 -0.1,-0.05l0 0.05c-6.41,-6.03 -15.29,-13.25 -26.38,-21.67 -5.11,10.32 -11.92,19.71 -19.97,27.77 -9.39,9.34 -20.59,16.97 -33.03,22.34 16.1,-1.45 31.43,-3.51 43.76,-6.09 4.44,-0.67 11.92,-2.27 20.33,-4.28 3.51,-3.51 6.92,-7.17 10.13,-11.05 9.23,2.27 14.7,7.23 16.08,8.82 -0.76,0.99 -1.59,1.97 -2.44,3.05 0.44,0 0.85,0 1.21,0 0.37,0 0.67,0 1.03,-0.1 0.58,-0.2 2.42,-0.56 1.61,-3.72 -0.06,0 -0.06,0 -0.06,-0.05zm35.92 -92.63l0 0c0,0 0,0 -0.07,0 0,0 0,0 0,-0.06 0,0 0,-0.05 -0.02,-0.1l0 0c-0.06,0 -0.06,0 -0.06,-0.05l0 0 -0.05 -0.05 0 -0.1 -0.1 0 0 -0.06 -0.06 -0.05 0 0c0,-0.05 0,-0.05 0,-0.05l-0.05 -0.05 0 0c0,-0.05 0,-0.05 0,-0.05 -0.05,0 -0.05,0 -0.05,0l-0.05 0c0,0 0,-0.11 -0.05,-0.11 -0.05,-0.05 -0.1,-0.1 -0.16,-0.2l0 0c-0.15,-0.15 -0.37,-0.42 -0.57,-0.63 -0.31,-0.41 -0.73,-0.77 -1.18,-1.18 -2.9,-2.43 -7.59,-5 -13.37,-7.43 -1.03,-0.47 -2.21,-0.87 -3.35,-1.34 0,0.41 0,0.83 0,1.13 0,0.21 0,0.42 0,0.62 -15.08,4.7 -33.24,8.2 -44.54,10.17l0 9.55c0,2.94 -0.17,5.89 -0.41,8.77 17.08,-2.69 32.19,-6.04 43.6,-9.19 0.57,-4.12 0.94,-8.3 1.19,-12.49 3.15,-0.25 10.22,-0.25 17.82,3.52 -0.07,0.77 -0.07,1.54 -0.17,2.32 0.72,-0.36 1.29,-0.73 1.75,-1.03 0.37,-0.62 0.21,-1.24 0,-1.76 0,0 -0.05,0 -0.05,-0.1zm-23.19 73.9c0.21,0 0.38,0 0.49,0 0.36,0 0.71,0 0.97,-0.1 0.78,-0.32 1.97,-1.96 1.45,-4.39l-2.91 4.49zm-0.13 -169.54c0.42,-0.35 0.46,-0.92 -1.04,-2.16 -0.51,-0.41 -1.09,-0.87 -1.69,-1.24l2.06 3.67c0.25,-0.06 0.46,-0.11 0.67,-0.27zm23.48 82.68c0.67,-0.66 -0.16,-1.76 -0.93,-2.58l0 2.74c0.36,0 0.77,-0.06 1.03,-0.16 0,0 -0.05,0 -0.1,0zm-63.89 -75.39l0 18.99c11.35,-2.28 21.31,-4.75 29.16,-6.97 -1.55,-3.2 -3.26,-6.3 -5.01,-9.34 2.22,0.05 11.15,-0.72 21.63,2.22 0,-0.05 0,-0.05 0,-0.05 0.2,0.51 0.46,0.97 0.67,1.49 0.1,0 0.2,-0.1 0.3,-0.1 0.11,0 0.21,-0.05 0.32,-0.11 0.52,-0.25 1.09,-0.98 -0.58,-1.96 -0.46,-0.25 -0.92,-0.51 -1.45,-0.77l0 0c-5.72,-3 -14.64,-5.99 -26.16,-8.98 0.17,0.21 0.31,0.46 0.47,0.72 -5.42,1.61 -11.87,3.36 -19.35,4.86z"/>
  <path class="fil10" d="M114.38 384.31c-0.21,0.35 -0.57,0.97 -0.52,1.28 0.05,0.37 0.26,0.58 0.81,0.77 -0.16,0 -0.24,-0.04 -0.35,-0.04 0.47,0.1 0.94,0.1 1.4,0.1l-1.34 -2.11zm73.74 13.92c-0.35,-0.36 -0.67,-0.67 -1.04,-1.03 -15.78,-2.37 -31.94,-5.41 -48.65,-9.23 -0.21,-0.22 -0.37,-0.42 -0.52,-0.63 -7.54,2.95 -13.62,6.25 -16,9.51 -0.31,0.3 -0.93,1.38 0.45,2.26 0,0 -0.04,0 -0.09,0 0.83,0.36 1.66,0.68 2.37,0.98 -0.51,-0.82 -0.97,-1.54 -1.49,-2.37 9.24,-4.29 18.17,-3.26 20.03,-3 3.96,5.32 8.31,10.28 12.95,14.88 18.06,4.53 39.94,8.35 63.94,10.67 -11.87,-5.31 -22.71,-12.9 -31.95,-22.04zm62.9 73.2c0.58,0.05 1.08,0.1 1.72,0.15l0 -18.06c-1.5,-0.11 -2.94,-0.26 -4.44,-0.41l2.72 18.32zm-93.65 -146.84l0 -9.34c-11.3,-1.97 -29.49,-5.47 -44.55,-10.17 0,-0.2 0,-0.41 0,-0.62 0,-0.3 0,-0.72 0,-1.13 -1.75,0.67 -3.34,1.34 -4.9,2.01 -1.39,0.57 -2.73,1.19 -3.97,1.76 -0.05,0.04 -0.1,0.11 -0.1,0.11 -0.1,0.04 -0.16,0.04 -0.26,0.09 -3.42,1.7 -6.15,3.51 -8,5.21 -0.31,0.21 -0.57,0.52 -0.78,0.73 -0.2,0.25 -0.35,0.46 -0.56,0.67l0 0c-0.06,0.1 -0.1,0.15 -0.16,0.2l-0.05 0.11 -0.05 0 0 0c0,0.05 0,0.05 0,0.05l-0.06 0c0,0 0,0.05 -0.04,0.1l0 0.11 -0.11 0 0 0.05c0,0.05 0,0.05 0,0.05l-0.05 0.05 -0.05 0 0 0.05c0,0 0,0 -0.05,0.05l0 0.05c0,0.06 0,0.06 0,0.06l-0.06 0 0 0.1 -0.07 0 0 0.05c0,0 0,0 0,0.06l0 0c-0.03,0.04 -0.03,0.1 -0.03,0.1l0 0 -0.05 0.04 0 0.11 -0.05 0.05c0,0.06 0,0.06 0,0.06l0 0c-0.05,0.05 -0.05,0.05 -0.05,0.09l0 0.12 -0.06 0 0 0.04c0,0.05 0,0.05 0,0.05l0 0.06c0,0 0,0.05 0,0.1l0 0.1c0,0.06 0,0.11 0,0.11l0 0.05c0,0.05 0,0.05 0,0.1l0.06 0.06 0 0.05c0,0 0,0 0,0.05l0.05 0 0.05 0.1 0 0.05 0.05 0c0,0.05 0,0.05 0.03,0.1l0 0c0,0.11 0,0.11 0,0.11 0.49,0.3 1.06,0.67 1.73,0.98 -0.05,-0.78 -0.1,-1.55 -0.15,-2.32 7.69,-3.77 14.81,-3.77 17.9,-3.46 0.21,4.18 0.57,8.31 1.14,12.43 11.39,3.21 26.52,6.5 43.66,9.19 -0.32,-2.94 -0.41,-5.93 -0.41,-8.98zm-50.94 -81.69c0.62,-1.5 1.19,-2.95 1.86,-4.39 2.06,0.51 9.9,2.94 15.38,10.07 -1.31,3.03 -2.43,6.08 -3.41,9.23 5.83,5.05 13.41,10.84 22.76,17.55 2.89,-0.68 5.77,-1.24 8.77,-1.81 1.81,-0.41 3.71,-0.72 5.58,-1.03l0 -20.18c-11.26,-5.01 -21.17,-8.98 -29.22,-11.66 0,0 0,0 -0.05,0 -0.1,-0.05 -0.26,-0.05 -0.37,-0.11 -0.09,-0.05 -0.25,-0.1 -0.4,-0.15 0,0 -0.06,0 -0.1,0 -7.31,-2.38 -12.96,-3.62 -16.83,-3.62 -0.46,0 -0.98,0 -1.45,0.06 -0.09,0 -0.15,0 -0.2,0.05l0 0c-0.15,0 -0.21,0 -0.26,0l-0.05 0c-0.05,0 -0.15,0.05 -0.26,0.05l0 0.05c-1.24,0.31 -2.27,1.14 -2.68,3.41 -0.06,-0.2 -0.06,-0.31 -0.06,-0.47 0,0.21 0,0.37 0.06,0.62 0.19,0.68 0.52,1.44 0.93,2.33zm146.31 -105.43c-0.64,0.1 -1.14,0.1 -1.72,0.1l-2.72 18.47c1.5,-0.26 2.94,-0.36 4.44,-0.47l0 -18.1zm-158.49 164.57l0 -2.74c-0.78,0.88 -1.55,1.92 -0.93,2.58 0.25,0.1 0.57,0.16 0.93,0.16zm23.94 -84.33c-0.25,-0.67 -0.46,-1.33 -0.51,-2.01 0.14,-1.45 1.08,-2.68 3.25,-3.3l-2.74 5.31z"/>
  <path class="fil11" d="M261.51 430.7c-63.28,0 -105.74,-53.63 -105.74,-103.69l0 -142.64 211.53 0 0 142.64c0,50.06 -42.47,103.69 -105.79,103.69l0 0z"/>
  <path class="fil4" d="M320.24 327.01c0,24.21 -22.25,56.57 -58.73,56.57 -36.49,0 -58.63,-32.36 -58.63,-56.57 0,-13.73 0,-95.57 0,-95.57l117.36 0c0,0 0,81.84 0,95.57zm-157.41 -135.56l0 135.56c0,46.61 39.64,96.56 98.68,96.56 59.1,0 98.72,-49.95 98.72,-96.56l0 -135.56 -197.4 0z"/>
  <path class="fil8" d="M177.27 222.51c0.27,-7.53 6.05,-9.29 6.1,-9.29l0 0c0.06,0 5.79,1.76 6.05,9.29l-12.15 0zm18.96 0l-0.42 0 -0.94 -8.98c1.24,-0.16 2.13,-1.08 2.13,-2.22 0,-1.29 -1.05,-2.22 -2.27,-2.22l-0.26 0 -0.26 -4.07 0.99 0c0.21,0 0.41,-0.16 0.41,-0.41l0 -2.84 -1.35 0 0 1.44 -1.79 0 0 -1.44 -1.51 0 0 1.44 -1.8 0 0 -1.44 -1.29 0 0 2.78c0,0.21 0.2,0.47 0.4,0.47l0.99 0 -0.2 4.07 -2.53 0 -0.48 -8.67 0.74 0c0.25,0 0.39,-0.1 0.39,-0.41l0 -2.84 -1.33 0 0 1.35 -1.82 0 0 -1.35 -1.37 0 0 1.35 -1.87 0 0 -1.35 -1.29 0 0 2.84c0,0.16 0.16,0.36 0.42,0.41l0.65 0 -0.45 8.67 -2.52 0 -0.26 -4.07 0.98 0c0.19,0 0.46,-0.16 0.46,-0.41l0 -2.84 -1.29 0 0 1.44 -1.91 0 0 -1.44 -1.39 0 0 1.44 -1.91 0 0 -1.44 -1.29 0 0 2.78c0,0.21 0.21,0.47 0.51,0.47l0.88 0 -0.2 4.07 -0.21 0c-1.24,0 -2.29,0.93 -2.29,2.22 0,1.14 0.94,2.06 2.07,2.17l-0.86 9.03 -0.42 0c-1.18,0 -2.22,1.04 -2.22,2.22 0,1.19 1.04,2.16 2.22,2.16l25.76 0c1.24,0 2.26,-0.97 2.26,-2.16 0,-1.18 -1.02,-2.22 -2.26,-2.22z"/>
  <path class="fil8" d="M255.78 222.51c0.32,-7.53 6.04,-9.29 6.09,-9.29l0 0c0.05,0 5.78,1.76 6.14,9.29l-12.23 0zm19.04 0l-0.56 0 -0.83 -8.98c1.23,-0.16 2.07,-1.08 2.07,-2.22 0,-1.29 -1.04,-2.22 -2.22,-2.22l-0.31 0 -0.26 -4.07 1.03 0c0.21,0 0.34,-0.16 0.34,-0.41l0 -2.84 -1.21 0 0 1.44 -1.97 0 0 -1.44 -1.34 0 0 1.44 -1.91 0 0 -1.44 -1.25 0 0 2.78c0,0.21 0.27,0.47 0.42,0.47l0.98 0 -0.25 4.07 -2.48 0 -0.46 -8.67 0.64 0c0.24,0 0.49,-0.1 0.49,-0.41l0 -2.84 -1.28 0 0 1.35 -1.92 0 0 -1.35 -1.33 0 0 1.35 -1.91 0 0 -1.35 -1.3 0 0 2.84c0,0.16 0.2,0.36 0.47,0.41l0.71 0 -0.47 8.67 -2.52 0 -0.3 -4.07 0.93 0c0.21,0 0.51,-0.16 0.51,-0.41l0 -2.84 -1.4 0 0 1.44 -1.85 0 0 -1.44 -1.29 0 0 1.44 -1.97 0 0 -1.44 -1.23 0 0 2.78c0,0.21 0.21,0.47 0.41,0.47l0.98 0 -0.26 4.07 -0.21 0c-1.23,0 -2.26,0.93 -2.26,2.22 0,1.14 0.92,2.06 2.06,2.17l-0.94 9.03 -0.29 0c-1.3,0 -2.23,1.04 -2.23,2.22 0,1.19 0.93,2.16 2.23,2.16l25.74 0c1.2,0 2.18,-0.97 2.18,-2.16 0,-1.18 -0.98,-2.22 -2.18,-2.22z"/>
  <path class="fil8" d="M333.6 222.51c0.27,-7.53 6.05,-9.29 6.05,-9.29l0.1 0c0,0 5.73,1.76 6.08,9.29l-12.23 0zm19.01 0l-0.43 0 -0.92 -8.98c1.18,-0.16 2.06,-1.08 2.06,-2.22 0,-1.29 -1.04,-2.22 -2.26,-2.22l-0.27 0 -0.2 -4.07 0.93 0c0.2,0 0.41,-0.16 0.41,-0.41l0 -2.84 -1.29 0 0 1.44 -1.91 0 0 -1.44 -1.39 0 0 1.44 -1.86 0 0 -1.44 -1.3 0 0 2.78c0,0.21 0.21,0.47 0.47,0.47l0.93 0 -0.21 4.07 -2.43 0 -0.58 -8.67 0.74 0c0.26,0 0.47,-0.1 0.47,-0.41l0 -2.84 -1.29 0 0 1.35 -1.92 0 0 -1.35 -1.33 0 0 1.35 -1.92 0 0 -1.35 -1.3 0 0 2.84c0,0.16 0.22,0.36 0.48,0.41l0.66 0 -0.45 8.67 -2.59 0 -0.16 -4.07 0.93 0c0.16,0 0.48,-0.16 0.48,-0.41l0 -2.84 -1.41 0 0 1.44 -1.85 0 0 -1.44 -1.34 0 0 1.44 -1.91 0 0 -1.44 -1.28 0 0 2.78c0,0.21 0.21,0.47 0.41,0.47l0.97 0 -0.26 4.07 -0.2 0c-1.24,0 -2.23,0.93 -2.23,2.22 0,1.14 0.84,2.06 2.01,2.17l-0.81 9.03 -0.46 0c-1.19,0 -2.17,1.04 -2.17,2.22 0,1.19 0.98,2.16 2.17,2.16l25.81 0c1.27,0 2.2,-0.97 2.2,-2.16 0,-1.18 -0.93,-2.22 -2.2,-2.22z"/>
  <path class="fil8" d="M177.27 303.48c0.27,-7.53 6.05,-9.29 6.1,-9.29l0 0c0.06,0 5.79,1.76 6.05,9.29l-12.15 0zm18.96 0l-0.42 0 -0.94 -9.02c1.24,-0.06 2.13,-0.99 2.13,-2.17 0,-1.3 -1.05,-2.28 -2.27,-2.28l-0.26 0 -0.26 -3.97 0.99 0c0.21,0 0.41,-0.15 0.41,-0.47l0 -2.83 -1.35 0 0 1.45 -1.79 0 0 -1.45 -1.51 0 0 1.45 -1.8 0 0 -1.45 -1.29 0 0 2.83c0,0.21 0.2,0.47 0.4,0.47l0.99 0 -0.2 3.97 -2.53 0 -0.48 -8.61 0.74 0c0.25,0 0.39,-0.16 0.39,-0.42l0 -2.84 -1.33 0 0 1.4 -1.82 0 0 -1.4 -1.37 0 0 1.4 -1.87 0 0 -1.4 -1.29 0 0 2.79c0,0.21 0.16,0.42 0.42,0.47l0.65 0 -0.45 8.61 -2.52 0 -0.26 -3.97 0.98 0c0.19,0 0.46,-0.15 0.46,-0.47l0 -2.83 -1.29 0 0 1.45 -1.91 0 0 -1.45 -1.39 0 0 1.45 -1.91 0 0 -1.45 -1.29 0 0 2.83c0,0.21 0.21,0.47 0.51,0.47l0.88 0 -0.2 3.97 -0.21 0c-1.24,0 -2.29,0.98 -2.29,2.28 0,1.13 0.94,2.01 2.07,2.17l-0.86 9.02 -0.42 0c-1.18,0 -2.22,0.94 -2.22,2.22 0,1.19 1.04,2.07 2.22,2.07l25.76 0c1.24,0 2.26,-0.88 2.26,-2.07 0,-1.28 -1.02,-2.22 -2.26,-2.22z"/>
  <path class="fil8" d="M333.6 303.48c0.27,-7.53 6.05,-9.29 6.05,-9.29l0.1 0c0,0 5.73,1.76 6.08,9.29l-12.23 0zm19.01 0l-0.43 0 -0.92 -9.02c1.18,-0.06 2.06,-0.99 2.06,-2.17 0,-1.3 -1.04,-2.28 -2.26,-2.28l-0.27 0 -0.2 -3.97 0.93 0c0.2,0 0.41,-0.15 0.41,-0.47l0 -2.83 -1.29 0 0 1.45 -1.91 0 0 -1.45 -1.39 0 0 1.45 -1.86 0 0 -1.45 -1.3 0 0 2.83c0,0.21 0.21,0.47 0.47,0.47l0.93 0 -0.21 3.97 -2.43 0 -0.58 -8.61 0.74 0c0.26,0 0.47,-0.16 0.47,-0.42l0 -2.84 -1.29 0 0 1.4 -1.92 0 0 -1.4 -1.33 0 0 1.4 -1.92 0 0 -1.4 -1.3 0 0 2.79c0,0.21 0.22,0.42 0.48,0.47l0.66 0 -0.45 8.61 -2.59 0 -0.16 -3.97 0.93 0c0.16,0 0.48,-0.15 0.48,-0.47l0 -2.83 -1.41 0 0 1.45 -1.85 0 0 -1.45 -1.34 0 0 1.45 -1.91 0 0 -1.45 -1.28 0 0 2.83c0,0.21 0.21,0.47 0.41,0.47l0.97 0 -0.26 3.97 -0.2 0c-1.24,0 -2.23,0.98 -2.23,2.28 0,1.13 0.84,2.01 2.01,2.17l-0.81 9.02 -0.46 0c-1.19,0 -2.17,0.94 -2.17,2.22 0,1.19 0.98,2.07 2.17,2.07l25.81 0c1.27,0 2.2,-0.88 2.2,-2.07 0,-1.28 -0.93,-2.22 -2.2,-2.22z"/>
  <path class="fil8" d="M205.68 387.61c-5.12,-5.58 -2.23,-10.84 -2.23,-10.89l0 0c0.11,0 5.37,-3 10.89,2.22l-8.66 8.67zm13.39 -13.53l-0.29 0.37 -6.92 -5.73c0.72,-0.93 0.72,-2.17 -0.16,-3.05 -0.87,-0.82 -2.38,-0.82 -3.19,0l-0.21 0.25 -2.94 -2.62 0.15 -0.15 0.52 -0.57c0.16,-0.11 0.21,-0.37 0,-0.62l-1.96 -2.02 -0.93 0.88 0.98 1.14 -1.34 1.34 -0.98 -1.09 -1.04 0.94 1.04 1.03 -1.4 1.33 -0.87 -0.98 -0.98 0.93 1.91 1.96c0.2,0.16 0.51,0.16 0.71,0l0.46 -0.46 0.23 -0.26 2.62 2.94 -1.77 1.71 -6.48 -5.68 0.62 -0.41c0.15,-0.21 0.19,-0.52 0,-0.67l-1.98 -2.01 -1.01 0.93 1.01 1.02 -1.33 1.3 -0.98 -0.98 -0.99 0.98 0.99 0.92 -1.34 1.45 -0.99 -1.04 -0.95 0.94 1.99 1.96c0.16,0.15 0.46,0.15 0.67,0l0.53 -0.52 5.71 6.45 -1.74 1.81 -3.05 -2.58 0.15 -0.21 0.53 -0.46c0.14,-0.21 0.19,-0.47 0.04,-0.67l-2.06 -2.02 -0.88 0.93 0.98 0.93 -1.29 1.45 -0.98 -1.09 -1.03 1.04 1.03 0.98 -1.29 1.28 -1.03 -0.93 -0.93 0.88 1.96 2.01c0.15,0.11 0.47,0.16 0.67,0l0.51 -0.56 0.16 -0.11 2.63 2.89 -0.09 0.21c-0.94,0.93 -0.94,2.38 0,3.15 0.82,0.83 2.11,0.83 3.04,0.21l5.66 6.91 -0.3 0.36c-0.88,0.78 -0.88,2.22 0,3.1 0.93,0.87 2.32,0.87 3.2,0l18.22 -18.22c0.82,-0.88 0.82,-2.27 0,-3.1 -0.93,-0.97 -2.38,-0.97 -3.22,-0.1z"/>
  <path class="fil8" d="M310.02 378.94c5.57,-5.22 10.78,-2.22 10.84,-2.22l0 0c0.05,0.05 2.83,5.31 -2.22,10.89l-8.62 -8.67zm-7.95 -4.76c-0.82,0.83 -0.82,2.22 0,3.1l18.22 18.22c0.82,0.87 2.26,0.87 3.21,0 0.82,-0.88 0.82,-2.32 0,-3.1l-0.37 -0.36 5.78 -6.91c0.88,0.62 2.22,0.62 2.99,-0.21 0.93,-0.77 0.93,-2.22 0,-3.15l-0.1 -0.21 2.58 -2.89 0.24 0.11 0.48 0.56c0.21,0.16 0.52,0.11 0.66,0l1.98 -2.01 -0.93 -0.88 -1 0.93 -1.33 -1.28 0.93 -0.98 -0.93 -1.04 -0.98 1.09 -1.34 -1.45 0.99 -0.93 -0.89 -0.93 -2 2.02c-0.21,0.2 -0.17,0.46 0,0.67l0.51 0.46 0.16 0.21 -3.05 2.58 -1.7 -1.81 5.72 -6.45 0.52 0.52c0.2,0.15 0.52,0.15 0.61,0l1.98 -1.96 -0.89 -0.94 -0.97 1.04 -1.35 -1.45 0.98 -0.92 -0.98 -0.98 -0.94 0.98 -1.43 -1.3 1.02 -1.02 -0.92 -0.93 -2.02 2.01c-0.2,0.15 -0.1,0.46 0.07,0.67l0.49 0.41 -6.49 5.68 -1.7 -1.71 2.63 -2.94 0.16 0.26 0.46 0.46c0.2,0.16 0.56,0.16 0.62,0l2.06 -1.96 -0.98 -0.93 -0.99 0.98 -1.29 -1.33 0.99 -1.03 -0.99 -0.94 -0.97 1.09 -1.34 -1.34 1.03 -1.14 -0.98 -0.88 -1.97 2.02c-0.22,0.25 -0.15,0.51 0,0.62l0.47 0.57 0.21 0.15 -2.89 2.62 -0.25 -0.25c-0.89,-0.82 -2.33,-0.82 -3.22,0 -0.86,0.88 -0.86,2.12 -0.14,3.05l-6.97 5.73 -0.26 -0.37c-0.87,-0.87 -2.27,-0.87 -3.2,0.1z"/>
  <path class="fil12" d="M268.74 353.91c-1.4,0 -2.48,1.23 -2.48,2.53 0,1.54 1.08,2.67 2.48,2.67 1.39,0 2.58,-1.13 2.58,-2.67 0,-1.3 -1.19,-2.53 -2.58,-2.53z"/>
  <path class="fil12" d="M254.65 354.01c-1.3,0 -2.55,1.13 -2.55,2.53 0,1.44 1.25,2.57 2.55,2.57 1.54,0 2.63,-1.13 2.63,-2.57 0,-1.4 -1.09,-2.53 -2.63,-2.53z"/>
  <path class="fil13" d="M261.51 278.35c5.63,0 13.06,-4.64 13.06,-13.88 0,-10.63 0,-18.58 0,-18.58l-26.07 0c0,0 0,7.95 0,18.58 0,9.24 7.43,13.88 13.01,13.88z"/>
  <path class="fil12" d="M257.84 253.22c0,-1.65 -1.39,-3 -2.98,-3 -1.62,0 -2.95,1.35 -2.95,3 0,1.65 1.33,2.99 2.95,2.99 1.59,0 2.98,-1.34 2.98,-2.99z"/>
  <path class="fil12" d="M264.5 259.93c0,-1.65 -1.35,-3 -2.99,-3 -1.6,0 -2.89,1.35 -2.89,3 0,1.59 1.29,2.93 2.89,2.93 1.64,0 2.99,-1.34 2.99,-2.93z"/>
  <path class="fil12" d="M271.16 266.53c0,-1.64 -1.34,-2.94 -2.94,-2.94 -1.65,0 -3,1.3 -3,2.94 0,1.66 1.35,2.99 3,2.99 1.6,0 2.94,-1.33 2.94,-2.99z"/>
  <path class="fil12" d="M268.22 256.21c1.6,0 2.94,-1.34 2.94,-2.99 0,-1.65 -1.34,-3 -2.94,-3 -1.65,0 -3,1.35 -3,3 0,1.65 1.35,2.99 3,2.99z"/>
  <path class="fil12" d="M254.86 269.52c1.59,0 2.98,-1.33 2.98,-2.99 0,-1.64 -1.39,-2.94 -2.98,-2.94 -1.62,0 -2.95,1.3 -2.95,2.94 0,1.66 1.33,2.99 2.95,2.99z"/>
  <path class="fil13" d="M261.51 323.3c5.63,0 13.06,-4.65 13.06,-13.88 0,-10.58 0,-18.63 0,-18.63l-26.07 0c0,0 0,8.05 0,18.63 0,9.23 7.43,13.88 13.01,13.88z"/>
  <path class="fil12" d="M257.84 298.17c0,-1.65 -1.39,-3 -2.98,-3 -1.62,0 -2.95,1.35 -2.95,3 0,1.65 1.33,2.94 2.95,2.94 1.59,0 2.98,-1.29 2.98,-2.94z"/>
  <path class="fil12" d="M264.5 304.82c0,-1.65 -1.35,-2.94 -2.99,-2.94 -1.6,0 -2.89,1.29 -2.89,2.94 0,1.65 1.29,2.9 2.89,2.9 1.64,0 2.99,-1.25 2.99,-2.9z"/>
  <path class="fil12" d="M271.16 311.53c0,-1.65 -1.34,-2.99 -2.94,-2.99 -1.65,0 -3,1.34 -3,2.99 0,1.61 1.35,2.95 3,2.95 1.6,0 2.94,-1.34 2.94,-2.95z"/>
  <path class="fil12" d="M268.22 301.11c1.6,0 2.94,-1.29 2.94,-2.94 0,-1.65 -1.34,-3 -2.94,-3 -1.65,0 -3,1.35 -3,3 0,1.65 1.35,2.94 3,2.94z"/>
  <path class="fil12" d="M254.86 314.48c1.59,0 2.98,-1.34 2.98,-2.95 0,-1.65 -1.39,-2.99 -2.98,-2.99 -1.62,0 -2.95,1.34 -2.95,2.99 0,1.61 1.33,2.95 2.95,2.95z"/>
  <path class="fil13" d="M225.59 323.3c5.61,0 13.01,-4.65 13.01,-13.88 0,-10.58 0,-18.63 0,-18.63l-26.07 0c0,0 0,8.05 0,18.63 0,9.23 7.38,13.88 13.06,13.88z"/>
  <path class="fil12" d="M221.82 298.17c0,-1.65 -1.29,-3 -2.94,-3 -1.6,0 -2.96,1.35 -2.96,3 0,1.65 1.36,2.94 2.96,2.94 1.65,0 2.94,-1.29 2.94,-2.94z"/>
  <path class="fil12" d="M228.53 304.82c0,-1.65 -1.34,-2.94 -2.94,-2.94 -1.65,0 -2.99,1.29 -2.99,2.94 0,1.65 1.34,2.9 2.99,2.9 1.6,0 2.94,-1.25 2.94,-2.9z"/>
  <path class="fil12" d="M235.19 311.53c0,-1.65 -1.29,-2.99 -2.97,-2.99 -1.62,0 -2.97,1.34 -2.97,2.99 0,1.61 1.35,2.95 2.97,2.95 1.68,0 2.97,-1.34 2.97,-2.95z"/>
  <path class="fil12" d="M232.22 301.11c1.68,0 2.97,-1.29 2.97,-2.94 0,-1.65 -1.29,-3 -2.97,-3 -1.62,0 -2.97,1.35 -2.97,3 0,1.65 1.35,2.94 2.97,2.94z"/>
  <path class="fil12" d="M218.88 314.48c1.65,0 2.94,-1.34 2.94,-2.95 0,-1.65 -1.29,-2.99 -2.94,-2.99 -1.6,0 -2.96,1.34 -2.96,2.99 0,1.61 1.36,2.95 2.96,2.95z"/>
  <path class="fil13" d="M297.48 323.3c5.62,0 13.11,-4.65 13.11,-13.88 0,-10.58 0,-18.63 0,-18.63l-26.07 0c0,0 0,8.05 0,18.63 0,9.23 7.34,13.88 12.96,13.88z"/>
  <path class="fil12" d="M293.76 298.17c0,-1.65 -1.28,-3 -2.95,-3 -1.59,0 -2.92,1.35 -2.92,3 0,1.65 1.33,2.94 2.92,2.94 1.67,0 2.95,-1.29 2.95,-2.94z"/>
  <path class="fil12" d="M300.48 304.82c0,-1.65 -1.34,-2.94 -3,-2.94 -1.6,0 -2.94,1.29 -2.94,2.94 0,1.65 1.34,2.9 2.94,2.9 1.66,0 3,-1.25 3,-2.9z"/>
  <path class="fil12" d="M307.12 311.53c0,-1.65 -1.28,-2.99 -2.93,-2.99 -1.65,0 -2.99,1.34 -2.99,2.99 0,1.61 1.34,2.95 2.99,2.95 1.65,0 2.93,-1.34 2.93,-2.95z"/>
  <path class="fil12" d="M304.19 301.11c1.65,0 2.93,-1.29 2.93,-2.94 0,-1.65 -1.28,-3 -2.93,-3 -1.65,0 -2.99,1.35 -2.99,3 0,1.65 1.34,2.94 2.99,2.94z"/>
  <path class="fil12" d="M290.81 314.48c1.67,0 2.95,-1.34 2.95,-2.95 0,-1.65 -1.28,-2.99 -2.95,-2.99 -1.59,0 -2.92,1.34 -2.92,2.99 0,1.61 1.33,2.95 2.92,2.95z"/>
  <path class="fil13" d="M261.51 368.26c5.63,0 13.06,-4.7 13.06,-13.89 0,-10.68 0,-18.58 0,-18.58l-26.07 0c0,0 0,7.9 0,18.58 0,9.19 7.43,13.89 13.01,13.89z"/>
  <path class="fil12" d="M257.84 343.12c0,-1.61 -1.39,-2.94 -2.98,-2.94 -1.62,0 -2.95,1.33 -2.95,2.94 0,1.59 1.33,2.95 2.95,2.95 1.59,0 2.98,-1.36 2.98,-2.95z"/>
  <path class="fil12" d="M264.5 349.83c0,-1.65 -1.35,-2.99 -2.99,-2.99 -1.6,0 -2.89,1.34 -2.89,2.99 0,1.6 1.29,2.94 2.89,2.94 1.64,0 2.99,-1.34 2.99,-2.94z"/>
  <path class="fil12" d="M271.16 356.44c0,-1.66 -1.34,-2.95 -2.94,-2.95 -1.65,0 -3,1.29 -3,2.95 0,1.65 1.35,2.99 3,2.99 1.6,0 2.94,-1.34 2.94,-2.99z"/>
  <path class="fil12" d="M268.22 346.07c1.6,0 2.94,-1.36 2.94,-2.95 0,-1.61 -1.34,-2.94 -2.94,-2.94 -1.65,0 -3,1.33 -3,2.94 0,1.59 1.35,2.95 3,2.95z"/>
  <path class="fil12" d="M254.86 359.43c1.59,0 2.98,-1.34 2.98,-2.99 0,-1.66 -1.39,-2.95 -2.98,-2.95 -1.62,0 -2.95,1.29 -2.95,2.95 0,1.65 1.33,2.99 2.95,2.99z"/>
  <polygon class="fil1" points="953.88,1353.96 953.88,1223.26 979.06,1223.26 979.06,1353.96 "/>
  <path class="fil1" d="M1093.66 1353.96l-38.33 -66.02c-5.62,-9.88 -10.27,-19.56 -14.14,-28.08 0.78,11.23 1.16,31.76 1.16,47.44l0 46.66 -24.39 0 0 -130.7 32.72 0 36.4 62.35c6.01,10.08 11.23,20.92 16.07,30.79 -0.96,-13.17 -1.35,-36.4 -1.35,-52.48l0 -40.66 24.4 0 0 130.7 -32.54 0z"/>
  <path class="fil1" d="M1205.14 1356.1c-39.89,0 -59.44,-25.37 -59.44,-65.84 0,-43.18 28.85,-69.13 63.9,-69.13 34.85,0 59.44,20.92 59.44,65.65 0,43.18 -28.47,69.32 -63.9,69.32zm2.13 -112.31l0 0c-18,0 -34.66,14.32 -34.66,43.76 0,27.69 10.85,45.69 34.28,45.69 17.04,0 35.23,-13.16 35.23,-44.53 0,-29.04 -12.39,-44.92 -34.85,-44.92z"/>
  <path class="fil1" d="M1495.58 1353.96l-9.09 -26.71 -49.38 0 -9.1 26.71 -25.36 0 45.69 -130.7 28.46 0 46.67 130.7 -27.89 0zm-28.46 -83.84l0 0c-2.32,-6.38 -4.06,-12.39 -5.42,-18.01l-0.19 0c-1.55,5.62 -3.1,11.63 -5.23,18.01l-12.97 37.18 36.79 0 -12.98 -37.18z"/>
  <path class="fil1" d="M1601.56 1356.67c-45.7,0 -60.41,-30.2 -60.41,-62.74 0,-41.43 21.69,-70.67 65.44,-70.67 9.3,0 19.37,1.36 27.89,3.88l-3.49 23.04c-7.94,-2.9 -16.84,-4.46 -25.75,-4.46 -24.4,0 -36.4,18.4 -36.4,43.96 0,28.27 11.81,44.15 38.14,44.15 7.94,0 18.01,-2.14 24.79,-5.42l3.87 22.26c-9.68,3.68 -21.88,6 -34.08,6zm-1.55 43.76l0 0 -18.59 0c9.3,-11.23 11.23,-19.56 1.94,-31.18l20.52 -6.38c10.07,13.75 6.97,26.33 -3.87,37.56z"/>
  <path class="fil1" d="M1484.11 1145.23c-45.7,0 -60.42,-30.21 -60.42,-62.75 0,-41.43 21.69,-70.67 65.45,-70.67 9.29,0 19.36,1.36 27.88,3.88l-3.49 23.04c-7.93,-2.9 -16.84,-4.46 -25.75,-4.46 -24.39,0 -36.4,18.4 -36.4,43.96 0,28.27 11.81,44.15 38.15,44.15 7.93,0 18,-2.14 24.78,-5.42l3.87 22.26c-9.68,3.68 -21.88,6.01 -34.07,6.01zm224.5 -0.58c-39.88,0 -59.44,-25.37 -59.44,-65.83 0,-43.19 28.85,-69.14 63.9,-69.14 34.85,0 59.44,20.92 59.44,65.65 0,43.18 -28.46,69.32 -63.9,69.32zm2.14 -112.31c-18.01,0 -34.66,14.32 -34.66,43.76 0,27.69 10.84,45.69 34.27,45.69 17.04,0 35.24,-13.16 35.24,-44.53 0,-29.04 -12.4,-44.92 -34.85,-44.92zm-89.47 110.17l-9.09 -26.71 -49.38 0 -9.1 26.71 -25.37 0 45.7 -130.7 28.46 0 46.67 130.7 -27.89 0zm-22.26 -140.96c-13.36,0 -17.23,-9.1 -24.78,-9.1 -4.65,0 -8.14,2.71 -11.23,8.33l-12.2 -8.52c5.8,-10.26 13.93,-15.88 24.2,-15.88 13.36,0 17.04,9.1 24.79,9.1 4.64,0 7.93,-2.71 11.22,-8.13l12.2 8.33c-5.81,10.26 -13.94,15.87 -24.2,15.87zm-6.2 57.12c-2.32,-6.38 -4.06,-12.39 -5.42,-18l-0.19 0c-1.55,5.61 -3.1,11.62 -5.23,18l-12.97 37.18 36.79 0 -12.98 -37.18zm-110.26 130.31l-18.6 0c9.3,-11.23 11.24,-19.55 1.94,-31.18l20.53 -6.38c10.07,13.75 6.97,26.33 -3.87,37.56z"/>
  <path class="fil1" d="M1738.74 1353.96l-9.1 -26.71 -49.37 0 -9.11 26.71 -25.36 0 45.7 -130.7 28.46 0 46.67 130.7 -27.89 0zm-22.26 -140.96l0 0c-13.37,0 -17.24,-9.1 -24.79,-9.1 -4.64,0 -8.13,2.71 -11.23,8.33l-12.19 -8.52c5.8,-10.26 13.93,-15.88 24.2,-15.88 13.35,0 17.04,9.1 24.78,9.1 4.65,0 7.94,-2.71 11.23,-8.13l12.2 8.33c-5.81,10.26 -13.94,15.87 -24.2,15.87zm-6.2 57.12l0 0c-2.32,-6.38 -4.07,-12.39 -5.42,-18.01l-0.2 0c-1.55,5.62 -3.1,11.63 -5.22,18.01l-12.98 37.18 36.8 0 -12.98 -37.18z"/>
  <path class="fil1" d="M1826.07 1356.1c-39.89,0 -59.44,-25.37 -59.44,-65.84 0,-43.18 28.85,-69.13 63.9,-69.13 34.85,0 59.44,20.92 59.44,65.65 0,43.18 -28.47,69.32 -63.9,69.32zm2.13 -112.31l0 0c-18.01,0 -34.66,14.32 -34.66,43.76 0,27.69 10.85,45.69 34.27,45.69 17.05,0 35.24,-13.16 35.24,-44.53 0,-29.04 -12.39,-44.92 -34.85,-44.92z"/>
  <polygon class="fil1" points="813.88,1356.23 813.88,1220.99 887.41,1220.99 887.41,1242.83 839.92,1242.83 839.92,1276.09 885,1276.09 885,1297.33 839.92,1297.33 839.92,1334 887.41,1334 887.41,1356.23 "/>
  <path class="fil1" d="M1966.31 1150.27c-48.75,0 -64.44,-32.22 -64.44,-66.92 0,-44.2 23.13,-75.4 69.81,-75.4 9.91,0 20.65,1.45 29.74,4.13l-3.72 24.58c-8.46,-3.1 -17.96,-4.74 -27.47,-4.74 -26.02,0 -38.82,19.61 -38.82,46.88 0,30.15 12.59,47.09 40.68,47.09 8.47,0 19.21,-2.27 26.44,-5.78l4.13 23.75c-10.33,3.93 -23.34,6.41 -36.35,6.41z"/>
  <polygon class="fil1" points="2021.1,1148.61 2021.1,1009.19 2047.95,1009.19 2047.95,1148.61 "/>
  <path class="fil1" d="M2074.86 1148.61l0 -139.42 75.8 0 0 22.51 -48.95 0 0 34.29 46.47 0 0 21.9 -46.47 0 0 37.8 48.95 0 0 22.92 -75.8 0zm65.06 -147.68l0 0 -28.09 -12.39 -27.88 12.39 -5.99 -12.8 34.08 -17.98 34.28 17.56 -6.4 13.22z"/>
  <path class="fil1" d="M2255.4 1148.61l-40.9 -70.43c-5.99,-10.54 -10.95,-20.86 -15.08,-29.95 0.83,11.98 1.24,33.87 1.24,50.61l0 49.77 -26.03 0 0 -139.42 34.91 0 38.84 66.51c6.4,10.74 11.98,22.31 17.14,32.84 -1.03,-14.04 -1.45,-38.83 -1.45,-55.97l0 -43.38 26.03 0 0 139.42 -34.7 0z"/>
  <path class="fil1" d="M2375.19 1150.27c-48.75,0 -64.45,-32.22 -64.45,-66.92 0,-44.2 23.13,-75.4 69.81,-75.4 9.92,0 20.66,1.45 29.75,4.13l-3.72 24.58c-8.47,-3.1 -17.97,-4.74 -27.47,-4.74 -26.03,0 -38.83,19.61 -38.83,46.88 0,30.15 12.6,47.09 40.69,47.09 8.46,0 19.21,-2.27 26.44,-5.78l4.13 23.75c-10.33,3.93 -23.34,6.41 -36.35,6.41z"/>
  <polygon class="fil1" points="2429.97,1148.61 2429.97,1009.19 2456.83,1009.19 2456.83,1148.61 "/>
  <path class="fil1" d="M2568.83 1148.61l-9.71 -28.5 -52.67 0 -9.71 28.5 -27.05 0 48.75 -139.42 30.35 0 49.78 139.42 -29.74 0zm-30.36 -89.43l0 0c-2.48,-6.82 -4.34,-13.22 -5.78,-19.21l-0.21 0c-1.66,5.99 -3.31,12.39 -5.58,19.21l-13.84 39.66 39.25 0 -13.84 -39.66z"/>
 </g>
</svg>
